<svg fill="none" xmlns="http://www.w3.org/2000/svg" viewBox="0 0 40 40"><path d="M39.771.229a.781.781 0 00-.755-.202l-16.84 4.512a.781.781 0 00-.35 1.307l3.582 3.581-15.295 15.295a.781.781 0 001.105 1.105L27.065 9.98a.781.781 0 000-1.105l-3.177-3.177 14.226-3.812-3.812 14.226-3.177-3.177a.781.781 0 00-1.105 0l-5.496 5.496a.781.781 0 001.105 1.105l4.944-4.944 3.581 3.582a.782.782 0 001.307-.35L39.973.983a.781.781 0 00-.202-.755z" fill="#42A64B"/><path d="M21.566 22.494a.781.781 0 00-1.105 0L4.84 38.114l-2.955-2.955 5.126-5.126a.781.781 0 00-1.105-1.105L.23 34.606a.781.781 0 000 1.105l4.06 4.06a.78.78 0 001.105 0L21.566 23.6a.781.781 0 000-1.105zM13.977 10l3.674-3.674a.782.782 0 000-1.104l-2.873-2.873a.781.781 0 00-1.104 0L10 6.022 6.326 2.35a.782.782 0 00-1.105 0L2.35 5.222a.781.781 0 000 1.105L6.022 10 2.35 13.674a.781.781 0 000 1.104l2.873 2.873c.305.305.8.305 1.104 0L10 13.978l3.674 3.673a.779.779 0 001.104 0l2.873-2.873a.781.781 0 000-1.104L13.977 10zm.25 5.994l-3.675-3.674a.78.78 0 00-1.104 0l-3.674 3.674-1.768-1.768 3.674-3.674a.781.781 0 000-1.104L4.006 5.774l1.768-1.768L9.448 7.68c.305.305.8.305 1.104 0l3.674-3.674 1.768 1.768-3.674 3.674a.782.782 0 000 1.104l3.674 3.674-1.768 1.768zM30 22.266c-4.265 0-7.734 3.47-7.734 7.734 0 4.265 3.47 7.734 7.734 7.734 4.265 0 7.734-3.47 7.734-7.734 0-4.265-3.47-7.734-7.734-7.734zm0 13.906A6.179 6.179 0 0123.828 30 6.179 6.179 0 0130 23.828 6.179 6.179 0 0136.172 30 6.179 6.179 0 0130 36.172z" fill="#42A64B"/><path d="M30 25.437A4.568 4.568 0 0025.437 30 4.569 4.569 0 0030 34.564 4.569 4.569 0 0034.563 30 4.569 4.569 0 0030 25.437zM30 33c-1.655 0-3-1.346-3-3 0-1.656 1.345-3.002 3-3.002A3.004 3.004 0 0133.001 30 3.004 3.004 0 0130 33.001zM9.16 26.78a.787.787 0 00-.552-.23.786.786 0 00-.781.781c0 .207.083.408.228.553a.787.787 0 00.553.23.787.787 0 00.552-.23.787.787 0 00.229-.552.787.787 0 00-.229-.552zM23.6 20.461a.787.787 0 00-.553-.229.787.787 0 00-.553.229.787.787 0 00-.228.552c0 .206.083.407.229.553a.787.787 0 00.552.229.787.787 0 00.552-.23.787.787 0 00.23-.552.787.787 0 00-.23-.552z" fill="#42A64B"/></svg>