<svg fill="none" xmlns="http://www.w3.org/2000/svg" viewBox="0 0 40 41"><path d="M25.323 14.5a.786.786 0 00-.552-.23.788.788 0 00-.552.23.786.786 0 00-.23.552.787.787 0 00.781.781.786.786 0 00.782-.781.782.782 0 00-.229-.553z" fill="#fff"/><path d="M38.268 5.686a.781.781 0 00-1.067.287l-3.544 6.15a3.788 3.788 0 00-.964.002h-.004a3.59 3.59 0 00-.647.145l-.41.134-.94.252a2.472 2.472 0 01-1.442-.33L25.084 9.92a1.102 1.102 0 01-.403-1.504l.77-1.334h.001l3.421-5.91A.781.781 0 0027.521.39l-3.03 5.234-.356-.206C22.61 4.538 10.002 2.191 7.49 1.729l-.016-.002c-1.5-.243-2.919.379-3.616 1.586L2.573 5.54c-.893 1.546-.281 3.59 1.357 4.649l-.307.532a1.97 1.97 0 00-.198 1.505c.137.512.465.94.924 1.204l.163.095a1.97 1.97 0 001.505.198 1.97 1.97 0 001.204-.925l.305-.527 1.84 1.063a13.772 13.772 0 00-6.37 4.442 13.541 13.541 0 00-1.129 1.646A13.759 13.759 0 000 26.322c0 3.553 1.361 6.794 3.59 9.23.037.052.082.1.132.141a13.726 13.726 0 005.371 3.521c1.436.513 2.982.794 4.593.794a13.613 13.613 0 005.2-1.028 13.745 13.745 0 005.008-3.553.79.79 0 00.126-.142 13.628 13.628 0 003.263-10.509c-.007-.066-.013-.132-.021-.197a.886.886 0 00-.004-.023l-.09-.572.21-.363c.426.15.863.225 1.29.225 1.178 0 2.282-.556 2.869-1.573l1.285-2.227 3.023-5.234c.427-.74.131-1.714-.66-2.17l-.018-.01 3.388-5.88a.78.78 0 00-.287-1.066zm-18.665.065l.655 2.445L19.14 8 18.47 5.5l1.133.25zm-5.697-1.199l.703 2.624-1.119-.194-.71-2.654 1.126.224zm-8.038 7.465a.418.418 0 01-.575.154l-.163-.094a.418.418 0 01-.154-.575l.304-.527.892.515-.304.527zm3.684 2.903l-1.778 3.083-3.502.657a12.055 12.055 0 015.28-3.74zm2.631 2.729c.686 0 1.355-.356 1.722-.992l.304-.527 1.806 1.043a2.9 2.9 0 002.016.349c.301-.06.642.002.936.171l2.16 1.248c.72.416 1.276 1.074 1.524 1.806a.78.78 0 00.35.426l.745.43-.32.552a1.986 1.986 0 00.727 2.71l.163.094c.24.139.5.22.76.251l-2.887 2.913-3.851-.865-.41-1.261-.878-2.7 1.335-2.028a.781.781 0 00-1.305-.859l-1.31 1.99h-4.166l-2.417-3.72 1.171-2.031c.169.261.398.48.674.64l.163.094c.312.18.652.266.988.266zm-.524-2.288l.305-.527.544.314.348.2-.304.528a.422.422 0 01-.576.154l-.162-.094a.419.419 0 01-.155-.575zm5.155 12.264l-1.558 1.131-1.558 1.132-3.115-2.264 1.19-3.662h3.85l1.19 3.663zM3.049 20.48l4.852-.911 2.42 3.725-1.287 3.964-3.163.71-.684.154-3.494-3.588a12.092 12.092 0 011.356-4.054zm.613 12.654a12.05 12.05 0 01-2.095-6.49l2.546 2.614-.45 3.876zm1.378 1.678l.604-5.191 3.644-.819.178-.04 3.426 2.49v3.677l-3.7 2.652a12.163 12.163 0 01-4.152-2.77zm8.646 3.633c-.9 0-1.776-.099-2.62-.285l2.653-1.901 2.961 1.812c-.958.244-1.961.374-2.994.374zm4.905-1.037l-4.111-2.516v-3.64l2.522-1.833.904-.656.246.055 3.6.808.793 4.962a12.18 12.18 0 01-3.954 2.82zm5.268-4.5l-.585-3.66 2.529-2.551a12.049 12.049 0 01-1.944 6.211zm1.813-9.457a.422.422 0 01-.575.154l-.163-.093a.422.422 0 01-.154-.576l.304-.527.892.515-.304.527zm1.814-1.493l-3.463-1.999a4.948 4.948 0 00-2.115-2.371l-2.16-1.248a2.911 2.911 0 00-2.023-.35c-.3.06-.638-.003-.929-.17l-2.482-1.434-.772-.445-5.911-3.413L5.384 9.23l-.496-.286c-.966-.558-1.405-1.637-1.038-2.475a3.96 3.96 0 001.543 1.601l11.907 6.874c.624.36 1.34.485 2.016.35.301-.06.642.002.936.171l2.16 1.248c.721.416 1.276 1.074 1.524 1.806.061.18.185.33.35.425l3.704 2.14a3.938 3.938 0 002.11.533c-.527.73-1.663.89-2.615.34zm3.983-2.693c-.224.389-.616.656-1.103.754a2.297 2.297 0 01-1.594-.288l-3.463-2a4.948 4.948 0 00-2.115-2.37l-2.16-1.248a2.912 2.912 0 00-2.023-.35c-.3.06-.638-.003-.929-.17L6.175 6.717c-1.025-.592-1.457-1.769-.963-2.624.368-.638 1.154-.962 2.005-.826 1.165.214 2.484.462 3.855.727l1.038 3.873a.781.781 0 00.621.568l2.815.488a.782.782 0 00.888-.972L15.616 4.9l1.138.235 1.006 3.754a.781.781 0 00.62.568l2.816.488a.782.782 0 00.888-.972l-.754-2.815c1.05.26 1.783.475 2.024.614l.355.205-.38.66a2.667 2.667 0 00.974 3.637l3.66 2.114-1.12.3a.781.781 0 00.405 1.51l3.733-1c.217-.03.43-.077.639-.145l.456-.15.877-.234c.48-.048.998.065 1.451.327.04.023.06.05.07.067l-3.005 5.203zM39.771 3.483a.787.787 0 00-.552-.23.787.787 0 00-.553.23.786.786 0 00-.228.552c0 .206.083.407.228.552a.787.787 0 00.553.23.787.787 0 00.552-.23.787.787 0 00.229-.552.787.787 0 00-.229-.552z" fill="#42A64B"/></svg>