<svg fill="none" xmlns="http://www.w3.org/2000/svg" viewBox="0 0 40 40"><path d="M20.552.23A.787.787 0 0020 0a.787.787 0 00-.552.23.787.787 0 00-.23.551.787.787 0 00.781.781.786.786 0 00.553-.228.787.787 0 00.23-.553.787.787 0 00-.23-.552z" fill="#42A64B"/><g clip-path="url(#clip0)" fill="#42A64B"><path d="M28.7 19.684a11.566 11.566 0 00-3.04-5.352 11.567 11.567 0 00-5.352-3.04 2.326 2.326 0 00-1.774.261 2.328 2.328 0 00-1.07 1.44 2.346 2.346 0 001.7 2.843c.264.066.526.15.78.247a.78.78 0 10.56-1.458 8.405 8.405 0 00-.958-.303.782.782 0 01.38-1.515c1.748.44 3.349 1.349 4.63 2.63a10.005 10.005 0 012.63 4.629.775.775 0 01-.087.59.776.776 0 01-.48.357.776.776 0 01-.948-.566 8.415 8.415 0 00-.46-1.338.781.781 0 00-1.43.63c.156.352.282.718.375 1.09a2.342 2.342 0 104.544-1.145z"/><path d="M34.578 20.041a16.01 16.01 0 00-14.655-14.48 2.327 2.327 0 00-1.706.553 2.34 2.34 0 001.333 4.119 11.35 11.35 0 015.156 1.726.781.781 0 10.837-1.319 12.916 12.916 0 00-5.87-1.964.78.78 0 11.125-1.557 14.447 14.447 0 0113.224 13.066.775.775 0 01-.177.57.776.776 0 01-.529.279.776.776 0 01-.57-.177.776.776 0 01-.28-.53 12.937 12.937 0 00-1.86-5.569.781.781 0 00-1.33.82 11.368 11.368 0 011.636 4.893c.057.623.353 1.186.835 1.587a2.325 2.325 0 001.712.531 2.327 2.327 0 001.587-.835c.4-.481.589-1.09.532-1.713z"/><path d="M34.149 5.843A19.843 19.843 0 0020.259 0a2.327 2.327 0 00-1.664.668 2.327 2.327 0 00-.704 1.65A2.325 2.325 0 0018.577 4a2.33 2.33 0 001.63.686 15.183 15.183 0 0110.629 4.47 15.183 15.183 0 014.47 10.629c.008.625.258 1.21.705 1.649a2.327 2.327 0 001.664.668 2.345 2.345 0 002.317-2.369 19.843 19.843 0 00-5.843-13.89zm3.509 14.697a.773.773 0 01-.555-.223.775.775 0 01-.234-.55A16.737 16.737 0 0031.94 8.052a16.737 16.737 0 00-11.715-4.928.776.776 0 01-.544-.229.775.775 0 01-.229-.56.775.775 0 01.235-.55.776.776 0 01.546-.223h.009a18.29 18.29 0 0112.803 5.386A18.29 18.29 0 0138.43 19.75a.782.782 0 01-.772.79zM21.484 19.312a.79.79 0 00-.126-.135 12.393 12.393 0 00-4.862-3.18 12.301 12.301 0 00-4.13-.711 12.291 12.291 0 00-4.7.93 12.41 12.41 0 00-4.515 3.202.783.783 0 00-.12.135 12.304 12.304 0 00-2.946 9.462l.001.013c.194 1.73.746 3.353 1.58 4.793.022.046.048.09.078.13 2.157 3.62 6.11 6.05 10.621 6.05 4.499 0 8.443-2.418 10.605-6.021a.78.78 0 00.084-.143 12.264 12.264 0 001.668-6.194c0-3.207-1.228-6.132-3.238-8.33zm-1.447.744l-.531 4.562-3.337.75-3.012-2.188v-3.217l3.25-2.33a10.833 10.833 0 013.63 2.423zm-4.983 6.449l-1.031 3.175h-3.338l-1.032-3.175 1.35-.98 1.35-.982 2.701 1.962zm-2.689-9.657c.738 0 1.46.074 2.156.216l-2.19 1.569-2.447-1.497a10.785 10.785 0 012.481-.288zm-4.406.94L11.573 20v3.18l-3.011 2.188-3.362-.755-.697-4.36a10.845 10.845 0 013.456-2.465zm-6.376 9.316c.093-1.882.67-3.639 1.61-5.148l.486 3.035-2.096 2.113zm1.296 5.689a10.716 10.716 0 01-1.194-3.573l3.078-3.105 3.367.756 1.13 3.477-2.121 3.263-4.26-.818zm1.26 1.832l2.87.551 1.463 2.535a10.84 10.84 0 01-4.333-3.086zm8.226 3.813c-.597 0-1.182-.05-1.753-.143l-2.189-3.794 2.118-3.26h3.648l2.118 3.26-2.188 3.794a10.83 10.83 0 01-1.754.143zm3.893-.727l1.462-2.533 2.858-.537a10.84 10.84 0 01-4.32 3.07zm5.58-4.896l-4.246.798-2.121-3.265 1.13-3.477 3.362-.755 3.074 3.157a10.716 10.716 0 01-1.199 3.542zm-.802-7.835l.375-3.222a10.725 10.725 0 011.737 5.391l-2.112-2.169zM23.451 16.541a.787.787 0 00-.552-.229.787.787 0 00-.552.23.787.787 0 00-.229.551c0 .206.084.407.229.552a.787.787 0 00.552.23.787.787 0 00.552-.23.787.787 0 00.229-.552.787.787 0 00-.229-.552z"/><path d="M27.75 12.407a.79.79 0 00-.553-.229.787.787 0 00-.553.229.787.787 0 00-.228.552.786.786 0 00.78.781.786.786 0 00.553-.229.785.785 0 000-1.104z"/></g><defs><clipPath id="clip0"><path fill="#fff" d="M0 0h40v40H0z"/></clipPath></defs></svg>