<svg fill="none" xmlns="http://www.w3.org/2000/svg" viewBox="0 0 40 40"><g clip-path="url(#clip0)" fill="#42A64B"><path d="M15.929 11.439L12.323 1.127A1.663 1.663 0 0010.735 0c-.725 0-1.348.442-1.588 1.127L5.541 11.439a2.625 2.625 0 00-2.11 2.57v1.616c0 .431.35.781.782.781h3.435a.781.781 0 000-1.562H4.994v-.834a1.06 1.06 0 011.06-1.06H15.416a1.06 1.06 0 011.059 1.06v.834h-2.75a.781.781 0 000 1.562h3.53c.432 0 .782-.35.782-.781V14.01c0-1.27-.908-2.332-2.11-2.571zm-5.307-9.796c.01-.026.028-.08.113-.08s.104.053.113.08l1.127 3.224h-2.48l1.127-3.224zM8.95 6.429h3.572l.662 1.893H8.287l.662-1.893zm-1.735 4.96l.526-1.505h5.99l.526 1.504H7.214z"/><path d="M11.287 15.073a.785.785 0 00-.552-.23.789.789 0 00-.553.23.787.787 0 00-.229.552c0 .206.084.407.23.552a.789.789 0 00.552.23.785.785 0 00.782-.782.785.785 0 00-.23-.552zM37.805 26.936l-3.77-10.783A1.702 1.702 0 0032.41 15c-.742 0-1.38.453-1.625 1.153l-3.77 10.783a2.706 2.706 0 00-2.194 2.653v1.686c0 .43.35.78.781.78h13.615c.431 0 .781-.35.781-.78v-1.686a2.706 2.706 0 00-2.193-2.653zM32.26 16.669a.145.145 0 01.15-.106c.112 0 .14.08.15.106l1.192 3.41h-2.685l1.193-3.41zm-1.74 4.973h3.778l.715 2.044h-5.207l.715-2.044zm-1.26 3.607h6.3l.572 1.638h-7.445l.573-1.638zm9.176 5.244H26.384v-.904c0-.629.51-1.14 1.139-1.14H37.296c.629 0 1.14.511 1.14 1.14v.904zM13.084 34.849L9.281 23.97a1.71 1.71 0 00-1.633-1.158 1.71 1.71 0 00-1.632 1.158L2.212 34.85a2.722 2.722 0 00-2.21 2.67v1.7c0 .431.35.781.781.781h13.73c.432 0 .782-.35.782-.781v-1.7a2.722 2.722 0 00-2.21-2.67zM7.491 24.487c.01-.028.039-.112.157-.112.119 0 .148.084.158.112l1.206 3.448H6.285l1.206-3.448zm-1.752 5.01h3.819l.725 2.076h-5.27l.726-2.075zm-1.272 3.638h6.363l.582 1.665H3.884l.583-1.665zm-2.903 5.303v-.92c0-.637.519-1.155 1.156-1.155h9.856c.638 0 1.156.518 1.156 1.156v.919H1.564zM18.458 19.23a.781.781 0 00-1.042.366 8.475 8.475 0 00-.77 2.631.781.781 0 101.552.191c.092-.748.303-1.47.627-2.147a.781.781 0 00-.367-1.042zM19.915 27.868a6.894 6.894 0 01-1.21-1.88.782.782 0 00-1.434.619 8.449 8.449 0 001.483 2.306.78.78 0 001.103.058.781.781 0 00.058-1.103zM24.358 32.685l-1.695-1.838a.781.781 0 10-1.148 1.06l1.695 1.837a.78.78 0 001.104.045.781.781 0 00.044-1.104zM27.75 36.36l-.637-.69a.781.781 0 10-1.149 1.06l.637.69a.78.78 0 001.104.044.781.781 0 00.044-1.103zM29.056 11.619a.781.781 0 00-1.078-.24l-2.11 1.34a.781.781 0 10.838 1.319l2.11-1.34a.781.781 0 00.24-1.08zM23.517 15.138a.781.781 0 00-1.078-.24l-1.937 1.23c-.064.04-.127.081-.19.124a.781.781 0 10.874 1.295c.05-.034.102-.068.154-.1l1.936-1.231a.781.781 0 00.241-1.078zM39.734 5.184A5.477 5.477 0 0034.53 1.39h-.004-.008a5.477 5.477 0 00-5.457 5.47 5.475 5.475 0 005.47 5.468 5.475 5.475 0 005.468-5.469 5.45 5.45 0 00-.264-1.675zm-4.43-2.153a3.917 3.917 0 012.58 1.83l-1.037.256-1.543-1.12V3.03zm-.781 2.329l1.236.898-.472 1.454H33.76l-.472-1.454 1.236-.898zm-.781-2.327v.963l-1.54 1.118-1.028-.253a3.918 3.918 0 012.568-1.828zm-2.117 6.436a3.89 3.89 0 01-.967-3.126l1.101.272.574 1.765-.708 1.089zm2.904 1.297a3.882 3.882 0 01-1.646-.365l.732-1.127h1.83l.731 1.126c-.5.234-1.059.366-1.647.366zm2.905-1.298l-.716-1.102.567-1.748 1.115-.274a3.891 3.891 0 01-.967 3.125zM29.875 38.408a.787.787 0 00-.552-.23.786.786 0 00-.781.782.786.786 0 00.78.781.785.785 0 00.781-.781.787.787 0 00-.228-.552z"/></g><defs><clipPath id="clip0"><path fill="#fff" d="M0 0h40v40H0z"/></clipPath></defs></svg>