<svg fill="none" xmlns="http://www.w3.org/2000/svg" viewBox="0 0 40 40"><g clip-path="url(#clip0)" fill="#42A64B"><path d="M39.736 25.242l-3.591-3.179a15.857 15.857 0 000-4.125l3.591-3.18a.78.78 0 00.156-.981l-4.466-7.565a.78.78 0 00-.909-.348L29.9 7.326a16.316 16.316 0 00-3.664-2.077L25.222.615A.781.781 0 0024.46 0h-1.334a.781.781 0 000 1.563h.705L24.8 5.99c.056.258.24.47.487.564a14.759 14.759 0 013.974 2.251.781.781 0 00.722.133l4.414-1.398 3.822 6.475-3.425 3.031a.781.781 0 00-.254.709 14.255 14.255 0 010 4.489.781.781 0 00.254.708l3.425 3.032-3.822 6.474-1.872-.593 1.083-1.834a.781.781 0 10-1.346-.794l-1.266 2.144-.695-.22a1.414 1.414 0 00-1.281.22 14.77 14.77 0 01-3.733 2.064.78.78 0 00-.487.564l-.969 4.428h-7.66l-.904-4.135a1.334 1.334 0 00-.81-.957 14.782 14.782 0 01-3.52-1.999 1.284 1.284 0 00-1.168-.206l-4.164 1.318-3.822-6.474 3.238-2.866a1.24 1.24 0 00.405-1.108A14.262 14.262 0 015.424 18a1.269 1.269 0 00-.418-1.131l-3.224-2.854 3.822-6.474 4.414 1.398a.781.781 0 00.722-.133c1.2-.952 2.537-1.71 3.974-2.251a.781.781 0 00.487-.565l.969-4.427h.588a.781.781 0 000-1.563H15.54a.781.781 0 00-.764.615l-1.013 4.634A16.304 16.304 0 0010.1 7.326L5.483 5.864a.78.78 0 00-.909.348L.109 13.776a.781.781 0 00.155.982l3.592 3.18a15.853 15.853 0 000 4.125L.264 25.242a.781.781 0 00-.155.982l4.465 7.565a.78.78 0 00.909.347l4.617-1.462a16.347 16.347 0 003.664 2.078l1.014 4.634a.781.781 0 00.763.614h8.918a.781.781 0 00.764-.614l1.013-4.634a16.327 16.327 0 003.664-2.078l4.617 1.462a.78.78 0 00.91-.347l4.465-7.565a.781.781 0 00-.156-.982z"/><path d="M20.552.23A.787.787 0 0020 0a.787.787 0 00-.552.23.787.787 0 00-.23.551.787.787 0 00.781.781.787.787 0 00.553-.228.787.787 0 00.23-.553.787.787 0 00-.23-.552zM32.158 18.628l-.001-.015a12.273 12.273 0 00-1.581-4.793.784.784 0 00-.078-.13 12.398 12.398 0 00-8.26-5.824 12.375 12.375 0 00-4.732 0l-.044.009a12.398 12.398 0 00-8.198 5.786.785.785 0 00-.085.143A12.273 12.273 0 007.511 20c0 3.208 1.228 6.134 3.24 8.334a.79.79 0 00.125.135 12.4 12.4 0 004.848 3.176c1.297.464 2.694.717 4.149.717a12.299 12.299 0 004.696-.927 12.416 12.416 0 004.521-3.207.787.787 0 00.12-.135 12.31 12.31 0 002.948-9.465zm-2.796-3.78a10.722 10.722 0 011.195 3.574l-3.08 3.106-3.367-.756-.348-1.072-.782-2.406 2.12-3.264 4.262.818zm-1.26-1.833l-2.872-.551-1.463-2.537a10.846 10.846 0 014.335 3.088zm-9.983-3.671a10.829 10.829 0 013.508 0l2.19 3.796-2.12 3.26h-3.649l-2.119-3.26 2.19-3.796zm4.467 11.794l-1.351.982-1.35.981-2.702-1.963 1.032-3.176h3.339l1.032 3.176zm-6.608-11.21l-1.462 2.534-2.86.537a10.846 10.846 0 014.322-3.071zm-5.582 4.898l4.247-.798 2.123 3.266-1.13 3.478-3.364.755-3.076-3.158a10.72 10.72 0 011.2-3.543zm.427 11.06a10.73 10.73 0 01-1.738-5.392l2.113 2.17-.375 3.223zm1.375 1.704l.531-4.564 2.707-.608.632-.142 3.012 2.189v3.218l-3.251 2.33a10.835 10.835 0 01-3.63-2.423zm7.675 3.21c-.739 0-1.46-.075-2.157-.217l2.19-1.57 2.448 1.498c-.797.189-1.627.289-2.481.289zm4.408-.942l-3.615-2.212v-3.181l2.505-1.82.507-.369.83.187 2.533.569.697 4.36a10.85 10.85 0 01-3.457 2.466zm4.767-4.169l-.485-3.036 2.096-2.114a10.73 10.73 0 01-1.61 5.15zM35.068 26.403a.786.786 0 00-.552-.23.788.788 0 00-.553.23.786.786 0 000 1.104.787.787 0 00.553.23.786.786 0 00.78-.782.783.783 0 00-.228-.552z"/></g><defs><clipPath id="clip0"><path fill="#fff" d="M0 0h40v40H0z"/></clipPath></defs></svg>