<svg fill="none" xmlns="http://www.w3.org/2000/svg" viewBox="0 0 24 24"><g clip-path="url(#clip0)" fill="#625D52"><path d="M16.915 8.081A5.008 5.008 0 0012 4a5.008 5.008 0 00-4.912 4.065l-.003.016a4.995 4.995 0 001.972 4.959c.826.603 1.844.96 2.943.96a4.973 4.973 0 003.015-1.014 4.995 4.995 0 001.9-4.905zm-4.484-3.197a4.149 4.149 0 013.506 2.843h-1.896l-.024.001-1.586-1.152V4.884zM12 7.328l1.534 1.115-.586 1.803h-1.896l-.586-1.803L12 7.328zm-.431-2.444v1.692L9.983 7.728l-.024-.001H8.063a4.149 4.149 0 013.506-2.843zM7.862 9c0-.139.007-.276.02-.411h1.725l.673 2.07-1.071 1.393A4.128 4.128 0 017.862 9zM12 13.138c-.765 0-1.483-.21-2.098-.573l1.109-1.443.01-.014h2.006l.006.008 1.072 1.445a4.113 4.113 0 01-2.105.577zm2.797-1.091l-1.062-1.431.658-2.027h1.725a4.128 4.128 0 01-1.32 3.458z"/><path d="M9.838.276a8.898 8.898 0 00-6.697 8.63 8.878 8.878 0 002.931 6.604l-2.824 4.977a.469.469 0 00.503.69l3.208-.665 1.127 3.176a.469.469 0 00.849.075l3.112-5.471 3.112 5.47a.468.468 0 00.849-.074l1.127-3.176 3.207.666a.469.469 0 00.503-.69l-2.824-4.978a8.879 8.879 0 002.932-6.604 8.898 8.898 0 00-6.697-8.63.469.469 0 10-.232.909 7.961 7.961 0 015.992 7.721c0 4.438-3.604 7.969-7.97 7.969-4.367 0-7.968-3.534-7.968-7.969a7.961 7.961 0 015.991-7.721.469.469 0 00-.231-.909zM8.627 22.41l-.922-2.596a.469.469 0 00-.537-.302l-2.593.538L6.81 16.11a8.925 8.925 0 004.45 1.668l-2.633 4.63zm8.298-2.898a.469.469 0 00-.537.302l-.92 2.596-2.635-4.631a8.925 8.925 0 004.45-1.668l2.236 3.94-2.594-.54z"/></g><defs><clipPath id="clip0"><path fill="#fff" d="M0 0h24v24H0z"/></clipPath></defs></svg>