<svg fill="none" xmlns="http://www.w3.org/2000/svg" viewBox="0 0 24 24"><path d="M18.75 7.125H12a.469.469 0 100 .938h6.75a.469.469 0 100-.938zM12.331 2.153a.472.472 0 00-.663 0 .472.472 0 000 .663.472.472 0 00.663 0 .473.473 0 000-.663zM18.75 12.188H12a.469.469 0 000 .937h6.75a.469.469 0 000-.938zM18.75 17.25H12a.469.469 0 000 .937h6.75a.469.469 0 100-.937z" fill="#625D52"/><path d="M19.652 1.828h-3.58a2.872 2.872 0 00-1.987-.797h-.41A1.881 1.881 0 0012 0c-.716 0-1.36.41-1.674 1.031h-.412c-.77 0-1.47.304-1.987.797H4.348a2.288 2.288 0 00-2.285 2.286v17.6A2.288 2.288 0 004.348 24h15.304a2.288 2.288 0 002.285-2.285V4.114a2.288 2.288 0 00-2.285-2.286zm-9.738.14h.73c.211 0 .396-.14.453-.343A.94.94 0 0112 .937a.94.94 0 01.903.688.469.469 0 00.452.344h.73c1.017 0 1.855.785 1.938 1.781H7.976a1.948 1.948 0 011.938-1.781zM21 21.716a1.35 1.35 0 01-1.348 1.348H4.348A1.35 1.35 0 013 21.715V4.114a1.35 1.35 0 011.348-1.348h2.923c-.154.352-.24.74-.24 1.148v.305c0 .259.21.469.469.469h8.999c.259 0 .469-.21.469-.47v-.304c0-.408-.086-.796-.24-1.148h2.924A1.35 1.35 0 0121 4.114v17.6z" fill="#625D52"/><path d="M9.02 7.012a.469.469 0 00-.664 0L6.352 9.017l-.618-.618a.469.469 0 00-.663.663l.95.95a.467.467 0 00.662 0L9.02 7.674a.469.469 0 000-.663zM7.875 17.25h-2.25a.469.469 0 00-.469.469v2.25c0 .259.21.468.469.468h2.25c.259 0 .469-.21.469-.468v-2.25a.469.469 0 00-.469-.47zm-.469 2.25H6.094v-1.313h1.312V19.5zM7.875 12.188h-2.25a.469.469 0 00-.469.468v2.25c0 .26.21.469.469.469h2.25c.259 0 .469-.21.469-.469v-2.25a.469.469 0 00-.469-.469zm-.469 2.25H6.094v-1.313h1.312v1.313z" fill="#625D52"/></svg>