<svg fill="none" xmlns="http://www.w3.org/2000/svg" viewBox="0 0 24 24"><path d="M14.242 6.764a3.634 3.634 0 00-2.192-1.228L9.68 5.16a.468.468 0 00-.073-.006H5.503a.469.469 0 00-.073.006l-2.369.376A3.634 3.634 0 000 9.12V12c0 .259.21.469.469.469H2.94v.656a.469.469 0 00.937 0v-3.36a.469.469 0 00-.937 0v1.766H.938v-2.41a2.68 2.68 0 012.27-2.66l1.852-.293v.093c0 1.37 1.12 2.484 2.495 2.484a2.493 2.493 0 002.496-2.484v-.093l1.852.294a2.68 2.68 0 012.27 2.66v2.41h-1.938V9.78a.469.469 0 00-.937 0v7.313h-7.42v-.843a.469.469 0 00-.937 0v7.281c0 .26.21.469.469.469h8.357c.258 0 .468-.21.468-.469V12.47h2.407c.259 0 .469-.21.469-.469V9.121c0-.863-.309-1.7-.87-2.357zM9.114 6.26c0 .852-.7 1.546-1.559 1.546s-1.558-.694-1.558-1.546v-.17h3.117v.17zm2.184 16.801H8.024v-2.671a.469.469 0 00-.937 0v2.672H3.879V18.03h7.419v5.032z" fill="#625D52"/><path d="M10.07 9.672H7.717a.469.469 0 00-.468.469v2.843c0 .16.081.31.217.396l1.175.748a.468.468 0 00.504 0l1.175-.748a.469.469 0 00.217-.396v-2.843a.469.469 0 00-.469-.47zm-1.883.937H9.6v.766H8.187v-.766zm1.414 2.118l-.707.45-.707-.45v-.415h1.414v.415zM23.13 1.61A3.633 3.633 0 0020.94.382L18.57.006A.469.469 0 0018.497 0h-4.104a.473.473 0 00-.074.006L11.95.382a3.634 3.634 0 00-3.06 3.585v.322a.469.469 0 00.937 0v-.322a2.68 2.68 0 012.27-2.66l1.852-.293v.093c0 1.37 1.12 2.484 2.496 2.484a2.493 2.493 0 002.495-2.484v-.093l1.852.294a2.68 2.68 0 012.27 2.66v2.41h-1.171a.469.469 0 000 .937h1.64c.26 0 .469-.21.469-.469V3.967c0-.863-.309-1.7-.87-2.357zm-5.127-.503c0 .853-.7 1.546-1.558 1.546-.86 0-1.559-.693-1.559-1.546v-.17h3.117v.17z" fill="#625D52"/><path d="M20.656 5.742a.469.469 0 00-.469.469v5.728h-3.591a.469.469 0 000 .938h3.591v5.032h-3.139v-3.471a.469.469 0 00-.938 0v3.47h-2.704a.469.469 0 000 .938h7.25c.259 0 .469-.21.469-.469V6.211a.469.469 0 00-.47-.469z" fill="#625D52"/><path d="M18.806 5.031h-2.351a.469.469 0 00-.469.47V8.342c0 .16.082.31.217.396l1.176.749a.468.468 0 00.503 0l1.176-.749a.469.469 0 00.217-.395V5.5a.469.469 0 00-.47-.469zm-.469 3.056l-.707.45-.706-.45v-.415h1.413v.415zm0-1.353h-1.413V5.97h1.413v.765z" fill="#625D52"/></svg>