<svg fill="none" xmlns="http://www.w3.org/2000/svg" viewBox="0 0 24 24"><g clip-path="url(#clip0)" fill="#625D52"><path d="M14.344 16.219h-.469v-6.094a.469.469 0 00-.469-.469h-3.75a.469.469 0 00-.469.469V12c0 .259.21.469.47.469h.468v3.75h-.469a.469.469 0 00-.469.468v1.875c0 .26.21.47.47.47h4.687c.259 0 .469-.21.469-.47v-1.875a.469.469 0 00-.47-.468zm-.469 1.875h-3.75v-.938h.469c.259 0 .469-.21.469-.468V12a.469.469 0 00-.47-.469h-.468v-.937h2.813v6.094c0 .258.21.468.468.468h.469v.938zM12 8.719a1.877 1.877 0 001.875-1.875A1.877 1.877 0 0012 4.969a1.877 1.877 0 00-1.875 1.875c0 1.034.841 1.875 1.875 1.875zm0-2.813a.939.939 0 010 1.875.939.939 0 010-1.875z"/><path d="M12 0C5.532 0 0 5.522 0 12c0 2.213.634 4.566 1.703 6.346l-1.68 5.037a.469.469 0 00.594.593l5.037-1.68C7.434 23.367 9.787 24 12 24c6.469 0 12-5.523 12-12 0-6.47-5.523-12-12-12zm0 23.063c-2.123 0-4.38-.627-6.036-1.676a.469.469 0 00-.4-.049L1.21 22.79l1.451-4.355a.468.468 0 00-.048-.4C1.563 16.38.937 14.123.937 12 .937 6.003 6.003.937 12 .937 17.996.938 23.062 6.003 23.062 12c0 5.997-5.066 11.063-11.062 11.063z"/></g><defs><clipPath id="clip0"><path fill="#fff" d="M0 0h24v24H0z"/></clipPath></defs></svg>