<svg fill="none" xmlns="http://www.w3.org/2000/svg" viewBox="0 0 64 64"><path d="M17.728 52.36a1.26 1.26 0 00-.884-.366c-.329 0-.651.133-.884.366a1.26 1.26 0 00-.366.884c0 .328.134.65.366.883.233.233.554.367.884.367.329 0 .651-.134.884-.367.232-.232.366-.555.366-.883a1.26 1.26 0 00-.366-.884z" fill="#F9DB0D"/><path d="M47.603.692a1.25 1.25 0 10-.624 2.42c.422.11.837.232 1.246.367L42.08 6.143l-6.795-2.404a19.56 19.56 0 012.193-.679 1.25 1.25 0 10-.597-2.427c-1.257.309-2.481.733-3.66 1.26a1.253 1.253 0 00-.147-.01H13.824a1.25 1.25 0 00-.67 2.306l6.3 3.994L5.404 21.08A1.25 1.25 0 006 23.225l7.481 1.535L.365 37.93a1.25 1.25 0 001.209 2.09l14.478-3.878L.184 62.098a1.25 1.25 0 001.717 1.72l11.996-7.314a1.25 1.25 0 10-1.301-2.134l-7.583 4.622 14.804-24.215a1.25 1.25 0 00-1.39-1.86L5.413 36.404l11.473-11.52a1.25 1.25 0 00-.634-2.107l-7.355-1.509L22.346 8.921a1.25 1.25 0 00-.176-1.976l-4.04-2.562h10.867a21.929 21.929 0 00-4.012 3.898c-3.097 3.901-4.735 8.602-4.735 13.594 0 .694.035 1.381.098 2.06l.002.014a21.709 21.709 0 002.305 7.891c.032.077.07.15.116.22 3.67 6.944 10.968 11.69 19.354 11.69 7.144 0 13.498-3.443 17.492-8.755v10.813l-2.556-4.103a1.25 1.25 0 00-1.986-.18L42.731 55.09l-1.506-7.34a1.25 1.25 0 00-2.107-.635L27.565 58.619l3.394-12.926a1.25 1.25 0 00-1.86-1.385l-9.066 5.527a1.25 1.25 0 001.302 2.135l6.419-3.914-3.775 14.377a1.25 1.25 0 002.091 1.203L39.242 50.52l1.535 7.481a1.25 1.25 0 002.149.59L55.813 44.43l3.993 6.41a1.25 1.25 0 002.311-.662v-19.43a21.693 21.693 0 001.654-5.716l.005-.038c.146-1.02.224-2.06.224-3.118C64 11.893 57.257 3.182 47.603.692zm-4.208 7.606l7.977-3.458a19.323 19.323 0 015.098 4.002l-1.434 7.746-6.166 1.385-5.475-3.978V8.298zm-1.29 7.879l4.977 3.617-1.901 5.85h-6.153l-1.901-5.85 2.489-1.809 2.488-1.808zM32.114 5.27l8.74 3.091v5.634l-5.475 3.978-.287-.065-5.99-1.345-2.182-6.722a19.297 19.297 0 015.194-4.571zM22.77 21.007a19.36 19.36 0 012.385-8.509l1.548 4.766-3.933 3.743zm.135 3.322l5.607-5.336 6.177 1.387 2.058 6.334-3.825 5.886-8.234-2.285a19.218 19.218 0 01-1.783-5.986zm3.683 9.108l6.055 1.68 2.867 4.969a19.468 19.468 0 01-8.922-6.65zm15.537 7.812a19.43 19.43 0 01-3.213-.267l-3.976-6.893 3.862-5.944h6.653l3.863 5.944-3.977 6.893a19.428 19.428 0 01-3.212.267zm6.615-1.163l2.845-4.931 5.702-1.233a19.459 19.459 0 01-8.547 6.164zm10.502-9.144l-7.884 1.704-3.855-5.932 2.058-6.334 5.223-1.173.888-.2 5.538 6.208a19.23 19.23 0 01-1.968 5.727zm-1.786-13.69l1.058-5.718a19.353 19.353 0 012.985 10.25l-4.043-4.532z" fill="#F9DB0D"/><path d="M42.204 0h-.08a1.25 1.25 0 000 2.5H42.199a1.25 1.25 0 00.006-2.5z" fill="#F9DB0D"/></svg>