<svg fill="none" xmlns="http://www.w3.org/2000/svg" viewBox="0 0 64 64"><g clip-path="url(#clip0)" fill="#F9DB0D"><path d="M41.383.366A1.259 1.259 0 0040.5 0a1.26 1.26 0 00-.884.366 1.26 1.26 0 00-.366.884c0 .329.133.651.366.884.233.232.555.366.884.366.329 0 .651-.134.883-.366a1.26 1.26 0 00.367-.884 1.26 1.26 0 00-.367-.884zM41.225 6.067c.425-.544-.425.544 0 0zM47.546 9.419L42.98 5.851a1.25 1.25 0 10-1.54 1.97l2.265 1.77-10.816 1.585a1.25 1.25 0 00.363 2.473l10.619-1.556-1.647 2.108a1.25 1.25 0 101.97 1.54l3.568-4.567c.419-.535.32-1.337-.216-1.755zM18.99 14.226l-2.187-2.188 2.188-2.187a1.25 1.25 0 000-1.768l-3.536-3.536a1.25 1.25 0 00-1.768 0L11.5 6.735 9.312 4.547a1.25 1.25 0 00-1.768 0L4.01 8.083a1.25 1.25 0 000 1.768l2.188 2.188-2.188 2.187a1.25 1.25 0 000 1.768l3.536 3.535a1.25 1.25 0 001.768 0l2.187-2.187 2.188 2.187a1.246 1.246 0 001.767 0l3.536-3.535a1.25 1.25 0 000-1.768zm-4.838-1.304l2.187 2.188-1.767 1.767-2.188-2.187a1.246 1.246 0 00-1.768 0l-2.188 2.188-1.767-1.768 2.187-2.188a1.25 1.25 0 000-1.768L6.661 8.967l1.768-1.768 2.187 2.188a1.25 1.25 0 001.768 0l2.188-2.188 1.767 1.768-2.187 2.187a1.25 1.25 0 000 1.768zM33.767 31.719l2.188-2.188a1.25 1.25 0 000-1.768l-3.535-3.535a1.25 1.25 0 00-1.768 0l-2.188 2.188-2.187-2.188a1.25 1.25 0 00-1.768 0l-3.536 3.535a1.25 1.25 0 000 1.768l2.188 2.188-2.188 2.187a1.25 1.25 0 000 1.768l3.536 3.536a1.25 1.25 0 001.768 0l2.187-2.188 2.188 2.188a1.246 1.246 0 001.768 0l3.535-3.536a1.25 1.25 0 000-1.768l-2.188-2.187zm-2.651.884l2.188 2.187-1.768 1.768-2.188-2.188a1.247 1.247 0 00-1.768 0l-2.187 2.188-1.768-1.768 2.188-2.187a1.25 1.25 0 000-1.768l-2.188-2.188 1.768-1.767 2.187 2.187a1.25 1.25 0 001.768 0l2.188-2.188 1.768 1.768-2.188 2.188a1.25 1.25 0 000 1.768z"/><path d="M64 7.356V1.25C64 .56 63.44 0 62.75 0h-17a1.25 1.25 0 000 2.5h5.348a7.343 7.343 0 00-1.848 4.875c0 4.067 3.309 7.375 7.375 7.375a7.343 7.343 0 004.874-1.847V17.7c-.894-.6-1.969-.95-3.125-.95a5.631 5.631 0 00-5.625 5.624c0 1.501.593 2.866 1.554 3.875H40c-.69 0-1.25.56-1.25 1.25v5c0 .69.56 1.25 1.25 1.25h11.25v6.385H2.5V2.5h31.813a1.25 1.25 0 000-2.5H1.25C.56 0 0 .56 0 1.25v40.134c0 .69.56 1.25 1.25 1.25h5.575c-.6.895-.95 1.97-.95 3.125a5.6 5.6 0 001.378 3.682C3.042 50.859 0 54.843 0 59.525v3.225C0 63.44.56 64 1.25 64h61.5c.69 0 1.25-.56 1.25-1.25v-3.225c0-4.682-3.042-8.666-7.253-10.084a5.6 5.6 0 001.378-3.682c0-1.155-.351-2.23-.95-3.125h5.575c.69 0 1.25-.56 1.25-1.25V7.394v-.019-.019zM52.5 42.634a3.129 3.129 0 013.125 3.125 3.128 3.128 0 01-3.125 3.125 3.129 3.129 0 01-3.125-3.125 3.129 3.129 0 013.125-3.125zm-20.484 0a3.129 3.129 0 013.125 3.125 3.128 3.128 0 01-3.125 3.125 3.128 3.128 0 01-3.125-3.125 3.129 3.129 0 013.125-3.125zm-20.516 0a3.129 3.129 0 013.125 3.125 3.129 3.129 0 01-3.125 3.125 3.128 3.128 0 01-3.125-3.125 3.129 3.129 0 013.125-3.125zm9 18.866h-18v-1.975c0-4.489 3.652-8.14 8.141-8.14h1.718c4.489 0 8.141 3.651 8.141 8.14V61.5zm-4.753-12.06a5.6 5.6 0 001.378-3.68c0-1.156-.35-2.231-.95-3.126H27.34c-.6.895-.95 1.97-.95 3.125a5.6 5.6 0 001.374 3.678 10.694 10.694 0 00-6.015 5.091 10.695 10.695 0 00-6.003-5.087zM41 61.5H23v-1.975c0-4.489 3.652-8.14 8.141-8.14h1.718c4.489 0 8.14 3.651 8.14 8.14V61.5zm-4.74-12.055a5.6 5.6 0 001.38-3.686c0-1.155-.35-2.23-.95-3.125h11.135c-.6.895-.95 1.97-.95 3.125a5.6 5.6 0 001.377 3.682 10.695 10.695 0 00-6.002 5.087 10.695 10.695 0 00-5.99-5.083zm25.24 10.08V61.5h-18v-1.975c0-4.489 3.652-8.14 8.14-8.14h1.718c4.49 0 8.142 3.651 8.142 8.14zm0-19.39h-7.75V32.5c0-.69-.56-1.25-1.25-1.25H41.25v-2.5H61.5v11.384zM58.373 25.5a3.129 3.129 0 01-3.125-3.125 3.129 3.129 0 013.125-3.125 3.129 3.129 0 013.125 3.125 3.129 3.129 0 01-3.125 3.125zM61.5 7.394a4.88 4.88 0 01-4.874 4.856 4.88 4.88 0 01-4.875-4.875A4.88 4.88 0 0156.62 2.5h.01a4.88 4.88 0 014.87 4.856v.038z"/><path d="M25.617 14.686a1.25 1.25 0 00-1.699-.489c-6.117 3.383-10.727 9.174-12.649 15.888a1.25 1.25 0 102.404.688c1.74-6.08 5.915-11.324 11.455-14.388a1.25 1.25 0 00.489-1.699zM29.759 12.617a1.259 1.259 0 00-.884-.367 1.26 1.26 0 00-.884.367 1.26 1.26 0 00-.366.883c0 .329.134.652.366.884.233.232.555.366.884.366.329 0 .651-.133.884-.366a1.26 1.26 0 00.366-.884c0-.329-.134-.651-.366-.883z"/></g><defs><clipPath id="clip0"><path fill="#fff" d="M0 0h64v64H0z"/></clipPath></defs></svg>