<svg fill="none" xmlns="http://www.w3.org/2000/svg" viewBox="0 0 64 64"><path d="M41.235 45.874h-11.18a1.25 1.25 0 000 2.5h11.18a1.25 1.25 0 000-2.5zM30.945 51.741a1.256 1.256 0 00-.884-.366c-.329 0-.651.134-.884.366a1.26 1.26 0 00-.366.884c0 .329.134.651.366.884.233.232.555.366.884.366a1.254 1.254 0 001.251-1.25c0-.329-.133-.651-.367-.884zM41.241 51.375h-5.597a1.25 1.25 0 000 2.5h5.597a1.25 1.25 0 000-2.5zM41.237 34.853H30.058a1.25 1.25 0 000 2.5h11.179a1.25 1.25 0 000-2.5zM41.237 40.354H30.062a1.25 1.25 0 000 2.5h11.175a1.25 1.25 0 000-2.5zM16.25 10.477H8a1.25 1.25 0 000 2.5h8.25a1.25 1.25 0 000-2.5zM16.25 15.978H8.002a1.25 1.25 0 000 2.5h8.248a1.25 1.25 0 000-2.5zM16.25 21.478H8.002a1.25 1.25 0 000 2.5h8.248a1.25 1.25 0 000-2.5zM16.25 26.979H8.002a1.25 1.25 0 000 2.5h8.248a1.25 1.25 0 000-2.5z" fill="#F9DB0D"/><path d="M62.75 27.375H54V23.25a1.25 1.25 0 00-2.5 0v28.625a3.754 3.754 0 003.75 3.75 3.754 3.754 0 003.75-3.75v-22h2.5v22a6.257 6.257 0 01-6.25 6.25 6.257 6.257 0 01-6.25-6.25v-46h2.56v8.563a1.25 1.25 0 002.5 0V4.624c0-.69-.559-1.25-1.25-1.25H1.25c-.69 0-1.25.56-1.25 1.25v47.25c0 4.825 3.925 8.75 8.75 8.75h46.5c4.825 0 8.75-3.925 8.75-8.75v-23.25c0-.69-.56-1.25-1.25-1.25zm-6.25 24.5c0 .69-.56 1.25-1.25 1.25s-1.25-.56-1.25-1.25v-22h2.5v22zm-47.75 6.25a6.257 6.257 0 01-6.25-6.25v-46h44v46c0 2.447 1.01 4.66 2.635 6.25H8.75z" fill="#F9DB0D"/><path d="M53.695 17.741a1.259 1.259 0 00-.884-.366c-.329 0-.651.134-.885.366a1.258 1.258 0 00-.365.884c0 .329.133.651.365.884.234.232.556.366.885.366.329 0 .651-.134.884-.366.232-.233.366-.555.366-.884a1.26 1.26 0 00-.366-.884zM41.946 18.069l-.025-.075c-1.46-4.363-5.586-7.517-10.434-7.517H31.469c-4.84.008-8.958 3.159-10.417 7.517a10.954 10.954 0 00-.565 3.483c0 6.066 4.934 11 11 11 6.065 0 11-4.934 11-11 0-1.19-.19-2.335-.541-3.408zm-9.222-5a8.52 8.52 0 016.307 4.5l-2.803.69-3.504-2.546v-2.645zm-1.25 4.826l3.012 2.189-1.15 3.541h-3.724l-1.15-3.541 3.012-2.19zm-1.25-4.823v2.641l-3.497 2.54-2.784-.685a8.52 8.52 0 016.28-4.496zm-4.721 14.435a8.473 8.473 0 01-2.375-7.565l2.89.712 1.313 4.04-1.828 2.813zm5.984 2.47a8.446 8.446 0 01-3.967-.986l1.862-2.866h4.212l1.862 2.866a8.446 8.446 0 01-3.97.986zm5.985-2.471l-1.846-2.841 1.301-4.004 2.918-.719a8.474 8.474 0 01-2.373 7.563zM22.281 34.853H10.219a3.473 3.473 0 00-3.469 3.47v12.062a3.473 3.473 0 003.469 3.468h12.062a3.473 3.473 0 003.469-3.468V38.322a3.473 3.473 0 00-3.469-3.469zm.969 15.532a.97.97 0 01-.969.968H10.219a.97.97 0 01-.969-.968v-4.782h14v4.782zm0-7.282h-14v-4.78a.97.97 0 01.969-.97h12.062a.97.97 0 01.969.97v4.78z" fill="#F9DB0D"/></svg>