<svg fill="none" xmlns="http://www.w3.org/2000/svg" viewBox="0 0 64 64"><path d="M26.464 26.011a1.264 1.264 0 00-.885-.366c-.329 0-.65.133-.884.366a1.256 1.256 0 000 1.767c.234.233.555.367.884.367.328 0 .651-.134.885-.367.232-.232.365-.554.365-.883 0-.329-.133-.651-.365-.884z" fill="#F9DB0D"/><path d="M25.58 23.125c.69 0 1.25-.56 1.25-1.25V18a6.257 6.257 0 00-6.25-6.25h-3.476A6.284 6.284 0 0020.3 6.281 6.288 6.288 0 0014.02 0a6.288 6.288 0 00-6.282 6.281c0 2.343 1.29 4.39 3.197 5.469H7.246A6.257 6.257 0 00.996 18v17.75c0 .69.56 1.25 1.25 1.25h3.75V57.01a4.629 4.629 0 00-2.5 4.106v1.625c0 .69.56 1.25 1.25 1.25h18.333c.69 0 1.25-.56 1.25-1.25v-1.625a4.629 4.629 0 00-2.5-4.106V37h3.75c.69 0 1.25-.56 1.25-1.25v-4.625a1.25 1.25 0 00-2.5 0V34.5h-2.5V14.464A3.757 3.757 0 0124.33 18v3.875c0 .69.56 1.25 1.25 1.25zM10.237 6.28A3.786 3.786 0 0114.02 2.5a3.786 3.786 0 013.78 3.781 3.786 3.786 0 01-3.78 3.782 3.785 3.785 0 01-3.782-3.782zM8.496 14.25h10.833v16.354H8.496V14.25zm-5 20.25V18c0-1.63 1.045-3.02 2.5-3.536V34.5h-2.5zm9.167 26.992H5.996v-.375c0-1.171.953-2.125 2.125-2.125h4.542v2.5zm0-5H8.496V44.458h4.167v12.034zm1.25-20.211c-.69 0-1.25.56-1.25 1.25v4.427H8.496v-8.854h10.833v8.854h-4.166v-4.427c0-.69-.56-1.25-1.25-1.25zm5.416 8.177v12.034h-4.166V44.458h4.166zm2.5 16.66v.374h-6.666v-2.5h4.541c1.172 0 2.125.954 2.125 2.125zM61.754 0h-28.75c-.69 0-1.25.56-1.25 1.25v5c0 .69.56 1.25 1.25 1.25h7.204a1.25 1.25 0 000-2.5h-5.954V2.5h26.25V5H49.625a1.25 1.25 0 000 2.5h12.129c.69 0 1.25-.56 1.25-1.25v-5c0-.69-.56-1.25-1.25-1.25z" fill="#F9DB0D"/><path d="M45.763 5.366A1.257 1.257 0 0044.879 5c-.329 0-.651.134-.884.366a1.26 1.26 0 00-.366.884c0 .329.134.651.366.884.233.232.555.366.884.366.329 0 .651-.134.884-.366.232-.233.366-.555.366-.884a1.26 1.26 0 00-.366-.884zM44.254 11.3h-11.25c-.69 0-1.25.56-1.25 1.25v5c0 .69.56 1.25 1.25 1.25h11.25c.69 0 1.25-.56 1.25-1.25v-5c0-.69-.56-1.25-1.25-1.25zm-1.25 5h-8.75v-2.5h8.75v2.5zM56.754 22.6h-23.75c-.69 0-1.25.56-1.25 1.25v5c0 .69.56 1.25 1.25 1.25h23.75c.69 0 1.25-.56 1.25-1.25v-5c0-.69-.56-1.25-1.25-1.25zm-1.25 5h-21.25v-2.5h21.25v2.5zM45.504 45.2h-12.5c-.69 0-1.25.56-1.25 1.25v5c0 .69.56 1.25 1.25 1.25h12.5c.69 0 1.25-.56 1.25-1.25v-5c0-.69-.56-1.25-1.25-1.25zm-1.25 5h-10v-2.5h10v2.5zM50.488 33.9H33.004c-.69 0-1.25.56-1.25 1.25v5c0 .69.56 1.25 1.25 1.25h17.484c.69 0 1.25-.56 1.25-1.25v-5c0-.69-.56-1.25-1.25-1.25zm-1.25 5H34.254v-2.5h14.984v2.5zM54.254 56.5h-21.25c-.69 0-1.25.56-1.25 1.25v5c0 .69.56 1.25 1.25 1.25h21.25c.69 0 1.25-.56 1.25-1.25v-5c0-.69-.56-1.25-1.25-1.25zm-1.25 5h-18.75V59h18.75v2.5z" fill="#F9DB0D"/></svg>