<svg fill="none" xmlns="http://www.w3.org/2000/svg" viewBox="0 0 64 64"><path d="M62.75 0H1.25C.56 0 0 .56 0 1.25v61.5C0 63.44.56 64 1.25 64h61.5c.69 0 1.25-.56 1.25-1.25V1.25C64 .56 63.44 0 62.75 0zM28.744 2.64a3.22 3.22 0 002.9 1.826 3.22 3.22 0 002.9-1.827 3.202 3.202 0 012.184 2.375L34.745 6.17a1.25 1.25 0 00-.62 1.08V12h-4.963V7.25a1.25 1.25 0 00-.62-1.08l-1.983-1.156a3.202 3.202 0 012.185-2.375zm5.754 53.333v4.75h-4.963v-4.75a1.25 1.25 0 00-.62-1.08l-1.983-1.155a3.202 3.202 0 012.184-2.375 3.22 3.22 0 002.9 1.826 3.22 3.22 0 002.9-1.826 3.202 3.202 0 012.184 2.375l-1.982 1.156a1.25 1.25 0 00-.62 1.08zM61.5 61.5H48.875v-9.657c0-.69-.56-1.25-1.25-1.25h-6.327a1.25 1.25 0 000 2.5h5.077v8.375h-9.378v-4.777l2.055-1.197a1.25 1.25 0 00.62-1.08 5.697 5.697 0 00-5.69-5.69c-.69 0-1.25.56-1.25 1.25a.717.717 0 01-1.432 0c0-.69-.56-1.25-1.25-1.25a5.697 5.697 0 00-5.69 5.69c0 .445.236.856.62 1.08l2.055 1.197v4.777h-9.41v-8.375h3.496a1.25 1.25 0 000-2.5h-4.746c-.69 0-1.25.56-1.25 1.25V61.5H7.5v-5.337a1.25 1.25 0 00-2.5 0V61.5H2.5V33.266h6.38a5.699 5.699 0 00-4.786 5.618c0 .445.236.856.62 1.08L6.77 41.16v5.282c0 .69.56 1.25 1.25 1.25h7.463c.69 0 1.25-.56 1.25-1.25v-5.282l2.054-1.197a1.25 1.25 0 00.62-1.08 5.7 5.7 0 00-4.786-5.618h14.51a5.699 5.699 0 00-4.786 5.618c0 .445.236.856.62 1.08l2.055 1.197v5.282c0 .69.56 1.25 1.25 1.25h7.463c.69 0 1.25-.56 1.25-1.25v-5.282l2.054-1.197a1.25 1.25 0 00.62-1.08 5.699 5.699 0 00-4.786-5.618H49.4a5.699 5.699 0 00-4.787 5.618c0 .445.236.856.62 1.08l2.055 1.197v5.282c0 .69.56 1.25 1.25 1.25H56c.69 0 1.25-.56 1.25-1.25v-5.282l2.054-1.197a1.25 1.25 0 00.621-1.08 5.699 5.699 0 00-4.787-5.618H61.5V61.5zM11.75 37.66a3.22 3.22 0 002.9-1.827 3.203 3.203 0 012.184 2.375l-1.982 1.156a1.25 1.25 0 00-.62 1.08v4.75H9.269v-4.75a1.25 1.25 0 00-.62-1.08l-1.983-1.156a3.202 3.202 0 012.184-2.375 3.22 3.22 0 002.9 1.826zm-1.55-4.394h3.1a1.25 1.25 0 00-.834 1.177.717.717 0 01-1.432 0 1.25 1.25 0 00-.834-1.177zM32 37.659a3.22 3.22 0 002.9-1.826 3.203 3.203 0 012.184 2.375l-1.982 1.156a1.25 1.25 0 00-.62 1.08v4.75h-4.963v-4.75c0-.445-.237-.857-.62-1.08l-1.983-1.156a3.202 3.202 0 012.184-2.375 3.22 3.22 0 002.9 1.826zm-1.55-4.393h3.1a1.25 1.25 0 00-.834 1.177.717.717 0 01-1.432 0 1.25 1.25 0 00-.834-1.177zm21.819 4.393a3.22 3.22 0 002.9-1.826 3.203 3.203 0 012.184 2.375l-1.982 1.156a1.25 1.25 0 00-.62 1.08v4.75h-4.964v-4.75a1.25 1.25 0 00-.62-1.08l-1.983-1.156a3.203 3.203 0 012.185-2.375 3.22 3.22 0 002.9 1.826zm-1.55-4.393h3.1a1.25 1.25 0 00-.835 1.177.717.717 0 01-1.431 0 1.25 1.25 0 00-.834-1.177zm10.781-2.5h-59V2.5h12.625v9.625c0 .69.56 1.25 1.25 1.25h6.5a1.25 1.25 0 000-2.5h-5.25V2.5h7.343a5.658 5.658 0 00-.98 3.19c0 .445.236.856.62 1.08l2.054 1.198v5.282c0 .69.56 1.25 1.25 1.25h7.463c.69 0 1.25-.56 1.25-1.25V7.968l2.055-1.197a1.25 1.25 0 00.62-1.08c0-1.182-.362-2.28-.981-3.19h8.056v8.374h-4.667a1.25 1.25 0 000 2.5h5.917c.69 0 1.25-.56 1.25-1.25V2.5h7.627v6.085a1.25 1.25 0 002.5 0V2.5H61.5v28.266z" fill="#F9DB0D"/><path d="M23.015 14.161c-.69 0-1.25.56-1.25 1.25a.717.717 0 01-1.432 0c0-.69-.56-1.25-1.25-1.25a5.697 5.697 0 00-5.69 5.69c0 .446.235.857.62 1.08l2.054 1.199v5.281c0 .69.56 1.25 1.25 1.25h7.463c.69 0 1.25-.56 1.25-1.25V22.13l2.055-1.197a1.25 1.25 0 00.62-1.08 5.697 5.697 0 00-5.69-5.69zm1.135 6.17a1.25 1.25 0 00-.62 1.08v4.75h-4.963v-4.75a1.25 1.25 0 00-.62-1.08l-1.983-1.155a3.202 3.202 0 012.184-2.375 3.22 3.22 0 002.9 1.826 3.22 3.22 0 002.9-1.826 3.203 3.203 0 012.185 2.375l-1.983 1.156zM43.264 14.161c-.69 0-1.25.56-1.25 1.25a.717.717 0 01-1.431 0c0-.69-.56-1.25-1.25-1.25a5.697 5.697 0 00-5.69 5.69c0 .446.235.857.62 1.08l2.054 1.199v5.281c0 .69.56 1.25 1.25 1.25h7.463c.69 0 1.25-.56 1.25-1.25V22.13l2.055-1.197a1.25 1.25 0 00.62-1.08 5.697 5.697 0 00-5.69-5.69zm1.136 6.17a1.25 1.25 0 00-.62 1.08v4.75h-4.963v-4.75a1.25 1.25 0 00-.62-1.08l-1.983-1.155a3.202 3.202 0 012.184-2.375 3.22 3.22 0 002.9 1.826 3.22 3.22 0 002.9-1.826 3.203 3.203 0 012.185 2.375L44.4 20.332zM57.752 12.455c-.69 0-1.25.56-1.25 1.25v.018a1.25 1.25 0 002.5 0v-.018c0-.69-.56-1.25-1.25-1.25zM6.25 49.774c-.69 0-1.25.56-1.25 1.25v.019a1.25 1.25 0 002.5 0v-.019c0-.69-.56-1.25-1.25-1.25z" fill="#F9DB0D"/></svg>