<svg fill="none" xmlns="http://www.w3.org/2000/svg" viewBox="0 0 800 335"><path d="M640.5 332.7c-9.1-3-18.3-11.4-23.9-21.8-1.7-2.9-27.8-73.8-58.2-157.4l-55.2-152 21.1-.3c16.4-.2 21.4 0 22 1 .5.7 24.1 65.8 52.6 144.6 28.4 78.8 52.1 143.2 52.7 143.1.5-.2 24.5-65.3 53.3-144.6L757.3 1h21.4c11.7 0 21.3.4 21.3.9 0 2.7-110.7 304.6-113.6 309.8-4.5 8.2-11.8 15.4-19.1 19-4.8 2.3-7.3 2.8-14.3 3-4.9.2-10.2-.3-12.5-1z" fill="#C3A63B"/><path d="M283.2 184.3l.3-145.8 2.2-5.7c5.5-14.6 16.7-24.4 33.4-29.6 4.8-1.4 14.5-1.6 82.7-1.9L479 .9V39h-73.5c-78 0-78.1 0-79.9 4.5-.3.9-.6 24.6-.6 52.6V147h129v37H325v146h-42.1l.3-145.7z" fill="#791D1F"/><path d="M109 333.9c-31.3-3.8-53.3-13.6-72.4-31.9-17.3-16.7-27.8-36.8-33.2-64-1.6-7.6-1.8-20-2.1-122.7L.9 1H43v106.8c0 68 .4 109.8 1 115.2 1.7 13.9 4.8 24.9 9.7 35 8.5 17.6 23.4 29.3 44.8 35.2 7.1 2 10.5 2.2 29.5 2.2 19.3.1 22.4-.2 30-2.2 14.1-3.8 22.4-8.5 31.6-17.6 11-11.1 16.5-21.6 20.7-40.1 2.1-8.8 2.1-11.8 2.4-121.8L213.1 1H255v108c0 67.6-.4 111.7-1 117.8-3.2 29.9-14.5 54.8-33.5 73.7-16.9 17-37.7 27.4-63.5 32-11.3 1.9-37.5 2.8-48 1.4z" fill="#000002"/></svg>