<svg width="71" height="80" fill="none" xmlns="http://www.w3.org/2000/svg"><g clip-path="url(#a)"><path d="M34.687 0C28.946.047 23.52 2.448 18.405 4.88 12.798 7.747 6.605 9.691.255 9.551c-.218 3.796-.315 7.6-.217 11.4.303 12.862 2.83 26.057 9.83 37.02 6.067 9.695 15.43 16.882 25.524 22.017a.85.85 0 0 0 .025.012s.017-.007.025-.012C45.537 74.853 54.9 67.666 60.966 57.971c7-10.963 9.527-24.158 9.83-37.02.098-3.8.001-7.604-.217-11.4-6.35.14-12.543-1.804-18.15-4.67C47.315 2.447 41.89.046 36.147 0c-.185-.002-.373.001-.559.004l-.171.005-.171-.005C35.06.002 34.872 0 34.687 0z" fill="#000"/><path d="M35.417 3.541c-.165 0-.328.001-.493.005-7.378.13-13.783 4.283-20.455 6.916-3.466 1.35-7.112 2.217-10.822 2.522-.575 13.736.973 27.979 7.515 40.256 5.44 9.894 14.28 17.552 24.24 22.715a.765.765 0 0 0 .015.007l.015-.007c9.96-5.163 18.8-12.821 24.24-22.715 6.542-12.277 8.09-26.52 7.515-40.256-3.71-.305-7.356-1.173-10.822-2.522C49.693 7.83 43.288 3.675 35.91 3.546a20.76 20.76 0 0 0-.493-.005z" fill="#fff"/><path d="M35.417 8.056c-.143 0-.285 0-.428.005-7.439.342-13.695 4.899-20.566 7.228-2.084.689-4.199 1.276-6.362 1.65-.164 12.278 1.7 24.967 7.978 35.676 4.643 7.722 11.567 13.786 19.373 18.216a.571.571 0 0 1 .005.003l.005-.003c7.806-4.43 14.73-10.494 19.373-18.216 6.277-10.71 8.142-23.398 7.978-35.675-2.163-.375-4.278-.962-6.362-1.651-6.87-2.329-13.127-6.886-20.566-7.228a12.956 12.956 0 0 0-.428-.005z" fill="#000"/><path d="m35.417 14.483-4.77 14.737H15.12l12.57 9.11-4.81 14.779 12.537-9.152 12.537 9.152-4.81-14.778 12.57-9.11H40.187l-4.77-14.738z" fill="#fff"/></g><defs><clipPath id="a"><path fill="#fff" d="M0 0h70.834v80H0z"/></clipPath></defs></svg>