<svg width="64" height="80" fill="none" xmlns="http://www.w3.org/2000/svg"><g clip-path="url(#a)"><path fill-rule="evenodd" clip-rule="evenodd" d="M49.312 3.486C42.935 25.125 62.95 18.435 62.95 18.435c1.027 26.012-.047 45.41-30.387 60.77C2.391 64.731.747 45.519 1.87 18.435c0 0 20.836 6.511 13.782-14.867 0 0 16.392-6.184 33.66-.082z" fill="#fff" stroke="#000" stroke-width="1.5"/><path fill-rule="evenodd" clip-rule="evenodd" d="M45.628 5.99c-3.87 20.265 14.489 16.276 14.489 16.276 1.531 21.944-1.714 40.308-27.554 53.697C5.993 62.578 3.036 44.103 4.67 22.12c0 0 18.49 3.95 14.813-16.046 0 0 10.442-5.073 26.145-.082z" fill="#000" stroke="#000" stroke-width="1.912"/><path d="M46 16.488 7.304 50.415c1.67 4.522 4.156 8.786 7.742 12.77l45.166-39.419c-.03-.497-.059-.996-.094-1.497 0 0-10.87 2.36-14.12-5.781z" fill="#fff"/><path fill-rule="evenodd" clip-rule="evenodd" d="M22.834 21.563s3.259 5.635.95 7.807c12.356-2.105 16.226.34 16.226.34s2.647-5.16-.475-7.876c-6.194 0-12.9-.271-16.7-.271z" fill="#fff" stroke="#000" stroke-width="1.434"/><path fill-rule="evenodd" clip-rule="evenodd" d="M16.046 47.292s8.133-7.332 3.394-20.502h20.728s3.417 3.191.634 17.515c-.077.4-10.16-4.209-24.756 2.987z" fill="#fff" stroke="#000" stroke-width="1.434"/><path d="M24.907 22.661v.866M27.055 22.661v.866M29.204 22.661v.866M31.352 22.661v.866M33.501 22.661v.866M35.65 22.661v.866M37.798 22.661v.866" stroke="#000" stroke-width="1.204"/><path d="M21.487 28.282v.672M23.636 28.282v.672M25.784 28.282v.672M27.933 28.282v.672M30.081 28.282v.672M32.23 28.282v.672M34.379 28.282v.672M36.527 28.282v.672M38.676 28.282v.672" stroke="#000" stroke-width="1.061"/><path fill-rule="evenodd" clip-rule="evenodd" d="M28.537 29.234s3.462-3.055.203-9.029h17.04s1.901 5.431-1.765 9.844c-1.018-.95-4.073-4.684-15.478-.815z" fill="#fff" stroke="#000" stroke-width="1.434"/><path fill-rule="evenodd" clip-rule="evenodd" d="M26.817 15.362s1.403 2.538.566 4.843c6.585-2.919 11.405.136 11.405.136s.956-3.158.068-4.888c-1.765 0-11.835-.09-12.039-.09zM19.643 50.822s10.59-9.3 2.173-21.18c6.523 0 26.815-.272 26.815-.272s3.259 13.034-6.245 19.552c-1.538 1.054-7.264-4.413-22.743 1.9z" fill="#fff" stroke="#000" stroke-width="1.434"/><path d="M25.301 31.073v1.228M27.45 31.073v1.228M29.598 31.073v1.228M31.747 31.073v1.228M33.896 31.073v1.228M36.044 31.073v1.228M38.193 31.073v1.228M40.341 31.073v1.228M42.49 31.073v1.228M44.638 31.073v1.228M46.787 31.073v1.228" stroke="#000" stroke-width="1.434"/><path d="M30.869 21.258v.866M33.018 21.258v.866M35.166 21.258v.866M37.315 21.258v.866M39.463 21.258v.866M41.612 21.258v.866M43.76 21.258v.866" stroke="#000" stroke-width="1.204"/><path d="M28.47 16.31h-.304v.394h.305v-.395zM30.62 16.31h-.305v.394h.304v-.395zM32.768 16.31h-.304v.394h.304v-.395zM34.916 16.31h-.304v.394h.304v-.395zM37.065 16.31h-.304v.394h.304v-.395z" fill="#000"/><path d="M33.664 34.146c.007-.023 1.3 1.98 1.487 3.41-1.588-.003-3.083-1.407-3.083-1.407v4.086c-.027-.007 1.51-1.39 3.083-1.395-.186 1.431-1.48 3.442-1.487 3.419h4.375c-.58-.95-1.265-2.346-1.508-3.42 1.242.04 2.393.598 3.222 1.32v-4.01s-1.627 1.4-3.214 1.408c.16-1.1.981-2.443 1.5-3.411h-4.375z" fill="#E71E00"/><path d="M40.201 43.861c.115-.512-.025-.87-.435-1.05-.41-.191-.844 0-1.292.577a32.254 32.254 0 0 0-8.382 2.776c-.55.27-.832.73-.819 1.37 0 .69-.41 1.19-1.254 1.51-.653.243-1.164.204-1.548-.115-.142-.115-.32-.154-.55-.14-1.203.114-2.01.242-2.394.421-.064.103-.064.23-.026.359.23.78.666 1.292 1.319 1.56a.55.55 0 0 0 .166.282c-.038-.012-.64-.102-1.779-.256-1.151-.153-2.559.41-4.223 1.715 1.318-.691 3.123-.883 5.388-.589.742.09 1.343.333 1.83.717.243.18.511.371.819.538l-1.088-.27c-2.726-.28-5.362.218-7.909 1.524 2.893-.742 5.196-.934 6.936-.59 1.728.346 2.598.692 2.636 1.05-.448.243-.78.614-1.036 1.126 1.343-.166 2.802-.14 4.402.051 1.33.18 2.636.052 3.902-.37.41.204.922.358 1.485.422a1.17 1.17 0 0 1-.704.294c.384.281.973.473 1.74.575a13.05 13.05 0 0 0 4.032-.23c.102.307.537.358 1.28.166a20.138 20.138 0 0 1 6.398-.434c1.356.128 2.508-.423 3.506-1.613-.55-.333-1.203-.575-1.983-.717a5.91 5.91 0 0 0 3.02-1.394c-.768-.947-2.137-1.267-4.07-.999.614-.345 1.036-.806 1.267-1.407-1.254.039-2.585-.192-3.955-.665-1.381-.474-2.597-.371-3.672.307-1.063.691-1.715.934-1.945.73.038-.141.05-.308.076-.461.27-.628.448-1.23.525-1.805.205-.192.358-.434.473-.742.141-.397.18-.69.09-.882a10.439 10.439 0 0 0-2.226-3.34z" fill="#000"/><path d="M39.907 43.759c.115-.281.039-.487-.23-.64-.41-.23-.82.18-1.229 1.203-.422 1.036-.627 2.38-.601 4.03.012 1.639-.115 2.88-.371 3.711-.27.82-.308 1.203-.141 1.127.18-.077.41-.487.678-1.216.282-.742.5-1.83.653-3.263.205-1.804.614-3.468 1.241-4.952zM39.856 47.265c-.397-.294-.627-.269-.665.051-.051.333-.103.628-.14.883-.052.243.127.487.524.742.396.256.78.55 1.151.896.359.332.576.332.653 0 .051-.32.063-.614 0-.934-.051-.307-.23-.576-.5-.82a13.514 13.514 0 0 0-1.023-.818zM39.485 45.883c-.077.384-.026.653.167.806.614.512 1.19.985 1.714 1.446.32.269.512.256.59-.026.05-.192.088-.41.088-.614.013-.23-.05-.435-.179-.64a12.967 12.967 0 0 0-1.445-2.213c-.205-.244-.398-.205-.564.127a5.68 5.68 0 0 0-.371 1.114zM38.884 49.07c0 .23-.039.511-.103.831-.05.307.077.614.41.896.32.281.717.563 1.164.832.218.127.384.05.5-.218.077-.192.114-.397.089-.614-.013-.256-.192-.538-.512-.845-.332-.32-.665-.601-1.011-.857-.346-.256-.525-.269-.537-.026z" fill="#F1A03E"/><path d="M48.417 53.024c-.679.281-1.344.384-2.022.307-1.063-.153-1.984.153-2.752.934.832-.307 1.728-.37 2.688-.217 1.05.127 1.74-.206 2.086-1.024z" fill="#fff"/><path d="M40.087 51.974c-.282-.396-.576-.678-.922-.857-.333-.192-.55-.128-.64.179a12.31 12.31 0 0 0-.294 1.152c-.102.448.026.73.384.857.32.09.64.141.947.141.307 0 .511-.243.601-.717.064-.332.038-.589-.076-.755z" fill="#F1A03E"/><path d="M42.133 56.505c-.09.37.346.383 1.319.038.972-.333 2.137-.435 3.468-.295-2.828-1.305-4.428-1.215-4.787.257zM41.29 52.73c-.423.025-.82.319-1.23.87.449-.103 1.165-.141 2.176-.128 1.01.025 1.792-.359 2.354-1.152-.665.422-1.765.563-3.3.41zM40.125 56.709a8.2 8.2 0 0 1 1.28-.755c-.602-.23-1.254-.166-1.945.205a7.071 7.071 0 0 1-1.715.627c.256.14.614.243 1.088.294.447.039.882-.077 1.292-.371zM46.447 50.656c-1.651-.307-3.034.077-4.134 1.165 1.203-.449 2.534-.5 3.98-.167 1.433.345 2.777.115 4.018-.704-1.51.013-2.79-.09-3.864-.294zM49.172 56.018c1.293.256 2.24.051 2.854-.602-2.508-.703-3.865-.512-4.057.55a5.407 5.407 0 0 1 1.203.052zM50.49 53.6c.998.115 1.945-.052 2.866-.474-2.047-1.266-3.634-1.075-4.773.563a5.59 5.59 0 0 1 1.907-.09z" fill="#fff"/><path d="M38.193 44.168c-.052-.281-.192-.396-.435-.332a44.201 44.201 0 0 0-7.589 2.636c-.41.192-.602.512-.576.972.013.449-.14.832-.434 1.14a2.91 2.91 0 0 1-1.792.844 1.31 1.31 0 0 1-1.1-.32.57.57 0 0 0-.461-.14 19.94 19.94 0 0 0-1.561.255c-.422.064-.589.23-.487.487.32.742.794 1.075 1.42 1.023.705-.076 2.048-.627 4.032-1.637 2.777-1.177 5.425-2.086 7.972-2.726.295-.064.5-.307.602-.717l.409-1.485zM37.514 49.684c.077-.243.09-.512.038-.807-.05-.243-.23-.332-.537-.256-2.534.576-4.645 1.305-6.347 2.176-1.69.883-2.84 1.37-3.43 1.472-.6.09-.805.243-.64.46.283.333.551.55.807.679.243.115.678.076 1.28-.103.614-.191 1.638-.627 3.097-1.318 1.446-.691 3.16-1.254 5.144-1.702.294-.064.486-.268.588-.601z" fill="#F1A03E"/><path d="M37.476 46.817c-.051-.166-.257-.191-.627-.09-3.263.82-6.143 1.882-8.65 3.161a22.63 22.63 0 0 1-2.547 1.114c-.295.102-.346.293-.167.537.192.256.397.422.614.5.294.101.538.127.717.076.858-.192 1.702-.512 2.56-.934a37.152 37.152 0 0 1 7.408-2.764c.525-.128.78-.448.794-.947 0-.218-.038-.435-.102-.653z" fill="#F1A03E"/><path d="M37.706 54.56a5.963 5.963 0 0 1-2.406.92c.832.372 1.766.36 2.764-.025 1.152-.46 2.278-.704 3.391-.73-1.676-.665-2.93-.716-3.749-.166zM37.373 53.766a12.81 12.81 0 0 1-4.018.14c-1.37-.178-3.097.18-5.182 1.05 1.497-.358 3.07-.41 4.734-.14 2.406.422 3.903.063 4.466-1.05z" fill="#fff"/><path d="M36.682 52.845c.346-.525.538-1.126.614-1.792.026-.294-.077-.41-.332-.371a21.35 21.35 0 0 0-6.334 2.214 8.286 8.286 0 0 1-1.946.742c.5.115 1.127.128 1.882.012a32.453 32.453 0 0 1 4.325-.256c.896.065 1.51-.114 1.791-.55z" fill="#F1A03E"/><path d="M33.919 55.43c-.73.114-1.702.102-2.905-.026a5.972 5.972 0 0 0-3.456.614c1.216-.257 2.585-.205 4.121.14 1.139.257 1.881.013 2.24-.729zM32.514 12.36h-.36l-.57-.57h1.29v-1.559c-.15-.075-.3-.15-.435-.195-.3-.12-.615-.21-.93-.255h-.015c-.03.135-.045.285-.075.42-1.154.135-2.249-.12-3.298-.75 1.005-.045 1.904-.21 2.699-.51v-.974c.66-.3 1.349-.45 2.054-.48l-.24-.18.24-.18h.27l.255.18-.255.18v4.303h1.304l-.57.57h-.344c1.252 1.187 2.54 2.208 3.858 3.043h-.546a25.507 25.507 0 0 1-3.103-2.429c.413.862.915 1.674 1.505 2.429h-.382a13.611 13.611 0 0 1-1.602-2.744v2.744h-.495v-2.744c-.43.976-.96 1.897-1.602 2.744h-.382a13.228 13.228 0 0 0 1.505-2.429 24.937 24.937 0 0 1-3.11 2.429h-.548c1.328-.835 2.616-1.855 3.882-3.043zM11.304 26.245c.28 0 .53.032.778.104a6.89 6.89 0 0 1 2.542.457 4.446 4.446 0 0 0-.642-.786c-.697-.721-1.587-1.082-2.678-1.074-.489 0-.922.072-1.315.217-.48-.217-.873-.305-1.162-.281-.249.016-.377.096-.393.24-.024.201.056.337.24.425.257.097.466.393.626.882v7.674a4.01 4.01 0 0 0 1.299.674v-2.478h.705c.345 0 .674-.04.994-.128.754.857 1.283 1.94 1.596 3.263.28 1.106.754 1.812 1.403 2.117.2.08.45.144.762.168.89-.024 1.114-.521.69-1.492-.033 0-.057.008-.065.025-.353.184-.625.216-.825.112-.28-.129-.514-.545-.706-1.259-.337-1.34-.874-2.502-1.62-3.496l.417-.377c.602-.56.962-1.21 1.098-1.948a4.603 4.603 0 0 0-1.234-.73v.057c0 .649-.25 1.218-.738 1.707-.168.169-.425.321-.762.465-.369.145-.705.225-1.01.225h-.706v-4.683c.201-.064.442-.088.706-.08z" fill="#fff"/><path d="M10.896 26.742v1.323c.368-.08.753-.12 1.17-.12 1.25 0 2.317.369 3.191 1.122l.497.497h.497v-2.333h-.473c-.176.232-.369.305-.585.192-.93-.513-1.972-.777-3.127-.777-.41 0-.794.04-1.17.096zM8.995 27.424c-.32.184-.634.4-.922.65-1.155.977-1.732 2.156-1.732 3.535 0 1.363.578 2.542 1.732 3.544 1.098.946 2.43 1.42 3.993 1.42.633 0 1.243-.08 1.812-.233a5.354 5.354 0 0 1-.28-.835c-.033-.136-.065-.272-.105-.4-.44.12-.922.176-1.427.176-1.266 0-2.317-.37-3.15-1.099-.85-.745-1.276-1.603-1.276-2.574 0-.994.425-1.843 1.275-2.541.024-.032.056-.056.08-.08v-1.563zM10.598 36.789v-.057a6.291 6.291 0 0 1-1.299-.425v.482c-.104.248-.344.369-.69.369v.93h2.68v-.93c-.33 0-.554-.12-.69-.37zM15.257 34.183c-.016.008-.032.024-.048.04.088.265.16.529.233.81.056.192.112.369.168.505.169-.113.329-.233.49-.369l.449-.45-.554-1.379c-.208.314-.45.594-.738.843zM26.237 60.974v.99c.401-.025.726.171.965.572l.478 1.067c.093-.094.187-.188.29-.273.256-.239.529-.46.81-.649l-.067-.145c-.137-.359-.018-.554.367-.572v-.99h-2.843zM38.407 61.965v-.99h-2.85v.99c.367.017.486.212.375.571l-1.843 4.089H35.6l1.843-4.089c.214-.401.538-.597.965-.572z" fill="#fff"/><path d="m37.042 64.217-.785 1.75.341.341 1.63-1.63-.35-.35c-.324.137-.589.12-.777-.043-.017-.025-.033-.042-.06-.068zM36.547 67.153a.658.658 0 0 0-.478-.205h-4.157c-.076.948.726 1.4 2.381 1.383h1.084v2.083c-.469.41-.981.708-1.536.896l-.708 1.587a5.884 5.884 0 0 0 3.277-1.536l.026-.026.136-.111a.76.76 0 0 0 .18-.486v-3.099a.661.661 0 0 0-.205-.486z" fill="#fff"/><path d="m34.874 64.098.572-1.28c-.922-.563-1.972-.853-3.15-.853-1.595 0-2.97.537-4.113 1.604-1.16 1.033-1.74 2.322-1.74 3.883 0 1.511.58 2.808 1.74 3.91a5.845 5.845 0 0 0 3.337 1.544l-.7-1.57c-.623-.197-1.186-.53-1.715-.99-.862-.828-1.289-1.793-1.289-2.894 0-1.126.427-2.082 1.289-2.867a4.555 4.555 0 0 1 3.192-1.246c.965 0 1.818.256 2.577.759z" fill="#fff"/><path d="M29.326 64.823c-.29.265-.529.555-.708.862l3.705 8.202 2.372-5.24h-.401a6.04 6.04 0 0 1-1.084-.069l-.887 1.955-2.698-5.974c-.102.085-.204.17-.299.264z" fill="#fff"/></g><defs><clipPath id="a"><path fill="#fff" transform="translate(.834)" d="M0 0h63.145v80H0z"/></clipPath></defs></svg>