<svg width="82" height="80" fill="none" xmlns="http://www.w3.org/2000/svg"><path d="M38.352.035c-.387.03-1.2.108-1.81.178-.608.066-1.563.197-2.124.294-.56.093-1.443.263-1.953.375-.515.112-1.327.313-1.807.44-.48.129-1.361.395-1.953.589-.592.193-1.404.476-1.806.627a46.11 46.11 0 0 0-1.517.61c-.43.182-1.23.55-1.775.813-.546.263-1.45.735-2.012 1.048-.56.314-1.45.843-1.98 1.18-.53.337-1.342.886-1.807 1.215-.464.332-1.21.897-1.66 1.257a63.5 63.5 0 0 0-1.488 1.238 56.054 56.054 0 0 0-1.652 1.55 51.203 51.203 0 0 0-1.64 1.691 46.792 46.792 0 0 0-1.257 1.454 56.69 56.69 0 0 0-1.21 1.544 47.39 47.39 0 0 0-1.324 1.895 47.69 47.69 0 0 0-1.28 2.07c-.31.541-.8 1.462-1.091 2.038a54.14 54.14 0 0 0-.785 1.629c-.143.32-.418.978-.611 1.458-.19.48-.507 1.33-.697 1.891-.19.561-.472 1.466-.63 2.012a43.54 43.54 0 0 0-.898 3.93c-.08.468-.19 1.133-.236 1.485a54.84 54.84 0 0 0-.174 1.517c-.05.48-.12 1.554-.158 2.39-.05 1.16-.05 1.864 0 3.029.039.831.108 1.907.158 2.386.047.48.128 1.165.174 1.517a40.213 40.213 0 0 0 .619 3.377c.128.576.337 1.415.465 1.864.123.449.36 1.222.526 1.718.162.498.406 1.206.541 1.574a43.571 43.571 0 0 0 1.253 2.97c.213.465.604 1.246.867 1.733.26.488.72 1.304 1.021 1.807.302.503.8 1.296 1.114 1.764.313.464.863 1.237 1.222 1.717.364.48.998 1.28 1.416 1.776a45.119 45.119 0 0 0 1.559 1.748 53.633 53.633 0 0 0 1.625 1.625c.452.425 1.23 1.117 1.725 1.535a47.948 47.948 0 0 0 1.78 1.412c.479.364 1.303.944 1.833 1.296.53.352 1.315.847 1.748 1.106.433.256 1.153.662 1.601.901.45.24 1.265.646 1.807.902.545.259 1.466.661 2.042.893.577.232 1.547.588 2.155.797.61.205 1.528.488 2.038.63.515.144 1.327.353 1.81.461a48.7 48.7 0 0 0 1.687.348c.449.078 1.08.186 1.4.232.321.05.952.128 1.4.178.45.05 1.169.116 1.602.147a58.69 58.69 0 0 0 1.922.093c.635.023 1.757.008 2.534-.027.77-.039 1.795-.108 2.274-.155a55.13 55.13 0 0 0 1.517-.174 44.57 44.57 0 0 0 1.485-.236 45.384 45.384 0 0 0 1.892-.379c.58-.131 1.497-.364 2.042-.518.545-.155 1.447-.441 2.008-.63.56-.19 1.35-.477 1.748-.639.402-.159 1.044-.43 1.431-.596a53.49 53.49 0 0 0 1.95-.932 46.432 46.432 0 0 0 3.965-2.286c.24-.162.789-.545 1.222-.851a47.125 47.125 0 0 0 1.648-1.242c.472-.379 1.102-.9 1.396-1.16.298-.26.894-.805 1.323-1.207.43-.406 1.149-1.13 1.598-1.613a43.265 43.265 0 0 0 2.874-3.42c.34-.456.9-1.249 1.241-1.763.34-.51.832-1.284 1.091-1.718.26-.433.65-1.114.867-1.516.22-.398.587-1.122.82-1.601.228-.48.576-1.242.765-1.69.194-.45.523-1.273.731-1.834.21-.561.5-1.412.65-1.896.151-.48.414-1.423.584-2.096.174-.673.407-1.706.519-2.302.112-.592.255-1.454.32-1.922.067-.464.16-1.238.206-1.718.05-.48.12-1.555.158-2.386.05-1.164.05-1.868 0-3.029a53.8 53.8 0 0 0-.158-2.39c-.047-.48-.151-1.331-.232-1.892-.082-.56-.24-1.481-.352-2.042a47.606 47.606 0 0 0-.38-1.718 43.495 43.495 0 0 0-.936-3.203 48.567 48.567 0 0 0-.672-1.837c-.21-.526-.6-1.443-.87-2.038-.272-.592-.728-1.52-1.022-2.066a49.28 49.28 0 0 0-.967-1.721 43.642 43.642 0 0 0-2.325-3.466c-.383-.51-.99-1.284-1.354-1.718a57.458 57.458 0 0 0-1.54-1.74 46.126 46.126 0 0 0-1.844-1.845 63.336 63.336 0 0 0-1.749-1.548c-.433-.36-1.206-.97-1.72-1.353a47.19 47.19 0 0 0-1.923-1.35c-.546-.356-1.28-.82-1.633-1.03a53.691 53.691 0 0 0-1.57-.877 46.247 46.247 0 0 0-1.807-.906c-.483-.22-1.137-.514-1.458-.653a46.36 46.36 0 0 0-1.311-.522 55.228 55.228 0 0 0-1.807-.627 45.165 45.165 0 0 0-1.953-.588 49.442 49.442 0 0 0-1.806-.441C49.086.77 48.285.612 47.82.53a47.539 47.539 0 0 0-1.78-.263 77.549 77.549 0 0 0-1.6-.178c-.368-.035-1.733-.073-3.033-.085-1.296-.012-2.673.004-3.056.03z" fill="#006CB5"/><path d="M39.37.24c-.21.012-.786.05-1.281.085-.499.035-1.323.116-1.837.178a48.05 48.05 0 0 0-1.954.29c-.56.097-1.423.263-1.922.375a49.52 49.52 0 0 0-1.776.441 47.234 47.234 0 0 0-4.108 1.366 42.347 42.347 0 0 0-4.023 1.857c-.56.301-1.384.765-1.833 1.036-.449.27-1.21.754-1.69 1.075-.484.325-1.25.867-1.706 1.207-.457.34-1.219.944-1.69 1.342a54.211 54.211 0 0 0-1.788 1.586 38.72 38.72 0 0 0-1.818 1.83c-.49.526-1.13 1.25-1.423 1.601-.29.352-.766.94-1.052 1.312a51.31 51.31 0 0 0-1.049 1.427c-.29.414-.754 1.11-1.028 1.543a53.378 53.378 0 0 0-.98 1.629 46.522 46.522 0 0 0-1.906 3.818 46.21 46.21 0 0 0-.727 1.806c-.194.51-.488 1.35-.654 1.865-.166.51-.445 1.481-.615 2.154a50.372 50.372 0 0 0-.518 2.244c-.109.56-.256 1.396-.321 1.864a58.534 58.534 0 0 0-.205 1.629 55.786 55.786 0 0 0-.155 1.864c-.043.673-.058 1.79-.035 2.97.016 1.041.058 2.21.097 2.592.035.387.116 1.134.182 1.664.065.526.185 1.338.263 1.806.077.464.236 1.261.348 1.776.116.51.313 1.326.44 1.806.132.48.407 1.396.616 2.038.209.643.592 1.69.847 2.33.259.641.665 1.585.905 2.096.244.514.65 1.326.905 1.806.255.483.677 1.23.932 1.663.26.43.75 1.203 1.091 1.718.34.51.936 1.35 1.323 1.864.387.51.944 1.219 1.238 1.57.294.353.832.972 1.195 1.37a47.253 47.253 0 0 0 1.555 1.605 51 51 0 0 0 1.594 1.486c.383.336.963.823 1.28 1.083.321.255.94.73 1.373 1.052.43.32 1.246.886 1.807 1.257.56.367 1.384.882 1.833 1.145.449.263 1.354.746 2.012 1.08.657.332 1.47.726 1.806.873.337.151.99.426 1.458.612a41.244 41.244 0 0 0 3.555 1.226c.43.123 1.153.317 1.601.429a43.99 43.99 0 0 0 1.69.38 42.519 42.519 0 0 0 3.64.557c.465.05 1.266.115 1.78.146.51.035 1.613.062 2.449.062a50.859 50.859 0 0 0 2.36-.058c.463-.035 1.133-.089 1.485-.12a65.2 65.2 0 0 0 1.69-.209 44.433 44.433 0 0 0 2.07-.348 55.92 55.92 0 0 0 2.243-.514 47.246 47.246 0 0 0 2.243-.646c.561-.186 1.466-.503 2.008-.712.545-.209 1.4-.561 1.895-.785.5-.22 1.428-.67 2.07-1.002a43.945 43.945 0 0 0 1.98-1.083 54.603 54.603 0 0 0 1.749-1.099 43.393 43.393 0 0 0 3.493-2.6c.383-.32.974-.83 1.31-1.136.337-.306.98-.921 1.428-1.37a49.82 49.82 0 0 0 1.54-1.632c.47-.533.93-1.076 1.377-1.629.36-.448.87-1.117 1.14-1.485.268-.371.755-1.08 1.08-1.574.325-.495.816-1.284 1.087-1.749.27-.464.692-1.222.936-1.686.244-.468.619-1.226.832-1.69.213-.465.58-1.32.812-1.896.232-.576.573-1.493.754-2.038a50.96 50.96 0 0 0 .588-1.892c.14-.499.333-1.23.43-1.632.093-.399.24-1.076.32-1.501a37.087 37.087 0 0 0 .495-3.245c.067-.577.148-1.47.179-1.98a46.29 46.29 0 0 0 .062-2.45c0-.831-.027-1.934-.062-2.444a42.808 42.808 0 0 0-.468-4.081 50.113 50.113 0 0 0-.406-2.096 53.031 53.031 0 0 0-.492-1.981c-.143-.51-.44-1.47-.665-2.128a52.021 52.021 0 0 0-.723-1.98 61.434 61.434 0 0 0-.654-1.543 44.442 44.442 0 0 0-1.775-3.466c-.267-.464-.72-1.21-1.01-1.66a44.44 44.44 0 0 0-1.06-1.574 50.67 50.67 0 0 0-1.106-1.485 64.866 64.866 0 0 0-1.246-1.513 45.687 45.687 0 0 0-1.756-1.883 44.824 44.824 0 0 0-1.946-1.865 50.191 50.191 0 0 0-1.686-1.423 49.7 49.7 0 0 0-1.671-1.261c-.464-.333-1.21-.84-1.66-1.126a45.778 45.778 0 0 0-1.632-.986 90.713 90.713 0 0 0-1.427-.793 43.313 43.313 0 0 0-1.547-.759 55.56 55.56 0 0 0-1.95-.843 52.935 52.935 0 0 0-1.895-.711 47.174 47.174 0 0 0-3.35-.994 42.058 42.058 0 0 0-4.08-.777 54.5 54.5 0 0 0-2.098-.24C43.822.301 42.55.251 41.555.24a63.627 63.627 0 0 0-2.186 0z" fill="#006CB5"/><path d="M39.485 2.982c-.24.012-.92.062-1.512.109a42.84 42.84 0 0 0-1.926.209 41.06 41.06 0 0 0-3.814.731 51.96 51.96 0 0 0-1.722.468 37.854 37.854 0 0 0-3.903 1.404c-.499.209-1.481.673-2.185 1.033-.704.355-1.702.897-2.217 1.206-.51.306-1.272.786-1.69 1.064-.414.283-1.149.805-1.628 1.165-.484.363-1.165.9-1.517 1.195-.352.294-1.048.909-1.543 1.369a37.648 37.648 0 0 0-1.76 1.756 53.838 53.838 0 0 0-1.393 1.567 40.452 40.452 0 0 0-2.534 3.408 48.798 48.798 0 0 0-1.07 1.717 45.707 45.707 0 0 0-1.161 2.186 41.95 41.95 0 0 0-.994 2.123c-.174.418-.468 1.18-.658 1.69-.19.515-.472 1.366-.63 1.896-.159.526-.38 1.327-.495 1.775a48.357 48.357 0 0 0-.407 1.834 42.341 42.341 0 0 0-.564 3.992c-.05.522-.078 1.675-.078 3.203.004 1.845.027 2.614.105 3.38.054.546.166 1.435.247 1.98.082.546.225 1.382.321 1.865.097.48.298 1.346.441 1.923.147.576.457 1.624.693 2.328.232.704.545 1.598.7 1.98.15.388.425 1.041.611 1.459.186.414.518 1.122.743 1.57.224.45.665 1.261.974 1.807.314.545.863 1.435 1.223 1.98.36.546.967 1.412 1.354 1.923.386.514 1.032 1.319 1.439 1.79a44.6 44.6 0 0 0 1.535 1.683 43.597 43.597 0 0 0 1.505 1.474c.387.356 1.002.898 1.37 1.207a38.851 38.851 0 0 0 3.319 2.468c.498.329 1.179.762 1.515.963a40.163 40.163 0 0 0 3.613 1.884 47.14 47.14 0 0 0 2.07.866c.545.21 1.33.492 1.748.627a49.18 49.18 0 0 0 1.776.526c.56.15 1.531.383 2.158.514.623.128 1.594.302 2.155.383.56.082 1.477.194 2.038.248.785.077 1.559.104 3.354.104 1.81 0 2.556-.023 3.35-.104.56-.054 1.465-.166 2.01-.244a44.515 44.515 0 0 0 2.008-.348c.561-.116 1.416-.313 1.896-.437s1.269-.348 1.748-.495c.48-.151 1.335-.441 1.896-.654.56-.209 1.489-.588 2.065-.843.58-.255 1.458-.673 1.953-.932.5-.26 1.18-.627 1.517-.824a52.88 52.88 0 0 0 1.427-.87c.449-.287 1.195-.79 1.66-1.122a43.877 43.877 0 0 0 1.516-1.145c.367-.294.944-.774 1.28-1.064.337-.29.975-.882 1.424-1.315a48.254 48.254 0 0 0 1.481-1.513c.372-.402.936-1.044 1.257-1.427.321-.387.855-1.068 1.192-1.516.336-.449.905-1.261 1.265-1.807.36-.545.866-1.357 1.13-1.806.262-.449.777-1.416 1.14-2.155a41.63 41.63 0 0 0 1.037-2.243c.205-.495.507-1.28.673-1.748.166-.465.406-1.196.538-1.629.127-.433.325-1.13.433-1.543a42.801 42.801 0 0 0 .781-3.903c.066-.449.163-1.223.213-1.722.054-.537.104-1.725.124-2.94.019-1.264.007-2.417-.035-3.028a42.362 42.362 0 0 0-.155-1.78 44.464 44.464 0 0 0-.263-1.864 41.577 41.577 0 0 0-.379-1.98 49.866 49.866 0 0 0-.437-1.776c-.132-.48-.39-1.33-.576-1.891a42.45 42.45 0 0 0-.759-2.07 52.432 52.432 0 0 0-.835-1.922 49.073 49.073 0 0 0-.847-1.69 47.111 47.111 0 0 0-.956-1.691 45.72 45.72 0 0 0-1.06-1.66 46.604 46.604 0 0 0-1.052-1.485 39.356 39.356 0 0 0-1.156-1.454 53.227 53.227 0 0 0-1.455-1.656 39.678 39.678 0 0 0-1.76-1.756 51.882 51.882 0 0 0-1.574-1.396 44.927 44.927 0 0 0-1.512-1.196 59.31 59.31 0 0 0-1.633-1.164 49.992 49.992 0 0 0-1.69-1.064 40.88 40.88 0 0 0-2.216-1.206 39.674 39.674 0 0 0-2.186-1.033 49.372 49.372 0 0 0-1.95-.762 37.964 37.964 0 0 0-1.953-.642 49.349 49.349 0 0 0-1.717-.468A41.296 41.296 0 0 0 46.13 3.3a44.841 44.841 0 0 0-1.865-.21c-.56-.05-1.767-.1-2.68-.112-.913-.011-1.86-.011-2.1.004z" fill="#fff"/><path d="M38.584 5.338c-.352.027-1.01.093-1.458.143a39.044 39.044 0 0 0-3.497.58c-.383.085-1.09.26-1.574.387-.48.132-1.292.372-1.807.542-.51.17-1.377.483-1.922.7-.546.216-1.385.576-1.865.8-.48.225-1.241.604-1.69.848-.449.24-1.141.634-1.543.878-.473.285-.94.58-1.4.886a49.7 49.7 0 0 0-1.486 1.056c-.449.336-1.09.839-1.427 1.121-.337.283-1.006.874-1.486 1.315a35.137 35.137 0 0 0-1.698 1.699 48.962 48.962 0 0 0-1.338 1.508 41.03 41.03 0 0 0-1.122 1.428 44.93 44.93 0 0 0-1.056 1.485c-.248.367-.646.998-.89 1.396-.24.402-.634 1.095-.878 1.544-.243.448-.63 1.222-.858 1.717a48.115 48.115 0 0 0-.759 1.748c-.185.465-.46 1.2-.607 1.633-.147.433-.383 1.18-.522 1.66-.14.479-.348 1.28-.464 1.779a40.38 40.38 0 0 0-.38 1.922c-.096.557-.227 1.49-.293 2.066a44.34 44.34 0 0 0-.182 2.448 26.447 26.447 0 0 0 0 2.824 45.5 45.5 0 0 0 .186 2.448c.062.561.193 1.462.286 2.008.093.545.259 1.385.367 1.864.113.48.325 1.308.476 1.838.151.526.38 1.26.507 1.628.127.368.418 1.141.646 1.721a40.243 40.243 0 0 0 2.108 4.34c.251.43.727 1.203 1.064 1.718.336.51.909 1.323 1.272 1.806.36.48.832 1.084 1.045 1.339.216.255.646.754.963 1.106.313.352.986 1.048 1.493 1.543.51.5 1.203 1.141 1.54 1.432.336.29.808.684 1.048.878.24.193.739.576 1.106.85.367.272 1.09.77 1.601 1.107.515.34 1.288.816 1.722 1.068.433.247 1.323.715 1.98 1.04.658.325 1.536.735 1.954.905.414.174 1.148.457 1.628.63.484.175 1.346.453 1.926.624.577.17 1.455.402 1.95.518.499.116 1.284.275 1.748.356.465.08 1.254.2 1.749.263.499.062 1.272.143 1.721.181.449.043 1.64.074 2.65.074 1.25-.004 2.181-.035 2.912-.1.596-.055 1.447-.151 1.896-.217a44.22 44.22 0 0 0 1.748-.29c.515-.1 1.443-.31 2.07-.468a38.072 38.072 0 0 0 2.243-.662A41.089 41.089 0 0 0 54 72.264a42.599 42.599 0 0 0 1.806-.785 36.294 36.294 0 0 0 1.601-.8 46.582 46.582 0 0 0 1.37-.77c.367-.22 1.063-.658 1.543-.979a37.948 37.948 0 0 0 1.574-1.106c.383-.29.921-.712 1.196-.936.27-.225.808-.689 1.195-1.033a42.566 42.566 0 0 0 1.69-1.633 42.723 42.723 0 0 0 1.694-1.86 52.09 52.09 0 0 0 1.23-1.54 45.62 45.62 0 0 0 1.018-1.427c.267-.402.7-1.083.96-1.516.258-.433.649-1.114.87-1.513.245-.461.481-.928.707-1.4.174-.367.465-1.01.642-1.427.178-.418.46-1.138.631-1.602.17-.464.425-1.226.569-1.69.18-.588.347-1.18.499-1.776.276-1.115.501-2.243.673-3.38.05-.352.131-.994.178-1.428.05-.429.12-1.427.158-2.212.05-1.095.05-1.76 0-2.855a44.024 44.024 0 0 0-.158-2.212 49.846 49.846 0 0 0-.178-1.428 37.007 37.007 0 0 0-.704-3.497A39.834 39.834 0 0 0 73.2 26.74c-.213-.51-.63-1.427-.932-2.038a40.909 40.909 0 0 0-1.049-1.98 43.948 43.948 0 0 0-1.121-1.807 45.094 45.094 0 0 0-1.091-1.57 43.87 43.87 0 0 0-1.076-1.37 48.503 48.503 0 0 0-1.423-1.628 35.525 35.525 0 0 0-1.702-1.71 46.398 46.398 0 0 0-1.737-1.516 40.864 40.864 0 0 0-1.76-1.35 45.106 45.106 0 0 0-1.644-1.114 38.373 38.373 0 0 0-1.473-.89c-.399-.232-1.2-.65-1.776-.936a39.992 39.992 0 0 0-1.98-.905 48.323 48.323 0 0 0-1.822-.704 44.143 44.143 0 0 0-1.896-.608 42.325 42.325 0 0 0-1.938-.498 38.46 38.46 0 0 0-3.697-.631 51.417 51.417 0 0 0-1.606-.15c-.448-.032-1.59-.055-2.533-.051-.948.004-2.008.03-2.36.054z" fill="#006CB5"/><path d="M40.777 7.187c-.004.135-.062 1.717-.123 3.52-.066 1.802-.113 3.28-.105 3.284.008.004 1.11.046 2.452.089 2.159.07 2.441.07 2.488-.008.03-.05.058-.317.058-.6v-.506a87.129 87.129 0 0 1-2.128-.062c-.77-.027-1.404-.058-1.408-.07-.008-.007.031-1.303.085-2.881.054-1.575.085-2.878.07-2.898-.016-.019-.333-.05-.704-.073l-.677-.035-.008.24zm-5.837.131c-.24.066-.592.202-.781.306-.19.1-.491.329-.67.507-.181.174-.41.476-.51.669-.1.193-.224.491-.278.67-.05.177-.109.517-.128.757-.02.24-.008.658.03.932.036.271.105.65.152.844.05.193.193.56.317.816.174.356.321.553.627.843.22.21.545.449.72.538.173.085.475.197.668.247.194.05.515.09.712.09.201 0 .569-.04.816-.093.252-.05.611-.163.8-.256.194-.089.488-.298.658-.46.194-.19.38-.453.511-.72.112-.232.24-.591.282-.8.043-.21.078-.387.074-.395a9.91 9.91 0 0 0-.708-.127c-.534-.085-.708-.097-.739-.043-.02.039-.05.186-.066.333a1.692 1.692 0 0 1-.143.495c-.062.127-.19.305-.282.398-.093.093-.27.22-.398.29-.182.097-.34.124-.7.124-.418 0-.503-.02-.79-.182a1.48 1.48 0 0 1-.51-.464 3.116 3.116 0 0 1-.33-.72 8.42 8.42 0 0 1-.208-.931 4.605 4.605 0 0 1-.043-.906 2.05 2.05 0 0 1 .16-.669c.073-.143.212-.348.312-.456.101-.109.275-.244.387-.302a2.23 2.23 0 0 1 .526-.162c.174-.035.426-.04.553-.016.128.023.337.097.465.163.131.061.31.205.402.313.093.108.197.255.232.325.066.124.07.12.677-.14.336-.143.634-.27.657-.282.024-.015-.027-.162-.112-.333a2.758 2.758 0 0 0-.421-.572 2.76 2.76 0 0 0-.573-.422 4.296 4.296 0 0 0-.642-.243 4.034 4.034 0 0 0-.8-.085 4.36 4.36 0 0 0-.906.12zm13.775.472c-.039.109-.356 1.045-.708 2.085-.352 1.045-.697 2.143-.766 2.449a3.399 3.399 0 0 0-.112.932c.015.255.073.484.178.7.085.174.282.449.437.604.185.185.456.367.804.537.29.14.747.31 1.021.38.372.092.615.12.99.1.384-.02.57-.058.817-.178.174-.085.437-.278.58-.433.143-.155.356-.491.476-.75.116-.256.545-1.42.948-2.592.402-1.168.734-2.147.734-2.17 0-.024-.297-.136-.657-.252-.36-.116-.67-.185-.689-.158-.023.023-.37 1.005-.777 2.174-.41 1.168-.805 2.262-.882 2.433a1.014 1.014 0 0 1-.418.48c-.19.12-.352.177-.51.177-.128 0-.41-.054-.627-.12-.306-.089-.453-.174-.657-.379-.175-.174-.283-.344-.325-.51-.043-.178-.043-.345 0-.596.034-.194.39-1.292.792-2.449.403-1.152.732-2.127.732-2.166.003-.042-.256-.15-.596-.255-.333-.104-.63-.197-.662-.209-.03-.012-.089.062-.123.166zm-24.826 3.942a168.2 168.2 0 0 0-2.244 1.354l-.135.093c2.789 4.688 3.605 6.057 3.605 6.065.004.008 1.04-.604 2.31-1.362a367.955 367.955 0 0 0 2.328-1.396c.02-.012-.1-.236-.26-.5a6.798 6.798 0 0 0-.32-.49c-.016-.008-.778.43-1.69.97-.913.542-1.683.983-1.706.983-.024 0-.24-.333-.476-.743-.24-.406-.449-.78-.468-.827-.02-.066.375-.33 1.478-.99l1.508-.906c-.36-.588-.503-.816-.545-.886-.082-.131-.09-.127-1.57.77-.817.495-1.506.905-1.529.905-.023 0-.166-.205-.313-.452a23.31 23.31 0 0 1-.395-.67l-.123-.22c2.53-1.49 3.264-1.942 3.26-1.965 0-.023-.123-.26-.274-.526-.155-.263-.29-.476-.306-.476-.015.004-.978.573-2.135 1.269zm31.564 1.482a304.24 304.24 0 0 1-1.814 2.997c-.19.298-.34.561-.345.584 0 .024.503.348 1.122.72a92.74 92.74 0 0 0 1.826 1.071c.433.244.84.426 1.075.484.314.073.434.077.7.02.178-.036.438-.128.58-.198a2.49 2.49 0 0 0 .511-.38c.14-.135.314-.382.391-.552.077-.167.159-.422.182-.569.027-.17.008-.371-.05-.58a2.086 2.086 0 0 0-.271-.569l-.178-.247c.43-.05.661-.105.789-.147.128-.047.348-.182.487-.302.143-.124.318-.348.395-.499.073-.15.154-.426.174-.611a1.688 1.688 0 0 0-.054-.654 1.571 1.571 0 0 0-.348-.615 5.473 5.473 0 0 0-.778-.646 36.636 36.636 0 0 0-1.54-.951c-.56-.33-1.098-.65-1.199-.708l-.181-.109" fill="#fff"/><path d="M57.128 13.171a9.95 9.95 0 0 0-.395.712c0 .023.205.158.453.302.251.139.584.34.746.44.159.105.422.236.58.294.252.09.33.097.542.04a.733.733 0 0 0 .406-.287.691.691 0 0 0 .159-.491c0-.244-.027-.31-.201-.484-.112-.112-.58-.425-1.037-.7a20.688 20.688 0 0 0-.843-.495c-.008 0-.194.301-.41.669zm-1.106 1.903c-.05.074-.264.418-.48.766-.213.348-.387.65-.387.67.004.022.325.239.72.487.394.243.858.514 1.036.595.174.082.418.147.538.147.12.004.298-.038.394-.085.097-.046.244-.197.33-.336a.887.887 0 0 0 .154-.48 1.204 1.204 0 0 0-.089-.406 1.391 1.391 0 0 0-.294-.352c-.112-.093-.553-.383-.979-.638-.421-.26-.789-.476-.812-.484-.027-.011-.085.043-.131.116z" fill="#006CB5"/><path fill-rule="evenodd" clip-rule="evenodd" d="M18.775 15.063c.012 0 .22.162.46.363.24.201.438.375.438.395.004.015-.286.375-.638.8-.584.697-.635.782-.561.875.046.054 1.04.9 2.212 1.876 1.168.978 2.128 1.798 2.132 1.822 0 .023-.175.259-.387.522-.213.267-.402.502-.422.53-.02.027-1.052-.793-2.294-1.818-1.241-1.03-2.278-1.869-2.301-1.869-.023.004-.333.356-.685.785-.352.43-.654.782-.669.782-.015 0-.224-.174-.894-.782l1.791-2.142c.987-1.176 1.803-2.14 1.818-2.14zm22.11.475a24.632 24.632 0 0 1 3.06.167c.286.034.84.116 1.223.178.386.065 1.117.216 1.632.34.514.124 1.273.337 1.69.472.418.131 1.11.383 1.544.553.433.17 1.09.453 1.458.627.367.17 1.01.503 1.427.735.418.236 1.099.65 1.517.924.413.27 1.017.696 1.338.94.321.24.82.638 1.106.878.29.24.89.79 2.14 2.011l-.194.035c-.108.02-.72.136-2.526.484l-.495-.449a28.093 28.093 0 0 0-1.11-.92 27.144 27.144 0 0 0-1.28-.925 27.886 27.886 0 0 0-1.196-.758 29.5 29.5 0 0 0-1.311-.7 28.621 28.621 0 0 0-1.776-.785 23.401 23.401 0 0 0-1.864-.643 27.78 27.78 0 0 0-1.574-.398 30.395 30.395 0 0 0-1.517-.267 30.325 30.325 0 0 0-1.775-.186 23.38 23.38 0 0 0-1.953-.03 30.29 30.29 0 0 0-1.602.096c-.336.031-1.021.128-1.516.21a23.183 23.183 0 0 0-3.292.812c-.352.115-.97.344-1.37.506-.402.163-1.082.472-1.516.685a31.8 31.8 0 0 0-1.31.7c-.291.17-.802.491-1.138.716-.337.224-.82.568-1.08.762-.255.193-.653.51-.885.704-.356.293-.426.379-.422.526 0 .131-.035.193-.147.247-.093.046-.139.112-.123.174.011.058.131.445.266.859.136.418.403 1.284.592 1.922a76.528 76.528 0 0 1 1.118 4.197c.116.48.317 1.397.449 2.039.127.642.313 1.609.41 2.154.093.546.236 1.435.313 1.98.077.546.197 1.451.263 2.012.062.561.155 1.49.205 2.066.047.576.112 1.547.143 2.158.035.608.074 1.683.093 2.387.02.704.008 2.08-.027 3.06-.035.974-.1 2.286-.147 2.912-.05.623-.116 1.397-.15 1.718-.036.32-.074.595-.09.61a.029.029 0 0 1-.046 0c-.012-.015-.824-7.012-1.81-15.553-.983-8.537-1.791-15.53-1.8-15.542-.003-.008-.63.058-1.388.147-.758.089-1.392.174-1.416.19-.019.015 1.068 9.6 2.414 21.294a9027.957 9027.957 0 0 0 2.464 21.282c.008.008.646-.054 1.412-.143.77-.085 1.408-.159 1.416-.163.008-.004-.22-2.077-.51-4.607a665.49 665.49 0 0 0-.554-4.761c-.027-.147 0-.178.306-.329.181-.093.622-.294.974-.445.352-.15.956-.39 1.343-.534a24.465 24.465 0 0 1 3.319-.944 29.29 29.29 0 0 1 1.574-.266c.387-.05 1.16-.116 1.721-.151.561-.035 1.373-.05 1.806-.027a51 51 0 0 1 1.486.093c.383.03 1.145.12 1.69.2.546.078 1.513.248 2.155.38.642.127 2.03.456 3.09.727 1.056.27 2.577.661 3.377.87.805.213 1.466.395 1.474.41.008.016-.228.21-.526.426-.294.22-.735.53-.975.692-.24.159-.7.445-1.021.63a26.38 26.38 0 0 1-1.512.794c-.515.243-1.261.568-1.664.72a26.75 26.75 0 0 1-1.396.463 25.32 25.32 0 0 1-1.342.345c-.368.08-1.037.2-1.486.267-.448.065-1.25.147-1.779.181-.526.035-1.338.047-1.806.023-.465-.019-1.2-.073-1.629-.123a26.622 26.622 0 0 1-1.431-.201 22.344 22.344 0 0 1-3.118-.824 26.053 26.053 0 0 1-1.543-.615 25.41 25.41 0 0 1-1.66-.828c-.464-.26-.85-.46-.854-.453-.008.008.038.422.1.92.058.496.108.964.112 1.034 0 .108.124.193.743.502.41.202 1.071.503 1.474.666.398.158 1.01.387 1.353.503.345.116.975.298 1.397.41a24.404 24.404 0 0 0 3.191.592c.611.073 1.28.104 2.422.104 1.13 0 1.818-.03 2.444-.104a24.85 24.85 0 0 0 1.633-.248 34.154 34.154 0 0 0 1.458-.321 22.361 22.361 0 0 0 2.592-.836 28.162 28.162 0 0 0 3.002-1.454c.32-.19.885-.545 1.252-.79.368-.247.933-.653 1.254-.904.32-.248.754-.604 1.338-1.126l1.08.194c.591.108 1.202.208 1.353.228.155.02.279.054.279.081.003.023-.298.337-.67.696-.367.36-1.005.932-1.415 1.273-.406.336-1.064.843-1.459 1.122-.39.278-1.032.7-1.427.936-.39.24-1.08.622-1.528.855-.449.232-1.184.58-1.632.77a28.67 28.67 0 0 1-1.776.672c-.53.178-1.396.426-1.922.557-.53.128-1.277.287-1.663.352-.383.066-1.04.159-1.455.21-.418.05-1.389.108-2.158.127-.851.02-1.752.004-2.302-.035a31.158 31.158 0 0 1-1.717-.19 26.86 26.86 0 0 1-1.663-.293 27.003 27.003 0 0 1-1.733-.434 25.586 25.586 0 0 1-2.956-1.063c-.224-.1-.417-.174-.425-.167-.012.008.062.72.158 1.586.097.867.178 1.625.178 1.69 0 .109-.108.128-1.79.326-.987.116-1.8.208-1.807.204-.004-.003-.17-1.38-.716-6.123l-.158-.116a32.76 32.76 0 0 1-1.822-1.458c-.306-.267-.936-.87-1.4-1.346a28.484 28.484 0 0 1-1.346-1.478 32.179 32.179 0 0 1-1.01-1.311c-.343-.474-.67-.96-.982-1.454a28.83 28.83 0 0 1-.921-1.633c-.248-.48-.611-1.25-.805-1.706a28.56 28.56 0 0 1-.646-1.686 32.107 32.107 0 0 1-.522-1.764 28.047 28.047 0 0 1-.375-1.69 32.724 32.724 0 0 1-.252-1.629c-.08-.661-.104-1.269-.104-2.797 0-1.527.023-2.135.105-2.796.058-.464.17-1.2.25-1.633.082-.433.225-1.098.322-1.485.093-.383.279-1.04.41-1.454.128-.418.395-1.165.588-1.664a28.408 28.408 0 0 1 1.95-3.872c.259-.417.7-1.071.978-1.458a52.11 52.11 0 0 1 1.559-1.98l-.05-.422c-.043-.356-.039-.425.034-.449.05-.011.287-.042.964-.104l.464-.449c.259-.244.665-.619.905-.828.24-.209.7-.584 1.021-.835a28.21 28.21 0 0 1 1.486-1.052 30.23 30.23 0 0 1 1.659-1.021c.418-.232 1.137-.6 1.601-.813a28.59 28.59 0 0 1 1.633-.684 29.51 29.51 0 0 1 1.485-.507c.387-.116.952-.27 1.253-.348a26.861 26.861 0 0 1 2.8-.522c.4-.055 1.03-.12 1.397-.144.368-.027 1.076-.05 1.575-.054zm23.488.592c.02.004.781.836 1.69 1.845.913 1.014 1.698 1.884 1.745 1.942.081.093.054.131-.321.476-.225.205-.434.371-.465.371-.034 0-.622-.627-1.31-1.392-.987-1.091-1.273-1.378-1.343-1.335-.046.027-.313.27-1.099 1.014l2.383 2.622-.305.279c-.17.154-.372.328-.6.499l-1.017-1.138a80.515 80.515 0 0 1-1.327-1.504l-.708.642c-.39.352-.708.654-.708.669 0 .015.542.634 1.203 1.37.662.738 1.246 1.384 1.3 1.442.085.097.081.116-.081.283-.097.096-.302.282-.731.634l-1.776-1.98c-.978-1.091-1.771-2.004-1.764-2.031.008-.031 1.184-1.103 2.607-2.387 1.428-1.284 2.611-2.329 2.627-2.32zm-22.76 3.338a25.23 25.23 0 0 1 1.78.113c.398.046.962.123 1.252.174.287.05.89.178 1.339.29.448.108 1.156.313 1.574.452.418.143.979.345 1.253.453a24.782 24.782 0 0 1 2.797 1.392c.337.202.847.53 1.137.731.287.201.774.553 1.076.79.48.367.537.429.437.471-.062.024-.55.136-1.076.248-.53.112-1.292.26-1.69.325a25.26 25.26 0 0 1-1.516.205c-.434.046-1.238.085-1.791.085-.573 0-1.304-.039-1.69-.089a15.798 15.798 0 0 1-1.327-.24 15.497 15.497 0 0 1-.96-.263 7.939 7.939 0 0 0-1.052-.228 22.35 22.35 0 0 1-1.485-.294c-.414-.1-1.532-.41-2.476-.696a77.325 77.325 0 0 0-2.533-.716 24.623 24.623 0 0 0-1.575-.336c-.623-.105-.998-.128-2.1-.132-.735-.004-1.536.015-1.776.043-.39.042-.429.038-.348-.04.047-.05.48-.29.96-.533a24.69 24.69 0 0 1 1.748-.781c.48-.19 1.176-.433 1.543-.546a28.134 28.134 0 0 1 1.459-.383 25.468 25.468 0 0 1 1.632-.297c.464-.07 1.184-.147 1.601-.175.418-.027 1.23-.038 1.807-.023zm-26.98 2.31c.317.011.49.058.785.205.209.1.491.297.63.433.136.135.29.34.34.452.055.113.124.34.16.511.054.244.046.398-.024.743-.046.24-.073.433-.058.437.02 0 .213-.078.437-.17.256-.105.608-.194.932-.232.29-.032.971-.078 2.507-.144l-.155.26c-.085.139-.282.48-.72 1.245l-1.194.093c-.654.05-1.323.112-1.486.135-.158.024-.41.078-.553.12a1.04 1.04 0 0 0-.43.275 2.752 2.752 0 0 0-.305.472c-.077.15-.131.282-.124.294.008.011.565.328 1.238.708.673.375 1.238.696 1.253.711.016.016-.116.298-.29.635-.178.332-.34.607-.363.607-.027 0-.697-.36-1.49-.797-1.55-.851-3.096-1.71-4.637-2.576-.027-.02.313-.704.75-1.52.44-.816.909-1.644 1.04-1.838.132-.19.356-.46.503-.6a2.1 2.1 0 0 1 .553-.363c.213-.085.399-.108.7-.096z" fill="#fff"/><path d="M14.049 23.383c-.124.073-.34.398-.728 1.083-.305.538-.549.994-.545 1.013.004.024.344.229.754.457.743.41.755.418.84.298.046-.066.267-.438.483-.824.217-.391.433-.843.48-1.014.046-.166.07-.363.054-.437a1.652 1.652 0 0 0-.104-.267c-.035-.077-.175-.2-.302-.274a.988.988 0 0 0-.495-.14.947.947 0 0 0-.438.105z" fill="#006CB5"/><path d="M58.9 24.195a61.693 61.693 0 0 0-.31 1.381l-.132.642c.639.859.995 1.37 1.203 1.69.213.318.534.844.716 1.165.186.32.433.777.557 1.017.12.24.38.82.58 1.284.198.465.488 1.223.642 1.687.155.468.36 1.16.457 1.547.1.383.243 1.052.325 1.486.077.429.19 1.19.243 1.686.062.588.097 1.392.101 2.302 0 .77-.03 1.701-.07 2.069-.038.367-.108.944-.158 1.28a25.973 25.973 0 0 1-.727 3.203 25.787 25.787 0 0 1-.596 1.69c-.23.572-.48 1.136-.747 1.69l-.386.786c.174.812.313 1.536.421 2.128.112.591.21 1.087.217 1.094.011.008.178-.228.371-.526.197-.298.495-.773.665-1.064.167-.29.511-.932.759-1.427.247-.495.622-1.334.831-1.864.213-.53.515-1.393.673-1.923.159-.53.372-1.327.468-1.775.097-.449.217-1.064.267-1.37.05-.305.128-.909.178-1.342.05-.43.105-1.323.124-1.98a24.2 24.2 0 0 0-.031-2.155 39.421 39.421 0 0 0-.155-1.632 30.118 30.118 0 0 0-.232-1.455 30.238 30.238 0 0 0-.348-1.558 31 31 0 0 0-.383-1.339c-.1-.313-.352-1.002-.56-1.532a28.536 28.536 0 0 0-.817-1.833 39.865 39.865 0 0 0-.704-1.338 27.29 27.29 0 0 0-.862-1.37 28.022 28.022 0 0 0-1.084-1.524c-.267-.34-.673-.831-.9-1.09l-.419-.469-.178.74zm-1.289-.008c-.24.047-1.435.306-2.653.577-1.219.267-2.569.553-3.002.63-.433.082-1.153.194-1.601.248-.573.073-1.215.104-2.155.104-.994 0-1.516-.023-2.011-.1a14.635 14.635 0 0 1-2.275-.534c-.24-.081-.506-.147-.595-.147h-.163c0 5.125.02 6.7.047 6.804l.042.19 13.93-.004c.115-1.466.2-2.298.262-2.797.062-.495.182-1.308.263-1.803.085-.499.256-1.404.387-2.011.128-.607.244-1.141.26-1.18.01-.046-.035-.07-.14-.066a4.93 4.93 0 0 0-.596.09zm-22.814.376a5.59 5.59 0 0 0-.816.174c-.224.07-.569.205-.758.301a6.594 6.594 0 0 0-.611.352 6.602 6.602 0 0 0-1.799 2.023c-.097.174-.26.515-.36.755-.1.243-.247.7-.328 1.02-.117.461-.155.782-.182 1.544-.024.77-.008 1.08.073 1.544.058.32.174.804.263 1.079.09.27.244.665.348.874.105.205.306.553.445.77a6.521 6.521 0 0 0 1.45 1.532c.194.139.546.344.786.46.24.112.65.26.905.329.337.085.646.12 1.106.12.45 0 .774-.035 1.08-.112a6.98 6.98 0 0 0 .816-.287 5.6 5.6 0 0 0 .727-.406c.193-.128.503-.375.692-.55.19-.173.5-.521.693-.78.193-.256.491-.755.661-1.107a7.72 7.72 0 0 0 .5-1.338c.173-.658.181-.766.189-1.78.004-.835-.02-1.187-.1-1.57a9.827 9.827 0 0 0-.256-.932 8.75 8.75 0 0 0-.449-1.014 7.062 7.062 0 0 0-.654-1.017 6.574 6.574 0 0 0-.7-.743 6.907 6.907 0 0 0-.723-.541 5.03 5.03 0 0 0-.816-.41 5.635 5.635 0 0 0-.755-.229c-.177-.03-.48-.07-.673-.085a4.596 4.596 0 0 0-.754.024zm34.933 2.011-3.175 1.222c-.96.372-1.78.693-1.815.716-.046.023.174.642.685 1.93.414 1.04.843 2.031.955 2.197.12.182.333.391.511.507.166.112.437.232.596.27.178.043.452.059.7.036.247-.024.522-.093.7-.178a1.88 1.88 0 0 0 .48-.352c.104-.116.247-.321.313-.457a1.99 1.99 0 0 0 .162-.584c.02-.209.062-.332.109-.332.038 0 .085.027.1.058.016.03.14.116.279.185.193.1.348.128.712.132.39 0 .514-.023.758-.151.162-.081.379-.252.483-.375.105-.128.248-.349.317-.492.1-.2.128-.36.124-.7 0-.31-.046-.56-.155-.87a78.304 78.304 0 0 0-.7-1.864c-.325-.852-.584-1.432-.63-1.44-.043-.003-.724.236-1.509.542z" fill="#fff"/><path d="M22.462 27.8c-.271.41-.62.956-.766 1.215-.147.255-.491.924-.762 1.485a24.77 24.77 0 0 0-.785 1.807 24.768 24.768 0 0 0-.507 1.512 36.16 36.16 0 0 0-.38 1.485 23.71 23.71 0 0 0-.282 1.575 28.01 28.01 0 0 0-.185 1.69 21.04 21.04 0 0 0-.035 2.097c.02.673.073 1.562.124 1.98.05.418.143 1.06.209 1.427.065.368.212 1.037.325 1.486.112.449.336 1.207.498 1.69.163.48.414 1.149.558 1.485.143.337.452.99.688 1.455.236.464.604 1.133.816 1.485.213.352.573.905.8 1.223.23.32.558.77.732.99.178.224.584.708.909 1.075.321.364.901.963 1.284 1.327.67.634.7.657.716.499.008-.089-.043-.689-.116-1.33l-.132-1.169a22.044 22.044 0 0 1-1.191-1.361c-.244-.306-.619-.801-.832-1.107a25.79 25.79 0 0 1-.8-1.253 20.622 20.622 0 0 1-.759-1.396 21.475 21.475 0 0 1-1.08-2.623 27.788 27.788 0 0 1-.413-1.427 26.636 26.636 0 0 1-.344-1.66 25.885 25.885 0 0 1-.201-1.543 26.493 26.493 0 0 1-.062-1.895c0-.674.039-1.59.089-2.039.046-.449.14-1.118.205-1.485.066-.368.186-.944.267-1.28.085-.337.236-.89.34-1.227.105-.336.29-.87.41-1.191.12-.321.372-.913.553-1.312.186-.402.476-.982.65-1.295l.314-.565c-.213-1.923-.294-2.503-.318-2.53-.019-.023-.263.29-.537.7zm10.645-.596c-.194.043-.457.12-.584.175-.128.05-.24.092-.248.092-.008 0-.011-.042-.011-.092.003-.074-.043-.085-.279-.05-.15.023-.282.042-.286.046-.004.004.212 1.907.48 4.232l.487 4.239c0 .008.1.012.22.012s.248-.02.283-.043c.05-.031.035-.298-.043-.975-.085-.743-.093-.94-.035-.978.039-.024.321-.124.627-.22.364-.117.731-.19 1.08-.214.29-.019.73-.003.99.035.255.035.99.194 1.628.352.642.155 1.35.302 1.574.325l.41.039a19.545 19.545 0 0 0-.379-2.108c-.158-.689-.317-1.551-.356-1.923-.05-.51-.05-.828 0-1.338.039-.368.105-.828.147-1.021.047-.19.07-.36.054-.376-.015-.019-.243.016-.506.074-.263.058-.75.15-1.087.201-.58.089-.642.089-1.138-.012-.29-.058-.839-.193-1.222-.301-.387-.105-.87-.205-1.079-.22a2.66 2.66 0 0 0-.727.05z" fill="#006CB5"/><path d="M38 27.676c-.352.074-.824.155-1.048.175a2.317 2.317 0 0 1-.801-.055 9.282 9.282 0 0 0-.422-.093c-.019 0-.03.314-.03.7v.697h2.854c.004-.43.05-.782.105-1.06.061-.31.077-.51.042-.507-.03.004-.348.066-.7.143zm-4.139 0a1.43 1.43 0 0 0-.398.244 1.527 1.527 0 0 0-.275.395c-.07.147-.108.363-.108.584 0 .228.038.44.12.61.061.144.162.31.216.372.054.058.198.155.317.217.12.062.294.108.391.108.097 0 .263-.035.364-.077.104-.043.29-.194.41-.333.139-.166.24-.363.282-.55.039-.158.05-.401.031-.537a1.74 1.74 0 0 0-.147-.468c-.058-.12-.19-.29-.29-.379a1.233 1.233 0 0 0-.402-.216 1.648 1.648 0 0 0-.248-.055c-.015 0-.131.039-.263.085zm-1.543.113c0 .034.131 1.241.297 2.68.163 1.443.31 2.661.33 2.712.019.046.057-.058.088-.236.027-.174.039-.727.023-1.223a18.794 18.794 0 0 0-.123-1.543 18.141 18.141 0 0 0-.302-1.485c-.112-.464-.228-.87-.26-.905-.038-.04-.053-.04-.053 0z" fill="#fff"/><path d="M70.024 28.001a9.817 9.817 0 0 1-.715.26c-.055.015-.101.05-.101.085 0 .03.155.456.348.944.217.556.422.974.538 1.114.166.193.232.228.483.25.225.02.333 0 .48-.092.104-.066.228-.182.275-.251a.936.936 0 0 0 .12-.337c.027-.159-.047-.414-.34-1.191-.206-.546-.4-.998-.426-1.006-.027-.008-.325.093-.662.224z" fill="#006CB5"/><path d="M58.08 28.473c-.005.027-.055.484-.117 1.021a45.855 45.855 0 0 0-.174 1.834c-.035.476-.062 1.628-.062 2.564 0 .937.028 2.07.058 2.519.035.448.101 1.183.151 1.632.047.449.155 1.25.236 1.776.082.53.248 1.473.372 2.1a85 85 0 0 0 .545 2.503c.178.754.456 1.907.619 2.564.162.658.306 1.207.32 1.223.016.015.082-.101.148-.264.07-.158.24-.618.387-1.017a22.715 22.715 0 0 0 .828-3.087c.065-.336.162-.994.22-1.458.074-.607.104-1.257.1-2.329 0-1.063-.026-1.72-.1-2.301a33.14 33.14 0 0 0-.302-1.806 23.839 23.839 0 0 0-.44-1.776 22.732 22.732 0 0 0-.562-1.605 23.258 23.258 0 0 0-.7-1.57 28.943 28.943 0 0 0-.808-1.486 13.32 13.32 0 0 0-.577-.905c-.077-.097-.143-.155-.143-.132z" fill="#fff"/><path d="M67.2 29.084c-.553.21-.862.356-.858.407.004.042.174.49.375.994.197.503.414.994.48 1.09.061.093.208.233.32.306a.851.851 0 0 0 .38.136c.096 0 .29-.062.437-.132a1.27 1.27 0 0 0 .398-.337c.116-.174.132-.25.105-.526-.016-.174-.147-.645-.287-1.048-.143-.398-.309-.835-.367-.97l-.112-.244" fill="#006CB5"/><path d="m35.706 29.792.023.693c.902.108 1.555.158 2.031.178l.863.042a6.667 6.667 0 0 1-.085-1.005l-.012-.596-2.84-.004" fill="#ED3237"/><path d="M11.078 29.777c-.163.042-.437.15-.611.236-.194.093-.488.32-.731.568-.279.283-.476.55-.627.851-.128.26-.263.658-.333.99a5.801 5.801 0 0 0-.116.902c0 .193.039.507.09.7.05.194.185.518.301.727.116.21.39.557.607.774.279.275.526.453.82.592.236.108.608.251.832.317.224.062.58.147.789.186.22.042.596.058.901.042.333-.02.642-.077.844-.155.178-.07.46-.216.626-.328.17-.113.418-.318.557-.46.136-.14.345-.422.464-.627.124-.201.29-.58.372-.836.081-.255.162-.677.181-.932.02-.279.004-.619-.038-.843a4.069 4.069 0 0 0-.27-.801 2.88 2.88 0 0 0-.535-.762 4.472 4.472 0 0 0-.742-.58 5.072 5.072 0 0 0-.79-.364 9.22 9.22 0 0 0-.758-.209 5.554 5.554 0 0 0-.959-.073c-.321 0-.716.038-.874.085zm23.282.669a5.564 5.564 0 0 0-.832.17l-.394.116c.023.894.042 1.172.058 1.188.015.02.174.004.352-.035.19-.046.716-.074 1.311-.07.62 0 1.254.039 1.687.105.386.054 1.075.12 1.532.143.541.023.831.02.827-.02a3.12 3.12 0 0 0-.081-.378 12.792 12.792 0 0 1-.147-.643l-.062-.317c-1.377-.066-2.077-.12-2.444-.17a30.635 30.635 0 0 0-1.022-.112 5.013 5.013 0 0 0-.785.023z" fill="#fff"/><path d="M11.426 31.139c-.128.027-.337.1-.464.162-.128.066-.337.22-.46.344a2.357 2.357 0 0 0-.38.546c-.112.236-.154.437-.174.785-.015.367.004.522.09.727.061.143.227.39.37.545.144.155.368.34.496.418.127.074.48.22.785.325.472.163.634.19 1.106.19.449 0 .608-.023.832-.128.15-.07.402-.24.553-.38.162-.15.333-.382.418-.568.077-.178.15-.475.166-.692.02-.26 0-.472-.066-.67a2.354 2.354 0 0 0-.267-.54c-.1-.136-.34-.353-.541-.48a3.988 3.988 0 0 0-.8-.376 6.855 6.855 0 0 0-.79-.205 3.014 3.014 0 0 0-.495-.054 3.709 3.709 0 0 0-.379.05z" fill="#006CB5"/><path d="M33.981 31.815c-.097.016-.306.054-.468.085l-.29.059c-.1 1.33-.128 1.725-.124 1.732.004.012.201-.046.445-.127.24-.078.607-.174.816-.205a5.51 5.51 0 0 1 .754-.062c.21-.004.615.039.906.089.286.05.932.193 1.427.317.495.128 1.075.255 1.28.29.209.031.414.058.453.058.042 0 .073-.073.073-.174 0-.097-.054-.44-.12-.77a17.918 17.918 0 0 0-.174-.8l-.05-.205c-1.338-.066-2-.128-2.336-.174-.337-.05-1.018-.101-1.517-.113a13.108 13.108 0 0 0-1.075 0zm9.233 3.605v3.466a142.717 142.717 0 0 0 3.18.38c.735.08 2.062.212 2.94.29.881.08 2.22.185 2.974.236.75.05 2.22.108 3.261.123 1.044.016 1.926.008 1.961-.02.047-.034.035-.254-.042-.804-.059-.414-.151-1.23-.21-1.806-.08-.84-.096-1.47-.084-3.187l.019-2.143H43.214" fill="#ED3237"/><path d="M67.158 35.2c.008.38.027.716.035.746.011.032.375.175.808.322l.79.263c.053 1.489.077 2.127.084 2.382l.012.46-1.516.658c0 1.138.015 1.486.03 1.505.016.02 1.59-.65 3.497-1.485 1.907-.84 3.466-1.528 3.47-1.532.004-.004-.011-.348-.027-.762l-.035-.75a1327.71 1327.71 0 0 0-7.051-2.465c-.113-.027-.116-.004-.097.658z" fill="#fff"/><path d="M70.055 37.873c.02.51.039.932.046.94.004.008.519-.19 1.145-.441.627-.248 1.188-.48 1.254-.515.062-.03.089-.073.058-.089-.031-.019-.569-.193-1.196-.394-.622-.201-1.183-.375-1.237-.395-.097-.03-.1.031-.07.894z" fill="#006CB5"/><path d="M37.184 38.604a30.26 30.26 0 0 0-1.253.14c-.368.05-1.114.181-1.66.29-.545.111-1.435.332-1.98.49-.546.16-1.176.356-1.4.441-.225.082-.484.182-.577.221l-.17.07c.062.723.116 1.458.162 2.1.047.638.105 1.787.132 2.55.027.881.066 1.372.104 1.36.031-.015.372-.096.758-.181.383-.085 1.064-.22 1.513-.294a35.555 35.555 0 0 1 1.605-.228c.43-.05 1.269-.12 1.864-.155.67-.043 1.749-.058 2.855-.035.979.02 2.263.074 2.855.124.592.05 1.458.131 1.922.182.465.046 2.132.243 3.702.433 1.57.19 3.234.387 3.702.437.464.05 1.303.132 1.864.178.627.058 1.95.1 3.45.116 1.602.015 2.434.008 2.434-.03 0-.036-.1-.473-.228-.98a77.858 77.858 0 0 1-.492-2.112 73.477 73.477 0 0 1-.468-2.297c-.112-.611-.216-1.2-.236-1.312l-.03-.205c-2.956-.007-4.399-.054-5.246-.112-.82-.054-2.313-.174-3.322-.267-1.01-.092-2.546-.251-3.408-.348-.867-.1-2.112-.255-2.77-.348a44.838 44.838 0 0 0-1.938-.232 27.49 27.49 0 0 0-1.953-.054c-.662.004-1.47.03-1.791.058zm-27.549.228c-.186.031-.472.12-.642.197a2.297 2.297 0 0 0-.573.422c-.158.17-.317.414-.39.615-.1.26-.128.464-.128.89 0 .305.043 1.191.093 1.965.05.777.097 1.42.1 1.43.004.009 1.571-.092 3.478-.22 1.907-.131 3.493-.243 3.524-.255.039-.015.05-.27.03-.692-.015-.372-.042-.685-.057-.7-.016-.02-.476.003-1.021.05a33.95 33.95 0 0 1-1.327.081h-.333c0-.406-.039-.909-.089-1.38-.077-.759-.112-.91-.286-1.27a2.097 2.097 0 0 0-.449-.634 2.91 2.91 0 0 0-.545-.364 2.097 2.097 0 0 0-.67-.162 3.95 3.95 0 0 0-.715.027z" fill="#fff"/><path d="M9.592 40.399a.965.965 0 0 0-.305.274 1.369 1.369 0 0 0-.135.43c-.024.143-.02.603.003 1.017l.04.758c.757-.066 1.206-.108 1.484-.131l.503-.043c-.054-1.083-.108-1.528-.154-1.69a1.255 1.255 0 0 0-.256-.449 1.204 1.204 0 0 0-.32-.217 1.16 1.16 0 0 0-.859.05z" fill="#006CB5"/><path d="M67.374 42.457c-.019.104-.065.417-.104.696-.042.282-.062.51-.046.51.019 0 .7.109 1.516.24.816.132 1.49.244 1.493.255.004.008-.081.604-.19 1.32a60.068 60.068 0 0 0-.193 1.346c-.004.027-.073.046-.162.042-.09 0-.778-.1-1.528-.224a46.696 46.696 0 0 0-1.381-.22c-.008.007-.066.324-.128.707-.066.387-.116.704-.108.712.008.008.932.155 2.054.333 1.122.178 2.642.413 3.377.53a36.49 36.49 0 0 0 1.458.205c.104 0 .128-.074.22-.685.062-.375.101-.689.09-.692a48.007 48.007 0 0 0-1.358-.225c-.74-.12-1.346-.22-1.354-.224-.008-.008.081-.611.193-1.35.116-.735.22-1.354.236-1.37.016-.015.584.059 1.261.163.681.104 1.296.19 1.366.19.073 0 .131-.024.131-.047.004-.023.047-.329.105-.677.065-.402.08-.638.042-.65-.03-.011-1.578-.259-3.439-.549-1.856-.29-3.411-.526-3.45-.526-.039 0-.085.085-.1.19z" fill="#fff"/><path d="m36.457 45.389-1.08.085c-.448.035-1.272.127-1.833.209a30.284 30.284 0 0 0-2.859.545l-.2.054c-.063 3.006-.125 4.418-.175 5.071a82.76 82.76 0 0 1-.209 2.333 55.5 55.5 0 0 1-.143 1.323c-.015.104-.008.19.016.193.023 0 .294-.108.595-.244.306-.131.936-.383 1.4-.553.465-.174 1.2-.418 1.633-.541a30.365 30.365 0 0 1 1.454-.376c.372-.08.998-.2 1.4-.267a44.503 44.503 0 0 1 1.397-.189c.371-.039 1.38-.07 2.243-.07.867 0 1.904.031 2.306.074.398.039 1.106.124 1.57.19.465.061 1.435.232 2.159.379.72.143 2.174.483 3.233.754 1.056.267 2.58.661 3.381.87.8.209 1.98.495 2.623.638.638.144 1.624.337 2.185.434.561.096 1.346.212 1.749.263.398.046.944.108 1.21.135l.48.043a94.727 94.727 0 0 0-.205-1.629 47.32 47.32 0 0 0-.352-2.243 68.007 68.007 0 0 0-.495-2.418c-.159-.704-.414-1.795-.569-2.418l-.278-1.137c-3.783-.058-5.234-.112-5.884-.166-.607-.054-1.59-.151-2.185-.217-.592-.066-2.244-.259-3.67-.433a256.038 256.038 0 0 0-3.44-.402c-.464-.05-1.33-.132-1.922-.182-.63-.054-1.95-.1-3.176-.112-1.153-.008-2.216-.008-2.36.004z" fill="#ED3237"/><path d="M13.437 45.524a3.427 3.427 0 0 0-.437.193 2.626 2.626 0 0 0-.522.376 2.285 2.285 0 0 0-.375.541c-.151.321-.151.333-.151 1.865 0 1.102-.023 1.59-.073 1.705a.613.613 0 0 1-.263.252.539.539 0 0 1-.322.058 1.045 1.045 0 0 1-.313-.194c-.104-.089-.26-.317-.348-.51a2.46 2.46 0 0 1-.201-.638 1.363 1.363 0 0 1 .023-.495c.035-.113.15-.283.26-.38.107-.096.243-.2.297-.235.085-.05.074-.117-.147-.697l-.248-.661a.938.938 0 0 0-.24.054c-.15.046-.36.197-.587.425-.256.256-.39.45-.48.693-.093.24-.128.464-.128.8 0 .256.043.643.093.86.054.216.21.626.348.916.151.317.352.63.519.8.147.151.375.337.514.407.21.112.337.131.828.131.522 0 .615-.015.874-.154.163-.086.375-.24.48-.349.1-.108.255-.352.344-.545.104-.228.17-.495.194-.785.019-.24.015-.855-.008-1.37-.031-.688-.024-1.001.03-1.195.055-.19.128-.298.275-.394a.853.853 0 0 1 .391-.132c.104.004.275.039.38.081.103.047.258.159.343.248.09.093.225.313.31.491.081.174.166.464.186.639.023.197.007.41-.04.553a1.796 1.796 0 0 1-.224.437 1.817 1.817 0 0 1-.394.348l-.244.147c.406.948.534 1.238.55 1.253.015.016.177-.05.355-.147.178-.093.445-.29.596-.437.147-.143.34-.406.426-.58a2.96 2.96 0 0 0 .224-.7 2.624 2.624 0 0 0 0-.816 5.57 5.57 0 0 0-.201-.844 6.075 6.075 0 0 0-.333-.781 3.85 3.85 0 0 0-.491-.673 2.517 2.517 0 0 0-.584-.441c-.232-.116-.395-.147-.816-.155-.287-.008-.588.008-.67.035zm52.178 4.224c-.124.367-.213.677-.198.692.02.012.766.279 1.663.592.898.314 2.387.828 3.308 1.145 1.516.522 1.678.565 1.725.472.027-.054.135-.356.248-.665.108-.31.185-.577.166-.588-.016-.012-1.025-.356-2.244-.77-1.214-.41-2.704-.924-3.307-1.145-.6-.22-1.102-.398-1.114-.398-.012 0-.124.297-.247.665zm-.453 1.563c-.047.073-.217.356-.375.626-.163.275-.275.523-.248.553.023.031.26.33.522.654.26.329.476.611.476.627 0 .02-.306.534-.68 1.152a29.683 29.683 0 0 1-.743 1.192c-.05.058-.213.046-.762-.043a44.616 44.616 0 0 1-.832-.147c-.112-.023-.182.055-.51.585-.21.336-.38.638-.38.669 0 .035.008.058.016.058s1.443.236 3.191.522a403.4 403.4 0 0 0 3.67.592c.272.038.535.058.585.042.046-.015.251-.31.449-.65l.363-.622a553.357 553.357 0 0 1-3.45-4.441c-.634-.824-1.164-1.5-1.18-1.5-.015 0-.066.057-.112.13zm-48.17.336c-.278.163-.487.321-.476.364.012.038.271.491.58 1.005.306.511.751 1.246.987 1.629.236.387.422.704.41.708-.008.004-.364.22-.785.48-.426.263-.8.471-.832.471-.03 0-.402-.58-.824-1.295-.421-.712-.831-1.393-.905-1.513l-.135-.22c-.766.475-.99.638-.99.673.003.03.406.723.897 1.543l.893 1.486-1.295.777c-.159-.197-.6-.925-1.087-1.74-.488-.817-.89-1.494-.89-1.502-.004-.011-.236.113-.514.275-.283.163-.511.321-.511.352 0 .035.592 1.048 1.319 2.26l1.327 2.212c.004.011.793-.457 1.752-1.04.963-.581 2.325-1.397 3.033-1.815.704-.418 1.295-.766 1.31-.777.016-.012-.595-1.056-1.357-2.325a128.67 128.67 0 0 0-1.396-2.298c-.008 0-.24.132-.51.29z" fill="#fff"/><path d="m65.831 55.593-.472.8c.34.074.944.19 1.559.31.619.116 1.122.201 1.122.185 0-.015-.302-.41-.677-.874-.371-.464-.747-.928-.828-1.033-.085-.104-.174-.189-.193-.189-.023 0-.252.36-.51.8z" fill="#006CB5"/><path d="M56.97 61.851a1.794 1.794 0 0 0-.596.407 2.43 2.43 0 0 0-.395.53c-.062.135-.14.386-.174.553-.043.216-.043.402.004.642.035.182.116.433.174.553.062.12.209.325.329.456.123.132.379.314.568.406.29.144.422.175.774.17.27 0 .53-.038.727-.112.17-.061.433-.228.592-.363.178-.163.348-.39.464-.63.159-.326.182-.438.178-.817 0-.348-.035-.507-.159-.77a2.511 2.511 0 0 0-.402-.587 2.46 2.46 0 0 0-.541-.391c-.22-.109-.403-.147-.758-.159-.368-.011-.534.012-.786.112zm-33.452.623c-.082.027-.26.105-.395.174-.135.07-.336.217-.449.329-.112.112-.274.34-.36.51-.12.233-.162.414-.181.77-.02.387 0 .526.112.816.09.237.228.445.426.643.2.2.41.34.646.429.22.085.475.135.696.14.193 0 .495-.047.673-.11.213-.073.422-.204.63-.401a2.46 2.46 0 0 0 .465-.612c.12-.259.15-.41.154-.789 0-.379-.023-.522-.147-.785a2.716 2.716 0 0 0-.356-.553 2.441 2.441 0 0 0-.522-.406c-.259-.143-.39-.174-.777-.186-.26-.008-.534.004-.615.031zm24.481 2.754c-.395.109-.433.132-.422.26a1.58 1.58 0 0 1-.085.417c-.05.151-.205.445-.344.654a4.626 4.626 0 0 1-.619.723l-.371.344c.216.82.29 1.08.301 1.103.012.023.074.02.136-.016.066-.03.29-.22.503-.421.212-.201.464-.476.553-.611.093-.136.19-.248.213-.248.023 0 .332 1.09.684 2.421l.642 2.422c.271-.043.565-.116.832-.19.267-.077.472-.166.46-.197-.015-.03-.429-1.57-.92-3.423-.813-3.044-.91-3.365-1.014-3.358-.065 0-.313.058-.549.12zm-13.38.577a2.684 2.684 0 0 1-.696.49 4.984 4.984 0 0 1-.731.283 4.73 4.73 0 0 1-.522.12l-.205.035c-.21.882-.263 1.145-.252 1.156.008.008.174 0 .368-.019a4.44 4.44 0 0 0 .843-.209c.275-.096.545-.193.6-.216.092-.035.085.03-.074.6-.097.351-.395 1.454-.665 2.448-.267.99-.484 1.81-.48 1.818.004.007.298.093.65.185.352.097.646.17.65.163.008-.008.418-1.524.92-3.377.5-1.849.906-3.4.902-3.439-.004-.046-.182-.12-.453-.185a13.61 13.61 0 0 1-.507-.128c-.03-.012-.19.112-.348.275zm3.32.39a2.768 2.768 0 0 0-.546.275c-.14.097-.34.282-.445.41a2.78 2.78 0 0 0-.31.495c-.065.143-.15.445-.19.67a2.23 2.23 0 0 0-.01.815c.03.225.123.553.2.728.082.178.24.425.352.553.116.127.337.305.492.39.158.085.456.182.665.217.248.039.468.039.642.004a2 2 0 0 0 .538-.232c.15-.097.29-.174.305-.174.016 0-.011.205-.062.452-.05.248-.15.58-.22.735-.07.159-.213.36-.313.453a.896.896 0 0 1-.38.197c-.104.02-.293 0-.421-.042a.714.714 0 0 1-.368-.279c-.073-.112-.131-.263-.131-.337 0-.116-.027-.131-.275-.131-.154 0-.456.02-.673.043l-.398.046c.058.36.135.596.205.754.073.163.209.383.31.495.096.113.343.283.549.38.336.158.425.174.982.174.56.003.642-.012.99-.174.21-.101.5-.287.642-.414a2.83 2.83 0 0 0 .476-.639c.12-.22.267-.61.333-.87.066-.255.15-.754.185-1.106.04-.36.05-.87.031-1.165a7.624 7.624 0 0 0-.123-.89 3.986 3.986 0 0 0-.248-.692 2.555 2.555 0 0 0-.437-.615 2.682 2.682 0 0 0-.611-.437c-.275-.127-.433-.158-.886-.174-.418-.015-.627.004-.85.085zm5.306-.046a3.1 3.1 0 0 0-.576.213 2.24 2.24 0 0 0-.55.402 2.475 2.475 0 0 0-.34.522 2.738 2.738 0 0 0-.17.526c-.035.228-.035.232.158.275.109.023.38.058.604.081l.406.039c.124-.441.228-.639.313-.724.085-.08.275-.181.418-.22.209-.054.31-.054.495.008.186.058.26.127.364.336.073.143.131.337.131.422 0 .089-.05.259-.108.379a.971.971 0 0 1-.263.32 1.657 1.657 0 0 1-.44.175l-.287.073a8.39 8.39 0 0 0-.066.832v.248c.294-.093.487-.116.627-.116.135 0 .325.038.421.085.097.05.248.185.333.301.14.182.166.283.182.654.011.371-.004.487-.12.704a.888.888 0 0 1-.368.395c-.127.07-.328.131-.448.131s-.294-.027-.38-.062a1.15 1.15 0 0 1-.324-.22.944.944 0 0 1-.22-.36c-.036-.112-.07-.228-.082-.263-.012-.035-.178-.03-.476.015-.251.04-.541.086-.646.101-.178.031-.19.043-.154.22.019.105.104.33.19.503.084.17.278.426.428.569.155.14.43.325.612.414.31.147.394.162 1.036.162s.727-.015 1.033-.162c.186-.089.46-.275.611-.414.155-.14.368-.422.48-.627.182-.336.205-.425.224-.924.02-.522.012-.576-.158-.917-.113-.232-.26-.425-.399-.526a2.169 2.169 0 0 0-.394-.228l-.29-.105c-.101-.03-.078-.07.197-.309.197-.174.363-.39.46-.596.128-.274.143-.375.12-.7-.02-.205-.077-.468-.135-.58a3.01 3.01 0 0 0-.352-.468 2.149 2.149 0 0 0-.62-.43 1.866 1.866 0 0 0-.808-.185 3.377 3.377 0 0 0-.669.03z" fill="#fff"/><path d="M38.29 67.305c-.174.078-.267.178-.375.395-.124.244-.147.367-.147.84 0 .44.023.599.116.777.066.124.193.275.29.336.116.07.29.109.51.109.287 0 .364-.023.519-.159.1-.089.217-.232.263-.321.042-.089.104-.27.135-.406.035-.147.035-.38.008-.569a2.437 2.437 0 0 0-.159-.549 1.183 1.183 0 0 0-.286-.364.923.923 0 0 0-.406-.166.803.803 0 0 0-.468.077z" fill="#006CB5"/></svg>