<svg width="79" height="80" fill="none" xmlns="http://www.w3.org/2000/svg"><path fill-rule="evenodd" clip-rule="evenodd" d="M75.334 40.22c-1.33-3.33-2.613-6.422-2.617-11.312 0-3.586 1.071-6.858 2.149-9.23a26.546 26.546 0 0 1 1.48-2.805c.201-.33.368-.585.484-.757.116-.171.177-.253.177-.253l.26-.354L63.796.016 58.143 4.96C56.399 4.037 48.297.007 39.2 0c-9.097.007-17.199 4.037-18.943 4.96L14.605.018 1.135 15.508l.26.355s.06.082.176.253c.815 1.199 4.12 6.518 4.112 12.792-.003 4.89-1.286 7.982-2.616 11.311C1.737 43.54.368 47.087.372 52.626c-.014 7.37 3.195 12.002 7.432 15.027 2.222 1.599 4.466 2.71 7.397 3.447 2.932.739 6.546 1.114 11.583 1.29 3.362.118 6.369 1.859 8.53 3.6a23.775 23.775 0 0 1 2.542 2.377 19.428 19.428 0 0 1 .852.987c.039.048.055.07.055.07L39.2 80l.438-.576s.074-.098.227-.283c1.069-1.31 5.869-6.566 11.753-6.75 5.036-.177 8.65-.553 11.582-1.29 2.931-.738 5.174-1.85 7.397-3.448 4.237-3.025 7.445-7.656 7.432-15.027.004-5.539-1.365-9.086-2.695-12.407z" fill="#FFC500"/><path fill-rule="evenodd" clip-rule="evenodd" d="M74.314 40.627c-1.326-3.31-2.699-6.629-2.696-11.72.01-6.535 3.306-11.913 4.252-13.33L63.69 1.57l-5.405 4.725-.339-.192s-.13-.074-.388-.21a33.47 33.47 0 0 0-1.132-.565c-.983-.47-2.4-1.097-4.127-1.725-3.455-1.255-8.154-2.505-13.098-2.504-8.654-.006-16.55 3.84-18.358 4.794-.258.136-.388.21-.388.21l-.34.192-5.404-4.725-12.18 14.007c.946 1.417 4.242 6.795 4.251 13.33.004 5.091-1.369 8.41-2.695 11.72-1.325 3.319-2.612 6.64-2.616 11.999.014 7.049 2.959 11.233 6.974 14.134 2.14 1.535 4.216 2.565 7.024 3.275 2.807.708 6.352 1.083 11.354 1.257 3.724.138 6.915 2.023 9.18 3.842a24.625 24.625 0 0 1 3.197 3.091 24.638 24.638 0 0 1 3.197-3.091c2.266-1.82 5.458-3.704 9.182-3.842 5.002-.174 8.546-.55 11.353-1.257 2.808-.71 4.885-1.74 7.024-3.275 4.015-2.901 6.96-7.085 6.974-14.134-.004-5.36-1.291-8.68-2.617-11.999z" fill="#fff"/><path fill-rule="evenodd" clip-rule="evenodd" d="m62.733 5.082.762-.666 9.456 10.874L59.377 27.16a23.261 23.261 0 0 0-10.725-9.764L62.733 5.082z" fill="#FFC500"/><path fill-rule="evenodd" clip-rule="evenodd" d="M3.486 52.626c.017-5.03 1.156-7.935 2.472-11.25 1.317-3.277 2.854-7.01 2.839-12.468C8.792 24.7 7.566 21.03 6.369 18.39a30.162 30.162 0 0 0-1.343-2.613l9.88-11.362 4.96 4.337 1.58-.897c.047-.026 2.204-1.233 5.5-2.415 3.293-1.186 7.721-2.332 12.254-2.328 4.606-.004 9.103 1.18 12.411 2.385 1.655.6 3.014 1.202 3.946 1.648a32.153 32.153 0 0 1 1.117.559l-10.14 8.865a23.153 23.153 0 0 0-7.333-1.186c-12.797 0-23.169 10.372-23.17 23.169 0 1.481.141 2.93.407 4.333L3.543 54.162a21.46 21.46 0 0 1-.057-1.536z" fill="#1B4062"/><path fill-rule="evenodd" clip-rule="evenodd" d="M13.486 67.285c-1.384-.553-2.58-1.244-3.866-2.161-1.821-1.31-3.318-2.861-4.39-4.836a13.892 13.892 0 0 1-1.356-3.74l13.097-11.451a23.2 23.2 0 0 0 8.248 11.93L13.486 67.285z" fill="#FFC500"/><path fill-rule="evenodd" clip-rule="evenodd" d="M27.113 69.29c-.073-.004-.145-.009-.218-.011-4.94-.17-8.355-.545-10.933-1.198l-.25-.066 11.218-9.808.183.114V69.29zM38.193 74.349c-.291-.258-.598-.52-.927-.785-1.231-.99-2.723-2.004-4.46-2.809a16.313 16.313 0 0 0-3.679-1.213v-10.12a23.05 23.05 0 0 0 9.066 2.276V74.35zM24.242 53.51a21.083 21.083 0 0 1-6.196-14.957 21.083 21.083 0 0 1 6.196-14.959 21.085 21.085 0 0 1 14.959-6.196 21.084 21.084 0 0 1 14.957 6.196 21.084 21.084 0 0 1 6.197 14.959 21.083 21.083 0 0 1-6.197 14.958 21.082 21.082 0 0 1-14.957 6.196 21.083 21.083 0 0 1-14.959-6.196zM49.274 69.542a16.31 16.31 0 0 0-3.68 1.213c-2.199 1.022-4.006 2.372-5.386 3.593v-12.65a23.046 23.046 0 0 0 9.066-2.276v10.12zM60.355 68.517c-2.283.39-5.134.634-8.847.762l-.22.011V58.321a23.262 23.262 0 0 0 9.067-10.307v20.503zM68.78 65.124c-1.986 1.416-3.758 2.297-6.34 2.957l-.07.017V38.553c0-3.402-.734-6.632-2.05-9.542L71.76 19.006c-1.103 2.583-2.152 6.01-2.157 9.902-.016 5.457 1.522 9.191 2.84 12.468 1.315 3.315 2.454 6.22 2.471 11.25-.004 3.244-.678 5.684-1.745 7.662-1.07 1.975-2.568 3.525-4.39 4.836z" fill="#1B4062"/><path fill-rule="evenodd" clip-rule="evenodd" d="M39.2 53.205c-4.74 0-8.952-2.253-11.63-5.744a20.095 20.095 0 0 0 1.985-6.527h17.552v-4.762H29.555a20.094 20.094 0 0 0-1.985-6.527c2.678-3.491 6.89-5.744 11.63-5.744 5.891 0 10.967 3.477 13.294 8.49l4.324-2.004C53.734 23.745 47.006 19.14 39.2 19.14a19.364 19.364 0 0 0-14.338 6.325 19.464 19.464 0 0 0-2.856 4.068c1.406 2.026 2.354 4.262 2.739 6.63a14.929 14.929 0 0 1 0 4.781c-.385 2.369-1.333 4.605-2.74 6.63a19.459 19.459 0 0 0 2.857 4.07A19.364 19.364 0 0 0 39.2 57.966c7.805 0 14.533-4.606 17.617-11.249l-4.324-2.004c-2.328 5.013-7.403 8.491-13.293 8.491z" fill="#FFC500"/></svg>