<svg width="81" height="80" fill="none" xmlns="http://www.w3.org/2000/svg"><path d="M80.834 40c0 22.093-17.907 40-40 40-22.087 0-40-17.907-40-40s17.907-40 40-40c22.093.006 40 17.913 40 40z" fill="#221F1C"/><path d="M78.99 40c0 21.07-17.085 38.155-38.156 38.155-21.07 0-38.156-17.084-38.156-38.155 0-21.076 17.085-38.156 38.156-38.156C61.91 1.844 78.99 18.924 78.99 40z" fill="#fff"/><path d="M29.985 74.335a36.046 36.046 0 0 0 10.85 1.668c3.78 0 7.428-.588 10.849-1.668-3.061-2.363-6.807-3.762-10.85-3.762-4.043 0-7.789 1.399-10.85 3.763zM51.684 5.664a36.019 36.019 0 0 0-10.85-1.661 35.99 35.99 0 0 0-10.85 1.661c3.061 2.37 6.807 3.77 10.85 3.77 4.043 0 7.789-1.4 10.85-3.77zM54.647 25.878a39.918 39.918 0 0 0 13.984-8.76A36.093 36.093 0 0 0 53.574 6.328a20.005 20.005 0 0 1-6.779 3.854c4.032 2.924 7.018 8.725 7.852 15.697zM34.873 10.181a20.005 20.005 0 0 1-6.778-3.854 36.093 36.093 0 0 0-15.058 10.792 40 40 0 0 0 13.984 8.76c.84-6.973 3.82-12.774 7.852-15.698zM27.021 54.121a40.067 40.067 0 0 0-13.984 8.765A36.143 36.143 0 0 0 28.095 73.68a19.952 19.952 0 0 1 6.778-3.855c-4.032-2.929-7.012-8.736-7.852-15.703zM54.647 54.121c-.834 6.972-3.814 12.774-7.852 15.698a19.952 19.952 0 0 1 6.779 3.854A36.043 36.043 0 0 0 68.63 62.881a39.97 39.97 0 0 0-13.984-8.76z" fill="#4A7FBC"/><path d="M69.688 61.539a35.868 35.868 0 0 0 7.149-21.54c0-8.08-2.661-15.53-7.15-21.538A41.593 41.593 0 0 1 40.835 30.03 41.618 41.618 0 0 1 11.98 18.46 35.856 35.856 0 0 0 4.831 40c0 8.074 2.661 15.532 7.15 21.539a41.598 41.598 0 0 1 28.853-11.575c11.21 0 21.39 4.42 28.854 11.575z" fill="#221F1C"/><path d="M47.332 21.476c.394-.126.754-.537.754-1.188 0-.394-.108-.72-.36-.97-.25-.252-.576-.36-1.039-.36-.93 0-1.262.53-1.542.896l.645.428c.286-.36.583-.462.76-.462a.61.61 0 0 1 .605.605.761.761 0 0 1-.245.577c-.132.126-.326.217-.611.217h-.252v.754h.36c.286 0 .509.068.646.251.108.148.217.325.217.68 0 .673-.4.788-.686.788-.188 0-.32-.018-.428-.109a1.192 1.192 0 0 1-.325-.462l-.823.325c.109.36.286.645.577.822.245.183.605.286 1.04.286.462 0 .856-.143 1.147-.428.285-.326.434-.72.434-1.257-.012-.388-.143-1.159-.874-1.393zM40.332 21.333c0 1.04-.178 1.868-.503 2.41-.251.428-.61.714-1.08.822a1.774 1.774 0 0 1-.393.034c-.291 0-.543-.074-.857-.285l.326-.72c.171.08.388.149.57.149.223 0 .43-.108.612-.325.183-.217.285-.577.36-1.046-.2.166-.326.326-.788.326-.395 0-.72-.143-.971-.463-.252-.325-.36-.753-.36-1.29 0-.645.143-1.114.394-1.433.251-.326.645-.503 1.113-.543h.04c.537 0 .931.217 1.182.611.246.389.355.965.355 1.753zm-1.582.537c.228 0 .36-.12.434-.286.08-.177.108-.428.108-.753 0-.326-.028-.594-.108-.76-.097-.188-.251-.245-.434-.245a.45.45 0 0 0-.394.245 1.935 1.935 0 0 0-.143.76c0 .52.154 1.039.537 1.039zM33.548 19.506v.72l.97-.286v3.66H33.48v.828h2.941V23.6h-.97v-4.522l-1.902.428zM46.972 56.588H45.86l-1.33 5.38h.896l.326-1.331h1.256l.285 1.33h1.005l-1.325-5.379zm-1.039 3.192.326-1.582.114-.61h.011l.109.576.331 1.616h-.89zM33.37 56.657v5.31h1.006v-2.295h1.365v-.857h-1.365v-1.29h1.976v-.863H33.37v-.005z" fill="#221F1C"/><path d="M36.289 30.27s1.924.034 2.01.04c.04.068 1.581 2.963 1.684 3.158h-1.136l-1.542-1.982-1.633 2.01-1.085-.029c.097-.188 1.702-3.197 1.702-3.197zM63.447 46.338c-1.171-1.239-1.742-2.883-1.742-5.008 0-2.124.582-3.825 1.742-5.047 1.119-1.222 2.689-1.84 4.653-1.84 1.965 0 3.535.618 4.648 1.84 1.171 1.244 1.742 2.895 1.742 5.047 0 2.13-.571 3.77-1.742 5.008-1.107 1.21-2.666 1.845-4.648 1.879-1.947.006-3.511-.628-4.653-1.879zm1.867-8.468c-.663.85-.988 1.976-.988 3.455 0 1.45.325 2.57.988 3.414.656.84 1.564 1.25 2.786 1.25 1.217 0 2.13-.404 2.787-1.25.662-.845.982-1.964.982-3.414 0-1.48-.32-2.61-.982-3.455-.668-.817-1.576-1.21-2.787-1.21-1.17.005-2.078.4-2.786 1.21zM60.631 34.798v13.03h-2.586v-13.03h2.586zM56.36 34.798v13.03h-2.41V37.27l-.142-.017-2.678 10.575h-2.65l-2.712-10.575-.143.017v10.558h-2.41v-13.03h3.895l2.672 10.227 2.678-10.227h3.9zM41.965 34.798v2.118h-6.893v2.981h6.322v2.119h-6.322v3.517h7.252v2.295H32.56v-13.03h9.405zM27.067 34.798c1.439 0 2.495.297 3.146.88.668.599 1.017 1.558 1.017 2.786 0 .76-.166 1.439-.492 1.976-.302.502-.782.862-1.433 1.079l-.211.068.211.069c.554.171.977.485 1.216.902.229.36.349.948.383 1.901l.069 1.616c.04.817.2 1.268.502 1.468v.291h-2.86a2.575 2.575 0 0 1-.19-.542c-.05-.212-.102-.48-.113-1.04l-.035-1.404c-.034-.862-.188-1.405-.485-1.702-.263-.297-.777-.45-1.525-.45h-2.98v5.133H20.7V34.797h6.367zm-3.695 2.113h-.068v3.631h3.266c.708 0 1.256-.154 1.587-.445.326-.257.491-.72.491-1.388 0-.576-.16-1.01-.485-1.347-.337-.297-.822-.451-1.45-.451h-3.34zM8.885 46.31c-1.13-1.24-1.701-2.924-1.701-5.014 0-2.096.56-3.723 1.701-4.98 1.108-1.25 2.621-1.878 4.506-1.878 1.661 0 2.975.383 4.014 1.17 1.028.817 1.633 1.873 1.822 3.141H16.6a2.966 2.966 0 0 0-1.04-1.53c-.519-.388-1.21-.588-2.055-.588-1.148 0-2.021.41-2.678 1.25v.006c-.634.85-.954 1.987-.954 3.38 0 1.45.326 2.57.988 3.415.702.857 1.639 1.285 2.787 1.285.902 0 1.621-.268 2.204-.81.577-.47.948-1.183 1.096-2.12l.012-.085h-2.993v-2.119h5.311v7.001h-1.702l-.342-1.644-.092.13c-.462.64-1.022 1.132-1.661 1.446-.577.308-1.302.462-2.159.462-1.816-.006-3.306-.65-4.437-1.919z" fill="#fff"/><path d="M39.218 59.135c.326.108.577.245.754.502.182.252.251.543.251.897 0 .462-.137.833-.462 1.073-.309.229-.714.36-1.131.36H37.1v-5.31h1.581c.771 0 1.365.468 1.365 1.29 0 .285-.069.537-.211.754-.143.205-.36.342-.617.434zm-.788-1.685h-.325v1.365h.325c.417 0 .645-.32.645-.72 0-.52-.234-.645-.645-.645zm.788 2.975c0-.342-.103-.536-.234-.656-.143-.132-.411-.166-.594-.166h-.285v1.582h.525c.257-.006.588-.166.588-.76zM41.194 56.657v5.31h1.005v-2.01h.462c.434-.034.794-.177 1.08-.428.325-.326.462-.72.462-1.257 0-.542-.143-.936-.428-1.221-.251-.252-.645-.395-1.114-.395h-1.467zm1.958 1.616c0 .616-.28.936-.702.936H42.2V57.45h.251c.371 0 .702.16.702.822zM41.553 19.717c-.285.468-.428 1.188-.428 2.084 0 .897.143 1.576.428 2.045.286.462.68.72 1.223.72.542 0 .936-.252 1.221-.72.286-.469.429-1.154.429-2.045 0-.896-.149-1.616-.428-2.084-.286-.502-.68-.754-1.222-.754-.543 0-.937.252-1.223.754zm1.868 2.084c0 .663-.035 1.2-.149 1.485-.108.274-.25.411-.502.411-.251 0-.4-.137-.503-.411-.108-.286-.142-.822-.142-1.485 0-.696.034-1.25.142-1.541.109-.286.252-.429.503-.429s.4.143.502.429c.114.29.149.845.149 1.541z" fill="#221F1C"/></svg>