<svg width="70" height="80" fill="none" xmlns="http://www.w3.org/2000/svg"><path d="M34.27 79.891c-.086-.062-.467-.31-.855-.56-.599-.38-2.092-1.415-2.333-1.609-.039-.031-.567-.435-1.166-.886-1.508-1.143-3.188-2.55-5.131-4.3-.895-.8-4.432-4.393-5.287-5.364-1.392-1.579-1.835-2.084-2.014-2.317a3 3 0 0 0-.202-.25c-.031-.03-.94-1.173-1.734-2.176-.746-.949-2.208-3.001-3.118-4.393-2.65-4.027-4.664-7.751-6.46-11.973-2.216-5.178-3.966-11.126-4.82-16.405-.11-.637-.226-1.337-.273-1.555-.039-.21-.124-.863-.194-1.438a138.69 138.69 0 0 0-.195-1.555c-.295-1.983-.49-6.391-.45-10.084.03-2.791.046-3.063.17-3.203.164-.18 1.276-.941 1.369-.941.039 0 .046 1.026.023 2.278-.046 2.216.062 5.753.21 7.13.039.365.132 1.236.194 1.943.226 2.247.778 5.598 1.314 7.97.412 1.795 1.151 4.485 1.61 5.823l.17.513.288-.233c.164-.125.451-.296.654-.381.342-.156.35-.164.272-.374-.195-.474-.887-2.845-1.283-4.377a66.93 66.93 0 0 1-1.197-5.792c-.094-.552-.21-1.322-.273-1.71-.186-1.206-.497-4.51-.59-6.337-.086-1.843-.07-8.894.03-9.096.203-.428 4.393-2.83 6.073-3.476.179-.07.357-.147.396-.179.047-.03.583-.256 1.205-.505 3.864-1.524 8.102-2.643 12.323-3.265.731-.101 1.548-.226 1.828-.273C27.933.067 35.156-.15 39.361.114c2.045.132 4.137.31 4.898.427.28.047 1.105.172 1.828.273 4.221.622 8.459 1.741 12.323 3.265.622.249 1.166.474 1.205.505.046.032.217.11.396.18.521.201 2.107.987 3.063 1.508.918.505 2.263 1.321 2.333 1.415.023.023.171.132.326.24.164.11.32.25.35.312.101.202.117 7.409.031 9.174-.194 3.708-.84 8.575-1.523 11.506-.568 2.434-1.034 4.207-1.517 5.715a16.85 16.85 0 0 0-.256.879c-.008.054.202.186.49.303.28.109.552.233.606.28.164.124.249-.024.498-.855 1.337-4.424 2.27-8.965 2.667-13.008.062-.66.147-1.516.194-1.905.148-1.453.249-4.812.21-7.09-.023-1.299-.008-2.356.023-2.356.093 0 1.213.77 1.368.94.133.14.14.405.172 3.18.062 5.295-.234 9.377-1.003 14.073-1.229 7.503-3.662 14.928-7.075 21.583-.646 1.26-1.765 3.32-2.045 3.763-.093.148-.358.59-.591.972-.622 1.057-2.076 3.288-2.83 4.354-.365.513-1.773 2.433-1.967 2.682-.171.21-1.508 1.897-1.757 2.216-.14.163-.358.427-.49.583-.132.148-.342.389-.467.536-1.12 1.322-2.472 2.768-4.151 4.44-1.742 1.75-2.317 2.293-3.693 3.514-2.037 1.811-5.24 4.276-7.27 5.59-1.197.785-1.158.77-1.438.583zm.754-7.168c.272-.148.614-.35.762-.443.272-.164 2.286-1.493 2.643-1.742 3.227-2.27 5.886-4.51 8.91-7.526 1.073-1.065 2.208-2.224 2.52-2.566.691-.762 2.736-3.18 3.195-3.786a109.935 109.935 0 0 0 1.648-2.161c.07-.11.342-.49.599-.856.902-1.275 1.252-1.803 1.213-1.842-.032-.031-1.78.124-1.804.155 0 .008-.249.358-.544.778-.296.42-.591.847-.653.94-.25.366-.77 1.058-1.587 2.108-2.806 3.6-6.258 7.168-9.96 10.301-.582.49-.66.552-1.204.972-.28.218-.521.412-.544.435-.218.265-3.693 2.69-5.093 3.561-.575.358-.544.358-1.15 0-1.221-.723-4.868-3.265-5.109-3.56a16.87 16.87 0 0 0-.544-.436c-.544-.42-.622-.482-1.205-.972a72.695 72.695 0 0 1-8.21-8.163c-.8-.941-2.38-2.908-2.73-3.421-.077-.11-.271-.373-.427-.591-.163-.226-.536-.754-.84-1.182-.303-.435-.614-.8-.7-.824a14.755 14.755 0 0 0-.924-.093c-.646-.04-.755-.031-.708.054.117.202.739 1.12 1.205 1.78.257.366.529.747.607.856.948 1.368 3.623 4.641 4.983 6.103.583.622 3.818 3.856 4.4 4.393 1.665 1.539 4.168 3.592 5.87 4.812 1.338.972 3.072 2.138 3.624 2.457.124.07.45.257.73.428.28.163.514.303.522.303.007.008.24-.117.505-.272z" fill="#1A1A19"/><path d="M34.27 79.891c-.086-.054-.607-.404-1.166-.77-1.306-.855-2.527-1.749-4.16-3.04-1.407-1.12-2.503-2.06-4.16-3.545-.893-.8-4.431-4.393-5.286-5.364-1.392-1.579-1.835-2.084-2.014-2.317a3 3 0 0 0-.202-.25c-.031-.03-.94-1.173-1.734-2.176-.746-.949-2.208-3.001-3.118-4.393-2.635-4.004-4.672-7.775-6.46-11.973-2.216-5.178-3.966-11.126-4.82-16.405-.11-.637-.226-1.337-.273-1.555-.039-.21-.124-.863-.194-1.438a138.69 138.69 0 0 0-.195-1.555c-.295-1.983-.49-6.391-.45-10.084.03-2.791.046-3.063.17-3.203.164-.18 1.276-.941 1.369-.941.039 0 .046 1.026.023 2.278-.046 2.216.062 5.753.21 7.13.039.365.132 1.236.194 1.943.226 2.247.778 5.598 1.314 7.97.428 1.873 1.081 4.229 1.579 5.73l.202.606.287-.233c.164-.125.451-.296.646-.381l.365-.156-.155-.412c-.591-1.648-1.5-5.123-2.022-7.798-.21-1.057-.303-1.61-.66-3.926-.203-1.275-.498-4.479-.591-6.298-.086-1.843-.07-8.894.03-9.096.102-.21 1.61-1.19 3.01-1.967.808-.444 2.83-1.454 2.915-1.454.016 0 .225-.086.451-.195 3.53-1.61 8.925-3.117 13.621-3.81.731-.1 1.548-.225 1.828-.272C27.933.067 35.156-.15 39.361.114c2.045.132 4.137.31 4.898.427.28.047 1.105.172 1.828.273 4.696.692 10.091 2.2 13.621 3.81.225.108.435.194.451.194.086 0 2.107 1.01 2.916 1.454.917.505 2.262 1.321 2.332 1.415.023.023.171.132.326.24.164.11.32.25.35.312.101.202.117 7.409.031 9.174-.194 3.708-.84 8.575-1.523 11.506-.568 2.434-1.034 4.207-1.517 5.715a16.85 16.85 0 0 0-.256.879c-.008.054.202.186.49.303.28.109.552.233.606.28.164.124.249-.024.498-.855 1.337-4.424 2.27-8.965 2.667-13.008.062-.66.147-1.516.194-1.905.148-1.453.249-4.812.21-7.09-.023-1.299-.008-2.356.023-2.356.093 0 1.213.77 1.368.94.133.14.14.405.172 3.18.062 5.295-.234 9.377-1.003 14.073-1.229 7.503-3.662 14.928-7.075 21.583-.646 1.26-1.765 3.32-2.045 3.763-.093.148-.358.59-.591.972-.622 1.057-2.076 3.288-2.83 4.354-.365.513-1.773 2.433-1.967 2.682-.171.21-1.508 1.897-1.757 2.216-.14.163-.358.427-.49.583-.132.148-.342.389-.467.536-1.461 1.719-5.069 5.466-6.523 6.772-3.187 2.877-5.994 5.085-8.59 6.772-1.198.785-1.16.77-1.44.583zm.754-7.168c.272-.148.614-.35.762-.443.272-.164 2.286-1.493 2.643-1.742 3.235-2.27 5.894-4.525 8.91-7.526 1.073-1.065 2.208-2.224 2.52-2.566.683-.762 2.736-3.18 3.195-3.786a109.935 109.935 0 0 0 1.648-2.161c.07-.11.342-.49.599-.856.902-1.275 1.252-1.803 1.213-1.842-.032-.031-1.78.124-1.804.155 0 .008-.249.358-.544.778-.296.42-.591.847-.653.94-.545.801-2.247 2.97-3.336 4.246a72.042 72.042 0 0 1-8.21 8.163c-.583.49-.66.552-1.205.972-.28.218-.521.412-.544.435-.241.296-3.888 2.838-5.108 3.561l-.568.334-.56-.334c-1.26-.746-4.19-2.791-5.154-3.584-.086-.078-.467-.381-.856-.692-2.939-2.34-6.282-5.606-9.065-8.855-.8-.941-2.38-2.908-2.73-3.421-.077-.11-.271-.373-.427-.591-.163-.226-.536-.754-.84-1.182-.303-.435-.614-.8-.7-.824a14.755 14.755 0 0 0-.924-.093c-.646-.04-.755-.031-.708.054.125.21.739 1.127 1.205 1.78.257.366.529.747.599.856.995 1.407 3.607 4.61 4.991 6.103.56.599 3.794 3.833 4.4 4.393 1.65 1.531 4.168 3.592 5.87 4.812 1.338.972 3.072 2.138 3.624 2.457.124.07.45.257.73.428.28.163.514.303.522.303.007.008.24-.117.505-.272zM12.461 50.339c0-1.283 0-1.29-.233-1.757-.28-.544-.225-.544-1.29-.031-1.104.536-1.695 1.298-1.548 1.99.117.513.926.887 2.208 1.003.366.031.716.062.77.07.07.008.093-.295.093-1.275zm45.584 1.166c1.299-.1 2.076-.536 2.076-1.166 0-.342-.249-.886-.529-1.15-.35-.335-1.088-.74-1.749-.957l-.63-.21-.14.179c-.124.155-.14.342-.14 1.804v1.625l.257-.04c.132-.023.52-.061.855-.085z" fill="#14365A"/><path d="M34.27 79.891c-.086-.054-.607-.404-1.166-.77-1.306-.855-2.527-1.749-4.16-3.04-1.407-1.12-2.503-2.06-4.16-3.545-.893-.8-4.431-4.393-5.286-5.365-1.392-1.578-1.835-2.083-2.014-2.316a2.982 2.982 0 0 0-.202-.25c-.031-.03-.94-1.173-1.734-2.176-.746-.949-2.208-3.001-3.118-4.393-2.635-4.004-4.672-7.775-6.46-11.973-2.216-5.178-3.966-11.126-4.82-16.405-.11-.637-.226-1.337-.273-1.555-.039-.21-.124-.863-.194-1.438S.527 25.39.488 25.11c-.295-1.983-.49-6.391-.45-10.084.03-2.791.046-3.063.17-3.203.164-.18 1.276-.941 1.369-.941.039 0 .046 1.026.023 2.278-.046 2.216.062 5.753.21 7.13.039.365.132 1.236.194 1.943.226 2.247.778 5.598 1.314 7.97.428 1.873 1.081 4.229 1.579 5.73l.202.606.28-.226c.49-.38 1.127-.622 2.317-.878.707-.148 1.12-.163 5.543-.218 2.628-.039 5.232-.1 5.777-.14 2.231-.186 7.121-.272 15.332-.28 8.358-.008 12.245.063 15.471.28.731.055 3.421.093 5.987.101 3.934.016 4.79.031 5.49.148 1.002.155 1.81.373 2.34.63.248.116.435.163.474.124.163-.163 1.29-4.183 1.695-6.033.551-2.527 1.065-5.691 1.275-7.814.062-.66.147-1.516.194-1.905.148-1.453.249-4.812.21-7.09-.023-1.299-.008-2.356.023-2.356.093 0 1.213.77 1.368.94.133.14.14.405.172 3.18.062 5.295-.234 9.377-1.003 14.073-1.229 7.503-3.662 14.928-7.075 21.583-.646 1.26-1.765 3.32-2.045 3.763-.093.148-.358.59-.591.972-.622 1.057-2.076 3.288-2.83 4.354-.365.513-1.773 2.433-1.967 2.682-.171.21-1.508 1.897-1.757 2.216-.14.163-.358.427-.49.583-.132.148-.342.389-.467.536-1.461 1.719-5.069 5.466-6.523 6.772-3.187 2.877-5.994 5.085-8.59 6.772-1.198.785-1.16.77-1.44.583zm.754-7.168c.272-.148.614-.35.762-.443.272-.164 2.286-1.493 2.643-1.742 3.235-2.27 5.894-4.525 8.91-7.526 1.073-1.065 2.208-2.224 2.52-2.566.683-.762 2.736-3.18 3.195-3.786a110.27 110.27 0 0 0 1.648-2.161c.07-.11.342-.49.599-.856.91-1.282 1.252-1.803 1.213-1.842-.016-.023-.39 0-.825.046-.427.047-.831.086-.894.086-.077 0 .047-.241.343-.676.248-.381.754-1.174 1.127-1.765l.668-1.089V51.63l.257-.04c.132-.023.52-.061.855-.085 1.703-.132 2.395-.77 1.92-1.78-.194-.412-.443-.653-1.041-1.01-.529-.32-1.633-.708-1.765-.623-.054.031-.07.023-.047-.03.047-.063-.777-.25-1.578-.35-.187-.024-.505.341-.847.971-.53.972-1.229 1.78-1.703 1.983-.754.31-1.275-.39-1.392-1.858l-.047-.591-.303-.14c-.342-.156-.52-.156-2.472-.04-3.654.218-6.974.28-15.355.28-5.901 0-9.346-.038-10.69-.1-2.123-.11-3.22-.203-3.515-.32l-.179-.07.195-.077c.147-.062-.14-.085-1.12-.085-1.174-.008-1.298.007-1.213.116.086.101.062.156-.179.397-.256.24-.287.319-.287.66 0 .42-.156.794-.381.918-.195.101-.684.101-.747 0-.03-.047-.085-.062-.124-.031-.148.085-.816-.389-1.555-1.112l-.739-.723-.622.155c-1.796.451-3.07 1.563-2.869 2.496.11.482.88.863 1.944.964.257.024.614.063.801.078l.326.039v-1.29c0-.74-.03-1.354-.077-1.439-.179-.334 0-.117.272.342.163.264.614.964.995 1.555.381.59.677 1.089.661 1.096-.008.016-.334-.008-.723-.046-1.143-.11-1.128-.125-.669.56.218.318.599.878.863 1.243.257.366.529.747.599.856.995 1.407 3.607 4.61 4.991 6.103.56.599 3.794 3.833 4.4 4.393 1.65 1.531 4.168 3.592 5.87 4.812 1.338.972 3.072 2.138 3.624 2.457.124.07.45.257.73.428.28.163.514.303.522.303.007.008.24-.117.505-.272zm-7.643-29.49c.451-.233.506-.342.28-.552l-.186-.171-.21.163c-.233.187-.708.218-.91.07-.288-.218-.35-1.648-.085-2.06.147-.241.552-.303.933-.14.287.117.303.117.435-.055.187-.24.179-.256-.124-.404-.405-.186-1.128-.163-1.454.055-.428.28-.576.668-.576 1.531 0 .863.148 1.252.576 1.532.334.225.91.24 1.321.03zm-4.983-.295.109-.335h1.205l.1.35c.094.334.11.35.397.35.171 0 .303-.039.303-.086 0-.054-.233-.8-.513-1.671l-.52-1.586h-.716l-.56 1.68-.56 1.67.32-.023c.303-.023.326-.046.435-.35zm7.044.015.093-.31.622-.024.622-.024.093.358c.094.342.101.35.405.35.17 0 .31-.023.31-.047 0-.023-.233-.777-.52-1.671l-.521-1.625h-.731l-.529 1.578c-.287.863-.536 1.617-.56 1.672-.023.077.047.093.296.077.319-.023.342-.038.42-.334zm5.17.21c.498-.249.59-.466.614-1.438.04-1.439-.202-1.695-1.671-1.75l-.879-.039v3.367h.84c.637 0 .894-.031 1.096-.14zm3.895-.093v-.234h-1.322v-.932H38.352v-.545H37.185v-.855h1.322v-.544h-.925c-.513 0-.949.03-.972.07-.023.039-.023.785.008 1.671l.046 1.602h1.843v-.233zm1.874-.25c.008-.271.031-.854.062-1.305l.047-.817.334 1.05c.459 1.454.428 1.4.746 1.4.304 0 .226.14.77-1.478l.327-.972.046 1.089c.031.599.055 1.182.063 1.306.007.194.03.21.318.21.288 0 .311-.016.28-.171-.023-.101-.062-.614-.085-1.15a32.076 32.076 0 0 0-.094-1.501l-.046-.529-.389.023-.397.024-.373 1.088c-.202.599-.38 1.127-.396 1.166-.016.047-.202-.458-.412-1.104l-.381-1.19H40l-.047.335c-.023.179-.062.816-.085 1.415-.024.599-.063 1.205-.086 1.345-.039.249-.03.249.28.249h.311l.008-.482zm5.512-.14c0-.621 0-.621.552-1.678l.552-1.05-.365.023-.358.024-.326.723c-.366.824-.273.855-.755-.234l-.225-.528h-.708l.545 1.088c.528 1.058.544 1.104.544 1.672v.583h.544v-.622z" fill="#534A3F"/><path d="M9.072 30.653c.07-.357.334-1.827.63-3.522l.505-2.876c.132-.708.458-2.566.73-4.136.304-1.734.553-2.947.638-3.087.264-.443.404-.474 2.193-.474H15.4l.856 1.539c2.752 4.921 3.42 6.095 3.483 6.088.085 0 .1-.11.777-3.934.28-1.625.56-3.04.614-3.15.055-.108.18-.264.273-.349.155-.14.303-.155 1.834-.179.918-.015 1.664-.015 1.664 0 0 .039-.373 2.154-.66 3.794l-.467 2.644c-1.252 7.152-1.229 7.06-1.4 7.386-.233.443-.318.466-2.029.466h-1.57l-2.232-4.02a491.435 491.435 0 0 0-2.278-4.081c-.03-.031-.31 1.423-.63 3.226-.746 4.316-.746 4.308-1.057 4.619l-.256.256H9.024l.047-.21zM23.93 30.498c.03-.21.155-.933.271-1.617.125-.684.35-1.96.506-2.838l.466-2.644c.102-.575.381-2.169.622-3.53.241-1.368.482-2.596.545-2.744a1.09 1.09 0 0 1 .365-.412c.257-.155.35-.155 7.363-.132l7.106.015.972 2.193c.536 1.205 1.003 2.177 1.034 2.154.03-.016.832-1.011 1.78-2.208l1.726-2.177h7.806c4.393 0 7.806.03 7.806.07 0 .295-.482 2.542-.59 2.713-.25.428-.32.443-2.217.466l-1.757.024-.132.754c-.28 1.61-.684 3.91-.863 4.914-.101.575-.334 1.873-.505 2.876-.342 1.913-.443 2.224-.817 2.395-.132.062-.738.093-1.78.093h-1.578l.225-1.26c.124-.699.342-1.966.498-2.822.147-.855.357-2.029.458-2.604.102-.575.311-1.757.46-2.628.155-.87.279-1.61.279-1.648 0-.047-1.073-.078-2.814-.078h-2.823l-1.562 1.85-1.563 1.843 1.811 3.63c1.003 2.007 1.82 3.655 1.82 3.678 0 .024-.988.031-2.193.024l-2.184-.024-.53-1.127c-1.375-2.923-1.655-3.499-1.702-3.499-.031 0-.925 1.05-1.982 2.333l-1.929 2.332H23.875l.054-.365zm12.991-3.133 2.66-3.11c.31-.366.551-.716.543-.786-.046-.248-3.133-6.445-3.218-6.445-.047 0-.156.435-.257 1.019-.179 1.111-.288 1.4-.606 1.601-.187.125-.53.14-3.36.179l-3.156.039-.17.933a28.01 28.01 0 0 0-.18 1.073c0 .124.21.132 3.305.132 2.596 0 3.304.023 3.304.101-.008.334-.459 2.472-.568 2.667-.248.49-.334.497-3.662.497-1.648 0-3 .024-3 .063 0 .03-.086.544-.195 1.135-.109.598-.194 1.12-.194 1.158 0 .031 1.524.055 3.382.039 2.962-.023 3.382-.008 3.382.093 0 .063-.086.591-.195 1.167-.108.575-.194 1.08-.194 1.127 0 .109.062.039 2.38-2.682zM66.131 9.21c0-.17.016-.233.031-.132.016.094.016.233 0 .311-.023.07-.039-.008-.031-.179zM65.097 7.531c-.132-.101-.14-.132-.039-.078.257.132.397.241.311.241-.039 0-.163-.077-.272-.163zM6.63 5.953c0-.024.11-.094.234-.164.132-.07.233-.1.233-.085 0 .023-.101.093-.233.163-.125.07-.234.101-.234.086zM29.9.098a.799.799 0 0 1 .273 0c.07.024.007.04-.14.04-.148 0-.21-.016-.133-.04zM38.92.098a.799.799 0 0 1 .271 0c.07.024.008.04-.14.04-.147 0-.21-.016-.132-.04zM31.183.02c.094-.015.25-.015.35 0 .093.016.016.032-.179.032-.194 0-.272-.016-.17-.031zM32.038.02c.094-.015.25-.015.35 0 .094.016.016.032-.178.032-.195 0-.273-.016-.172-.031zM37.559.02c.093-.015.248-.015.35 0 .093.016.015.032-.18.032-.194 0-.271-.016-.17-.031z" fill="#534A3F"/><path d="M34.27 79.891c-.086-.054-.607-.404-1.166-.77-1.306-.855-2.527-1.749-4.16-3.04-1.407-1.12-2.503-2.06-4.16-3.545-.878-.793-4.423-4.385-5.286-5.365-1.353-1.531-1.827-2.075-2.014-2.316a3 3 0 0 0-.202-.25c-.031-.03-.94-1.173-1.734-2.176-.746-.949-2.208-3.001-3.118-4.393-2.635-4.012-4.641-7.72-6.476-12.012-2.185-5.093-3.95-11.102-4.805-16.366-.109-.637-.225-1.337-.272-1.555-.039-.21-.124-.863-.194-1.438S.527 25.39.488 25.11c-.295-1.983-.49-6.391-.45-10.084.03-2.791.046-3.063.17-3.203.164-.18 1.276-.941 1.369-.941.039 0 .046 1.026.023 2.278-.046 2.216.062 5.753.21 7.13.039.365.124 1.236.194 1.943.218 2.208.778 5.598 1.314 7.97.428 1.873 1.081 4.229 1.579 5.73l.202.606.28-.226c.49-.38 1.127-.622 2.317-.878.707-.148 1.12-.163 5.543-.218 2.628-.039 5.232-.101 5.777-.14 2.231-.186 7.121-.272 15.332-.28 8.358-.008 12.245.062 15.471.28.731.055 3.421.093 5.987.101 3.934.016 4.79.031 5.49.148 1.002.155 1.81.373 2.34.63.248.116.435.163.474.124.163-.163 1.29-4.183 1.695-6.033.551-2.527 1.065-5.691 1.275-7.814.062-.66.147-1.516.194-1.905.148-1.454.249-4.812.21-7.09-.023-1.299-.008-2.356.023-2.356.093 0 1.213.77 1.368.94.133.14.14.405.172 3.18.062 5.295-.234 9.377-1.003 14.073-1.229 7.503-3.662 14.928-7.075 21.583-.646 1.26-1.765 3.32-2.045 3.763-.093.148-.358.59-.591.972-.622 1.057-2.076 3.288-2.83 4.354-.365.513-1.773 2.433-1.967 2.682-.171.21-1.508 1.897-1.757 2.216-.14.163-.358.427-.49.583-.132.148-.342.389-.467.536-1.461 1.719-5.069 5.466-6.523 6.772-3.187 2.877-5.994 5.085-8.59 6.772-1.198.785-1.16.77-1.44.583zm.754-7.168c.272-.148.614-.35.762-.444.272-.163 2.286-1.492 2.643-1.741 3.235-2.27 5.894-4.525 8.91-7.526 1.073-1.065 2.208-2.224 2.52-2.566.683-.762 2.736-3.18 3.195-3.786a110.606 110.606 0 0 0 1.648-2.161c.07-.11.342-.49.599-.856.91-1.282 1.252-1.803 1.213-1.842-.016-.024-.39 0-.825.046-.427.047-.831.086-.901.086-.078 0 0-.171.248-.521.195-.295.358-.536.366-.544.008-.008 0 .179-.008.412l-.031.42.225-.04c.117-.015.731-.054 1.361-.077 2.301-.085 3.172-.435 3.172-1.29 0-1.09-1.57-2.084-3.918-2.48l-.762-.125-.272.233c-.148.132-.374.435-.506.669-.14.233-.28.45-.319.474-.038.023-.054.07-.038.093.007.024-.07.156-.187.304-.117.14-.342.443-.505.66-.335.46-.755.684-1.12.607-.482-.11-.816-.817-.902-1.92l-.047-.591-.303-.14c-.342-.156-.52-.156-2.472-.04-3.654.218-6.974.28-15.355.28-5.901 0-9.346-.038-10.69-.1-2.123-.11-3.22-.203-3.515-.32l-.179-.07.195-.077c.147-.062-.14-.086-1.12-.086-1.174-.007-1.298.008-1.213.117.086.101.062.156-.179.397-.256.24-.287.318-.287.66 0 .661-.272.996-.809.996-.24 0-.319-.055-.59-.397a3.287 3.287 0 0 0-.607-.59 7.705 7.705 0 0 1-.482-.366 2.253 2.253 0 0 0-.428-.28c-.124-.062-.272-.163-.319-.226-.07-.093-.163-.093-.575-.015-1.57.311-2.83 1.073-3.149 1.897-.264.692.07 1.244.902 1.485.381.117 1.672.249 3.009.303.645.031.653.031.614-.155-.015-.094-.023-.18-.015-.18.039 0 .357.56.334.584a8.016 8.016 0 0 1-.723-.054c-1.143-.11-1.128-.125-.669.56.218.318.599.878.863 1.243.257.366.529.747.599.856.995 1.407 3.607 4.61 4.991 6.103.56.598 3.794 3.833 4.4 4.393 1.65 1.531 4.168 3.591 5.87 4.812 1.338.972 3.072 2.138 3.624 2.457.124.07.45.257.73.428.28.163.514.303.522.303.007.008.24-.117.505-.272zm-7.643-29.49c.451-.233.506-.342.28-.552l-.186-.171-.21.163c-.233.187-.708.218-.91.07-.288-.218-.35-1.648-.085-2.06.147-.241.552-.303.933-.14.287.116.303.116.435-.055.187-.24.179-.256-.124-.404-.405-.187-1.128-.163-1.454.054-.428.28-.576.67-.576 1.532 0 .863.148 1.252.576 1.532.334.225.91.24 1.321.03zm-4.983-.296.109-.334h1.205l.1.35c.094.334.11.35.397.35.171 0 .303-.039.303-.086 0-.054-.233-.8-.513-1.671l-.52-1.586h-.716l-.56 1.68-.56 1.67.32-.023c.303-.023.326-.046.435-.35zm7.044.016.093-.311.622-.023.622-.024.093.358c.094.342.101.35.405.35.17 0 .31-.023.31-.047 0-.023-.233-.777-.52-1.671l-.521-1.625h-.731l-.529 1.578c-.287.863-.536 1.617-.56 1.672-.023.077.047.093.296.077.319-.023.342-.039.42-.334zm5.17.21c.498-.249.59-.467.614-1.438.04-1.439-.202-1.695-1.671-1.75l-.879-.039v3.367h.84c.637 0 .894-.031 1.096-.14zm3.895-.093v-.234h-1.322v-.933H38.352v-.544H37.185v-.855h1.322v-.544h-.925c-.513 0-.949.03-.972.07-.023.038-.023.785.008 1.671l.046 1.602h1.843v-.233zm1.874-.25c.008-.271.031-.854.062-1.305l.047-.817.334 1.05c.459 1.454.428 1.4.746 1.4.304 0 .226.14.77-1.478l.327-.972.046 1.089c.031.598.055 1.181.063 1.306.007.194.03.21.318.21.288 0 .311-.016.28-.171-.023-.101-.062-.614-.085-1.15a32.094 32.094 0 0 0-.094-1.501l-.046-.53-.389.024-.397.024-.373 1.088c-.202.599-.38 1.127-.396 1.166-.016.047-.202-.459-.412-1.104l-.381-1.19H40l-.047.335c-.023.179-.062.816-.085 1.415-.024.599-.063 1.205-.086 1.345-.039.249-.03.249.28.249h.311l.008-.482zm5.512-.14c0-.621 0-.621.552-1.678l.552-1.05-.365.023-.358.024-.326.723c-.366.824-.273.855-.755-.234l-.225-.528h-.708l.545 1.088c.528 1.057.544 1.104.544 1.672v.583h.544v-.622z" fill="#564E6A"/><path d="M46.36 62.025c.319-.35.389-.412.389-.35 0 .015-.164.179-.366.365l-.373.35.35-.365zM22.77 41.694c.063-.21.149-.506.203-.661.047-.164.109-.296.14-.296.023 0 .14.296.249.661l.194.66h-.902l.117-.364zM29.768 41.849c.031-.124.133-.443.226-.723l.17-.505.21.668c.11.366.203.684.203.715 0 .032-.195.055-.428.055-.427 0-.427 0-.38-.21zM33.298 41.678v-1.174h.459c.723 0 .816.117.847 1.073.031.715.016.785-.155.98-.148.178-.265.217-.669.256l-.482.047v-1.182zM9.08 30.692c.038-.163.295-1.617 1.096-6.165.746-4.284 1.213-6.873 1.29-7.169.04-.17.18-.42.311-.544l.226-.218 1.695-.023 1.687-.023 1.47 2.628c.808 1.446 1.787 3.195 2.168 3.895.39.692.724 1.26.755 1.26.023 0 .1-.358.17-.794.07-.443.257-1.485.405-2.317.148-.831.358-2.037.474-2.682.35-2.014.311-1.982 2.504-1.982h1.586l-.047.217c-.023.117-.567 3.172-1.205 6.796-.637 3.615-1.22 6.686-1.29 6.818-.218.428-.413.474-2.084.474h-1.5l-2.294-4.128-2.286-4.129-.093.53c-.094.567-.171.994-.801 4.578-.218 1.244-.428 2.364-.475 2.504-.046.14-.186.342-.31.45l-.242.195H9.041l.039-.17zM23.914 30.614c.84-4.991 2.34-13.232 2.464-13.489.28-.606-.24-.567 7.713-.552l7.09.023.436 1.011c.241.56.544 1.236.669 1.516.132.28.373.809.536 1.182.163.373.327.66.358.637.03-.015.832-1.01 1.78-2.207l1.726-2.177h7.806c4.393 0 7.806.03 7.806.07 0 .295-.482 2.542-.59 2.713-.25.428-.32.443-2.217.466l-1.757.024-.132.754c-.28 1.61-.684 3.91-.863 4.914-.101.575-.334 1.873-.505 2.876-.342 1.913-.443 2.224-.817 2.395-.132.062-.738.093-1.78.093h-1.578l.225-1.26c.124-.7.342-1.966.498-2.822.147-.855.357-2.029.458-2.604.102-.575.311-1.757.46-2.628.155-.87.279-1.61.279-1.648 0-.047-1.073-.078-2.814-.078h-2.823l-1.562 1.85-1.563 1.843 1.811 3.63c1.003 2.007 1.82 3.655 1.82 3.678 0 .024-.988.031-2.193.024l-2.185-.024-.691-1.477c-.382-.809-.887-1.874-1.12-2.363l-.42-.887-.171.226a3.547 3.547 0 0 1-.218.264c-.023.023-.272.319-.544.66-.28.343-.536.662-.583.708-.039.047-.599.716-1.244 1.493l-1.158 1.415H23.868l.046-.249zm11.685-1.702c1.034-1.205 3.546-4.136 3.896-4.549.178-.21.412-.482.513-.606l.194-.225-.56-1.136a607.84 607.84 0 0 1-1.601-3.25c-.576-1.166-1.089-2.122-1.135-2.122-.047 0-.14.327-.21.762-.195 1.135-.21 1.197-.343 1.477-.248.529-.178.521-3.677.544l-3.164.024-.164.956a17.328 17.328 0 0 0-.17 1.088c0 .117.303.125 3.304.125 1.819 0 3.304.031 3.304.062 0 .062-.101.622-.194 1.104-.024.109-.078.42-.125.7-.109.669-.194.87-.466 1.135l-.233.226-3.11.023a195.23 195.23 0 0 0-3.103.039c0 .007-.085.505-.194 1.096a20.248 20.248 0 0 0-.194 1.197c0 .086.567.101 3.382.078 2.962-.023 3.382-.008 3.382.093 0 .063-.047.366-.11.661-.116.552-.147.746-.24 1.36l-.055.35.226-.24c.117-.125.497-.568.847-.972zM62.205 5.86c-.296-.156-.28-.218.015-.07.133.07.234.14.234.155 0 .054-.008.047-.25-.086zM32.039.02c.093-.015.233-.015.31 0 .07.024-.007.04-.178.032-.171 0-.233-.016-.132-.031zM36.703.02c.094-.015.25-.015.35 0 .094.016.016.032-.178.032-.195 0-.273-.016-.172-.031z" fill="#564E6A"/><path d="M34.27 79.891c-.086-.054-.607-.404-1.166-.77-1.306-.855-2.527-1.749-4.16-3.04-1.407-1.12-2.503-2.06-4.16-3.545-.878-.793-4.423-4.385-5.286-5.365-1.353-1.531-1.827-2.075-2.014-2.316a3 3 0 0 0-.202-.25c-.031-.03-.94-1.173-1.734-2.176-.746-.949-2.208-3.001-3.118-4.393-2.635-4.012-4.641-7.72-6.476-12.012-2.185-5.093-3.95-11.102-4.805-16.366-.109-.637-.225-1.337-.272-1.555-.039-.21-.124-.863-.194-1.438S.527 25.39.488 25.11c-.295-1.983-.49-6.391-.45-10.084.03-2.791.046-3.063.17-3.203.164-.18 1.276-.941 1.369-.941.039 0 .046 1.026.023 2.278-.046 2.216.062 5.753.21 7.13.039.365.124 1.236.194 1.943.218 2.208.778 5.598 1.314 7.97.428 1.873 1.081 4.229 1.579 5.73l.202.606.287-.233c.164-.125.451-.296.646-.381.544-.234 1.874-.537 2.737-.622 1.438-.148 23.542-.218 41.44-.133 8.412.047 10.332.07 11.016.172 1.05.14 1.866.35 2.395.606.256.124.45.17.49.132.163-.163 1.29-4.183 1.695-6.033.551-2.527 1.065-5.691 1.275-7.814.062-.66.147-1.516.194-1.905.148-1.454.249-4.812.21-7.09-.023-1.299-.008-2.356.023-2.356.101 0 1.213.77 1.376.949.133.147.14.38.14 4.213 0 4.704-.093 6.477-.552 10.077-1.096 8.692-3.63 16.988-7.502 24.537-.646 1.26-1.765 3.32-2.045 3.763-.093.148-.358.59-.591.972-.622 1.057-2.076 3.288-2.83 4.354-.365.513-1.773 2.433-1.967 2.682-.171.21-1.508 1.897-1.757 2.216-.14.163-.358.427-.49.583-.132.148-.342.389-.467.536-1.461 1.719-5.069 5.466-6.523 6.772-3.187 2.877-5.994 5.085-8.59 6.772-1.198.785-1.16.77-1.44.583zm.754-7.168c.272-.148.614-.35.762-.444.272-.163 2.286-1.492 2.643-1.741 3.235-2.27 5.894-4.525 8.91-7.526 1.073-1.065 2.208-2.224 2.52-2.566.683-.762 2.736-3.18 3.195-3.786a110.606 110.606 0 0 0 1.648-2.161c.07-.11.342-.49.599-.856.91-1.282 1.252-1.803 1.213-1.842-.016-.024-.39 0-.825.046-1.05.117-1.072.117-.932-.03.085-.086.52-.133 1.788-.195 2.262-.117 2.939-.264 3.39-.754.373-.405.163-1.22-.451-1.78-.786-.708-3.103-1.431-4.58-1.431-.38 0-.505.039-.8.24-.475.335-.988.39-1.478.148-.194-.093-.357-.217-.357-.28 0-.1-.498-.108-3.592-.085-1.983.016-3.896.07-4.261.117-2.62.334-17.377.373-18.247.039-.117-.047-.117-.055.023-.11.078-.03-2.38-.062-5.458-.062-4.665-.007-5.645.008-5.823.102-.226.116-.28.116-.583-.008-.397-.164-2.426.287-3.39.754-.723.35-1.151.715-1.384 1.182-.272.544-.265.84.03 1.181.428.49 1.035.63 3.18.747 1.237.062 1.696.14 1.556.257-.016.015-.342 0-.731-.04-1.143-.108-1.128-.124-.669.56.218.32.599.879.863 1.244.257.366.529.747.599.856.995 1.407 3.607 4.61 4.991 6.103.56.598 3.794 3.833 4.4 4.393 1.65 1.531 4.168 3.591 5.87 4.812 1.338.972 3.072 2.138 3.624 2.457.124.07.45.257.73.428.28.163.514.303.522.303.007.008.24-.117.505-.272zm-7.44-29.607.287-.225-.194-.195-.194-.194-.21.171c-.218.163-.685.218-.863.101-.203-.132-.28-.459-.28-1.096 0-.84.077-1.057.427-1.166.218-.07.335-.07.607.03.326.11.35.11.482-.046.179-.218.17-.249-.11-.412-.147-.085-.396-.14-.676-.148-.77-.007-1.181.335-1.345 1.097-.108.52-.046 1.391.11 1.702.124.233.411.521.598.591.062.031.334.04.59.031.39-.015.537-.062.77-.24zm-5.178-.163.085-.35h1.221l.1.35c.102.35.102.35.444.35.186 0 .326-.023.31-.055-.022-.038-.271-.785-.551-1.671l-.521-1.617h-.761l-.234.762c-.132.412-.373 1.166-.544 1.671l-.311.91h.334c.334 0 .342 0 .427-.35zm7.051 0 .086-.311h1.213l.116.334c.101.311.125.327.412.327.164 0 .304-.023.304-.055 0-.03-.234-.785-.521-1.679l-.521-1.617-.381.023-.381.024-.537 1.632c-.295.902-.536 1.64-.536 1.656 0 .016.148.016.326 0 .311-.023.335-.039.42-.334zm5.248.171c.412-.272.568-.676.568-1.454.008-1.392-.35-1.71-1.874-1.71h-.723v3.343h.886c.786 0 .91-.016 1.143-.179zm3.802-.054v-.234h-1.322v-.933h1.244v-.544h-1.244v-.855h1.322v-.544h-1.944v3.343h1.944v-.233zm1.89-.521c.03-.42.054-1.003.054-1.306.008-.661.03-.615.474.8l.342 1.112.303-.023.311-.023.343-1.089c.186-.599.373-1.12.412-1.158.038-.047.07.28.07.824 0 .49.023 1.057.046 1.26.055.357.055.357.358.357h.31l-.046-.288a20.926 20.926 0 0 1-.085-1.306 28.121 28.121 0 0 0-.086-1.376l-.047-.373h-.8l-.39 1.174-.388 1.166-.389-1.166-.38-1.174h-.405c-.49 0-.466-.063-.536 1.516a30.239 30.239 0 0 1-.086 1.461l-.046.366h.614l.046-.754zm5.496.17c0-.567.016-.614.544-1.679l.553-1.088-.366.023-.365.024-.327.715-.319.707-.31-.707-.312-.715-.365-.024-.373-.023.513 1.01c.505 1.011.505 1.02.505 1.68v.66h.622v-.582z" fill="#69708A"/><path d="M22.849 41.46c.1-.334.186-.63.186-.66.008-.32.467.847.467 1.181 0 .04-.187.078-.42.078h-.42l.187-.599zM29.73 42.005c0-.04.1-.358.217-.724l.218-.66.202.668c.116.366.21.684.21.715 0 .032-.195.055-.428.055-.233 0-.427-.023-.42-.054zM33.298 41.623v-1.135l.505.032c.716.046.77.116.801 1.057.024.676.016.777-.14.972-.147.186-.217.21-.668.21h-.498v-1.136zM23.914 30.614c.84-4.991 2.34-13.232 2.464-13.489.28-.606-.24-.567 7.697-.552l7.083.023.964 2.17c.537 1.197.988 2.184 1.003 2.208.024.015.832-.972 1.804-2.193l1.765-2.223H62.314l-.047.217c-.023.117-.117.63-.202 1.143-.21 1.198-.264 1.369-.552 1.64l-.233.226-1.789.023c-.987.016-1.78.055-1.78.094 0 .07-.062.412-.739 4.237-.318 1.835-.793 4.502-.971 5.536-.094.536-.327.98-.584 1.096-.132.062-.723.093-1.772.093h-1.579l.957-5.38c.52-2.962.948-5.45.956-5.52 0-.132-.187-.14-2.822-.14h-2.815l-1.562 1.85-1.563 1.843 1.811 3.63c1.003 2.007 1.82 3.655 1.82 3.678 0 .024-.98.04-2.177.04h-2.177l-.187-.405c-.1-.226-.552-1.182-.995-2.123l-.925-1.959c-.055-.14-.125-.256-.148-.249-.023 0-.91 1.066-1.975 2.372l-1.943 2.363H23.868l.046-.249zm13.645-3.973 2.643-3.102-1.337-2.729c-1.897-3.864-1.858-3.786-1.967-3.786a.103.103 0 0 0-.101.101c0 .047-.086.537-.187 1.08-.21 1.128-.365 1.416-.809 1.54-.17.047-1.469.078-3.288.078H29.52l-.172.964a17.328 17.328 0 0 0-.17 1.088c0 .117.303.125 3.311.125h3.313l-.047.218c-.024.116-.117.63-.202 1.142-.21 1.198-.265 1.369-.552 1.641l-.233.226-3.11.023c-1.703.015-3.103.03-3.103.039 0 .007-.085.505-.194 1.096a21.711 21.711 0 0 0-.194 1.19c0 .077.653.1 3.382.1 1.858 0 3.382.024 3.382.063 0 .03-.086.52-.195 1.096-.24 1.314-.248 1.337-.007 1.096.1-.109 1.376-1.586 2.83-3.288z" fill="#69708A"/><path d="M34.27 79.891c-.086-.054-.607-.404-1.166-.77-1.306-.855-2.527-1.749-4.16-3.04-1.407-1.12-2.503-2.06-4.16-3.545-.878-.793-4.423-4.385-5.286-5.365-1.353-1.531-1.827-2.075-2.014-2.316a3 3 0 0 0-.202-.25c-.031-.03-.94-1.173-1.734-2.176-.746-.949-2.208-3.001-3.118-4.393-2.635-4.004-4.641-7.728-6.476-12.012-2.185-5.085-3.95-11.102-4.805-16.366-.109-.637-.225-1.337-.272-1.555-.039-.21-.124-.863-.194-1.438S.527 25.39.488 25.11c-.295-1.983-.49-6.391-.45-10.084.03-2.791.046-3.063.17-3.203.164-.18 1.276-.941 1.369-.941.039 0 .046 1.026.023 2.278-.046 2.216.062 5.753.21 7.13.039.365.124 1.236.194 1.943.218 2.208.778 5.598 1.314 7.97.428 1.873 1.081 4.229 1.579 5.73l.202.606.287-.233a3.44 3.44 0 0 1 .63-.374c.513-.217 1.952-.544 2.83-.63 1.43-.147 22.57-.217 40.585-.132 11.265.055 11.63.07 13.077.397.311.078.552.163.529.194-.016.031.116.117.295.203.179.077.428.21.544.287.156.109.218.117.203.047-.016-.062.015-.18.062-.265.202-.365 1.29-4.276 1.663-5.986.552-2.527 1.066-5.691 1.276-7.814.062-.66.147-1.516.194-1.905.148-1.454.249-4.812.21-7.09-.023-1.299-.008-2.356.023-2.356.101 0 1.213.77 1.376.949.133.147.14.38.14 4.213 0 4.704-.093 6.477-.552 10.077-1.096 8.692-3.63 16.988-7.502 24.537-.646 1.26-1.765 3.32-2.045 3.763-.093.148-.358.59-.591.972-.622 1.057-2.076 3.288-2.83 4.354-.365.513-1.773 2.433-1.967 2.682-.171.21-1.508 1.897-1.757 2.216-.14.163-.358.427-.49.583-.132.148-.342.389-.467.536-1.461 1.719-5.069 5.466-6.523 6.772-3.14 2.83-6.033 5.108-8.59 6.772-1.198.785-1.16.77-1.44.583zm.645-7.098c.7-.39 2.597-1.61 3.514-2.255 3.235-2.27 5.894-4.525 8.91-7.526 1.073-1.065 2.208-2.224 2.52-2.566.683-.762 2.736-3.18 3.195-3.786a110.606 110.606 0 0 0 1.648-2.161c.07-.11.342-.49.599-.856.902-1.275 1.252-1.803 1.213-1.842-.016-.024-.413 0-.871.046-.459.047-.855.063-.879.04-.116-.11.28-.18 1.384-.218 2.317-.101 3.25-.28 3.709-.708.225-.218.264-.303.264-.614 0-1.026-1.065-1.835-3.149-2.395l-.933-.256h-5.675c-4.05 0-5.901.03-6.453.093-2.605.326-16.74.365-17.727.047l-.155-.047.155-.062c.086-.031-2.589-.063-5.948-.063-5.03-.007-6.227.016-6.803.11-2.021.326-3.436 1.026-3.88 1.912-.45.917-.108 1.446 1.128 1.742.272.062 1.182.155 2.014.202 1.322.07 1.757.14 1.625.248-.016.016-.342 0-.731-.038-1.143-.11-1.128-.125-.669.56.218.318.599.878.863 1.243.257.366.529.747.599.856.995 1.407 3.607 4.61 4.991 6.103.56.598 3.794 3.833 4.4 4.393 1.65 1.531 4.168 3.591 5.87 4.812 1.338.972 3.072 2.138 3.624 2.457.124.07.45.257.73.428.28.163.514.303.53.303.015.008.186-.086.388-.202zm27.173-27.585c1.64-3.833 2.348-5.676 2.496-6.492.062-.342.326-.941-2.356 5.31-1.913 4.455-2.247 5.295-2.177 5.434.047.086.109.125.148.094.031-.04.886-1.99 1.89-4.346zm-2.884 1.15c.42-1.05.746-1.928.73-1.943-.015-.016-.38.847-.808 1.92-.428 1.065-.754 1.944-.73 1.944.03 0 .396-.863.808-1.92zm1.034-2.589c.109-.272.178-.505.163-.52-.031-.032-.435.94-.435 1.041 0 .117.093-.062.272-.52zm-37.833-.793.117-.373h1.198l.093.389.093.389h.35c.319 0 .342-.016.295-.171-.03-.102-.28-.871-.56-1.71l-.497-1.54h-.761l-.553 1.671c-.295.918-.544 1.687-.544 1.71 0 .032.148.04.326.024.32-.023.335-.039.444-.389zm4.93.296c.14-.055.31-.171.38-.257.133-.148.133-.155-.046-.326l-.194-.18-.21.164c-.303.241-.754.218-.957-.039-.14-.179-.163-.319-.163-.94 0-.693.07-1.004.265-1.128.132-.093.637-.07.855.031.17.07.225.062.357-.054.086-.078.156-.187.156-.241 0-.35-1.29-.513-1.695-.21-.342.249-.544.622-.606 1.088-.125.995.132 1.835.622 2.076.303.148.901.156 1.236.016zm2.114-.28.133-.397.59.024.591.023.11.373c.1.358.108.366.411.366.226 0 .304-.032.304-.125 0-.07-.234-.84-.521-1.71l-.529-1.594-.381.023-.389.024-.528 1.632c-.288.902-.53 1.656-.53 1.695 0 .031.14.055.304.055.296 0 .311-.008.436-.39zm5.178.202c.172-.078.35-.257.467-.459.163-.287.187-.427.187-1.104 0-.855-.11-1.15-.53-1.47-.186-.14-.349-.17-1.15-.194l-.925-.023v3.46l.84-.039c.56-.023.925-.078 1.111-.171zm3.88-.086v-.272h-1.322v-.933h1.244v-.544h-1.244v-.855h1.322v-.544h-1.944v1.656c0 .917.024 1.687.055 1.71.023.031.466.055.972.055h.917v-.273zm1.874.024c.008-.14.031-.731.062-1.306l.047-1.05.389 1.19.38 1.19.311-.024.311-.023.366-1.12c.412-1.275.459-1.26.459.218 0 1.12.023 1.174.404 1.174h.31l-.046-.405a34.694 34.694 0 0 1-.085-1.54c-.063-1.562-.04-1.476-.529-1.476h-.412l-.381 1.174-.389 1.166-.389-1.174-.388-1.174-.428.023-.427.024-.055.932c-.023.514-.07 1.276-.093 1.696l-.047.754h.311c.296 0 .311-.008.319-.25zm5.512-.373c0-.615.008-.638.544-1.71l.545-1.09h-.708l-.326.716-.327.708-.326-.708-.327-.715h-.7l.498 1.018c.498 1.003.505 1.034.505 1.664 0 .35.024.66.055.684.023.031.163.055.31.055h.257v-.622zm15.27-1.322c.023-.109-.023-.054-.101.117-.086.17-.156.35-.156.388 0 .117.203-.287.257-.505z" fill="#976767"/><path d="M9.08 30.692c.038-.163.295-1.617 1.096-6.165.746-4.284 1.213-6.873 1.29-7.169.04-.17.18-.42.311-.544l.226-.218 1.695-.023 1.687-.023 1.47 2.628c.808 1.446 1.787 3.195 2.168 3.895.39.692.724 1.26.755 1.26.023 0 .1-.358.17-.794.07-.443.257-1.485.405-2.317.148-.832.358-2.037.474-2.682.35-2.014.311-1.982 2.504-1.982h1.586l-.047.217c-.023.117-.567 3.172-1.205 6.795-.637 3.616-1.22 6.687-1.29 6.819-.218.428-.413.474-2.084.474h-1.5l-2.294-4.128c-1.26-2.278-2.294-4.09-2.302-4.028-.373 2.185-1.298 7.332-1.353 7.51a1.24 1.24 0 0 1-.31.452l-.242.194H9.041l.039-.17zM23.914 30.614c.84-4.991 2.34-13.232 2.464-13.489.28-.606-.24-.567 7.697-.552l7.083.023.98 2.2c.537 1.206 1.003 2.193 1.026 2.193.024-.008.832-1.003 1.788-2.216l1.75-2.215h15.612l-.047.217c-.031.117-.132.7-.241 1.29-.311 1.742-.264 1.711-2.581 1.742-.957.016-1.734.047-1.734.063 0 .28-1.827 10.309-1.913 10.457a1.283 1.283 0 0 1-.31.373c-.195.155-.304.163-1.789.163-1.462 0-1.586-.008-1.586-.132.008-.078.435-2.566.956-5.52l.957-5.388h-5.692l-1.562 1.843-1.563 1.85 1.82 3.63c1.002 2.007 1.819 3.655 1.819 3.678 0 .024-.98.031-2.177.024l-2.177-.024-.661-1.4c-.365-.769-.863-1.826-1.104-2.347-.249-.529-.467-.956-.49-.949-.023 0-.91 1.066-1.975 2.372l-1.943 2.363H23.868l.046-.249zm13.645-3.973 2.643-3.102-1.337-2.729c-1.967-4.011-1.96-3.996-2.014-3.825-.031.086-.132.614-.24 1.182-.21 1.166-.358 1.454-.81 1.578-.17.047-1.469.078-3.288.078H29.52l-.172.964a17.328 17.328 0 0 0-.17 1.088c0 .117.303.125 3.311.125h3.313l-.047.218c-.024.116-.117.63-.202 1.142-.21 1.198-.265 1.369-.552 1.641l-.233.226-3.11.023c-1.703.015-3.103.03-3.103.039 0 .007-.085.505-.194 1.096a21.711 21.711 0 0 0-.194 1.19c0 .077.653.1 3.382.1 1.858 0 3.382.024 3.382.063 0 .03-.086.52-.195 1.096-.24 1.314-.248 1.337-.007 1.096.1-.109 1.376-1.586 2.83-3.288z" fill="#976767"/><path d="M33.873 79.627c-.334-.21-.77-.49-.964-.622-.194-.14-.614-.428-.933-.653-1.578-1.089-4.424-3.343-5.916-4.68-.195-.18-.653-.584-1.011-.903-1.508-1.337-4.852-4.773-6.29-6.453a44.297 44.297 0 0 0-.886-1.01c-.18-.195-.42-.482-.552-.653a381.392 381.392 0 0 0-1.742-2.185c-.7-.84-3.133-4.354-4.206-6.065-1.897-3.032-4.05-7.129-5.248-9.99a36.35 36.35 0 0 0-.35-.816C5.2 44.306 3.948 40.853 3.35 38.91c-1.003-3.304-1.827-6.81-2.324-9.952-.778-4.913-1.05-8.723-.988-13.97.024-2.224.055-3.033.133-3.119.1-.132 1.345-.987 1.422-.987.024 0 .031 1.026.008 2.278-.047 2.192.062 5.753.21 7.13.039.365.093.925.117 1.243.054.692.256 2.465.318 2.862.024.163.133.832.234 1.492.233 1.47.49 2.87.684 3.693.357 1.548.832 3.406 1.158 4.51.062.217.202.707.319 1.088.117.389.241.77.28.855.039.086.093.234.117.335l.054.17.288-.232c.163-.125.45-.296.637-.374.474-.202 1.913-.536 2.752-.63.482-.062 8.7-.085 26.124-.085 21.56 0 25.548.023 26.24.117 1.003.132 1.951.35 1.905.427-.016.031.116.117.295.203.179.077.428.21.544.287.156.109.218.117.202.047-.015-.062.016-.179.063-.265.202-.365 1.29-4.276 1.663-5.986.552-2.527 1.066-5.691 1.275-7.814.063-.66.148-1.516.195-1.905.148-1.453.249-4.812.21-7.09-.023-1.299-.008-2.356.023-2.356.101 0 1.213.77 1.376.949.132.147.14.38.14 4.213 0 4.735-.093 6.4-.552 10.077-.972 7.767-3.024 14.966-6.274 22.002-.894 1.944-2.628 5.272-3.273 6.298-.094.148-.358.59-.591.972-.622 1.057-2.076 3.288-2.83 4.354a225.6 225.6 0 0 1-1.967 2.682c-.055.062-.412.52-.801 1.01-1.127 1.416-1.19 1.493-1.446 1.789-.132.148-.342.389-.467.536-1.461 1.719-5.069 5.466-6.523 6.772-3.14 2.83-6.033 5.108-8.59 6.772-.903.59-1.074.692-1.152.692-.038 0-.342-.171-.684-.373zm1.042-6.834c.614-.342 1.096-.646 2.263-1.423 1.57-1.042 2.402-1.625 3.397-2.41.303-.233.669-.513.809-.622.225-.171.933-.739 1.555-1.267 1.959-1.641 5.357-4.899 7.051-6.78 1.408-1.547 3.911-4.634 4.712-5.792.07-.11.342-.49.599-.856.901-1.275 1.251-1.803 1.212-1.842-.015-.023-.411 0-.87.046-.459.047-.855.063-.879.04-.116-.11.28-.18 1.384-.218 2.317-.101 3.25-.28 3.709-.708.225-.218.264-.303.264-.614 0-1.026-1.065-1.835-3.149-2.403l-.933-.248h-7.23c-5.785 0-7.44.023-8.28.116-.786.078-2.162.11-5.482.11-4.291.007-5.629-.047-5.395-.195.062-.04-3.118-.07-7.705-.07-6.523 0-7.93.023-8.514.116-2.021.327-3.436 1.027-3.88 1.913-.45.917-.108 1.446 1.128 1.742.272.062 1.182.155 2.014.202 1.314.07 1.765.14 1.625.248-.016.016-.412-.007-.871-.046s-.855-.054-.879-.031c-.039.039.335.614 1.213 1.842.257.366.529.747.599.856.87 1.244 3.164 4.066 4.634 5.714.606.669 4.284 4.37 4.913 4.945.964.863 2.2 1.92 3.033 2.589.303.249.598.49.66.536.218.18 1.975 1.493 2.488 1.866.28.195.544.39.583.428.14.117 2.333 1.547 2.566 1.68.132.07.459.271.739.435.28.17.513.31.528.31.016 0 .187-.093.39-.21zm27.173-27.585c1.003-2.348 1.882-4.47 1.96-4.704.077-.233.287-.809.481-1.275.187-.467.327-.863.304-.879-.016-.023-.055.04-.086.14-.031.094-.078.133-.109.086-.023-.039-1.088 2.356-2.356 5.326-1.959 4.556-2.3 5.426-2.23 5.559.046.085.108.124.147.093.03-.039.886-1.99 1.89-4.346zm-2.884 1.15c.42-1.05.746-1.928.73-1.943-.015-.016-.38.847-.808 1.92-.428 1.065-.754 1.944-.731 1.944.031 0 .396-.863.809-1.92zm1.034-2.589c.108-.272.178-.505.163-.52-.031-.032-.436.94-.436 1.041 0 .117.094-.062.273-.52zm-37.833-.793.117-.373h1.197l.094.389.093.389h.35c.319 0 .342-.016.295-.171-.03-.102-.28-.871-.56-1.71l-.497-1.54h-.762l-.552 1.671c-.295.918-.544 1.688-.544 1.71 0 .032.148.04.326.024.32-.023.335-.039.444-.389zm4.93.296a1.09 1.09 0 0 0 .38-.257c.133-.148.133-.155-.046-.326l-.194-.18-.21.164c-.303.241-.754.218-.957-.039-.14-.178-.163-.319-.163-.94 0-.692.07-1.003.265-1.128.132-.093.637-.07.855.031.17.07.225.063.357-.054.086-.078.156-.187.156-.241 0-.35-1.29-.513-1.695-.21-.342.249-.544.622-.606 1.088-.125.996.132 1.835.622 2.076.303.148.901.156 1.236.016zm2.114-.28.133-.397.59.024.591.023.11.373c.1.358.108.366.411.366.226 0 .303-.031.303-.125 0-.07-.233-.84-.52-1.71l-.53-1.594-.38.023-.389.024-.529 1.632c-.287.902-.528 1.656-.528 1.695 0 .031.14.055.303.055.296 0 .311-.008.435-.39zm5.178.202c.171-.078.35-.257.467-.459.163-.287.187-.427.187-1.104 0-.855-.11-1.15-.53-1.47-.186-.14-.349-.17-1.15-.194l-.925-.023v3.46l.84-.039c.56-.023.925-.078 1.111-.17zm3.88-.086v-.272h-1.322v-.932h1.244v-.545h-1.244v-.855h1.322v-.544h-1.944v1.656c0 .917.024 1.687.055 1.71.023.031.466.055.972.055h.917v-.273zm1.874.024c.008-.14.03-.731.062-1.306l.047-1.05.388 1.19.381 1.19.311-.024.311-.023.366-1.12c.412-1.275.459-1.26.459.218 0 1.12.023 1.174.404 1.174h.31l-.046-.405a34.713 34.713 0 0 1-.085-1.539c-.063-1.563-.04-1.477-.53-1.477h-.411l-.381 1.174-.389 1.166-.389-1.174-.388-1.174-.428.023-.428.024-.054.933c-.023.513-.07 1.275-.093 1.694l-.047.755h.311c.296 0 .311-.008.319-.25zm5.512-.373c0-.614.008-.638.544-1.71l.545-1.09h-.708l-.326.716-.327.708-.327-.708-.326-.715h-.7l.498 1.018c.497 1.003.505 1.034.505 1.664 0 .35.023.66.055.684.023.031.163.055.31.055h.257v-.622zm15.27-1.322c.023-.109-.023-.054-.101.117-.086.17-.156.35-.156.388 0 .117.202-.287.257-.505z" fill="#EE9703"/><path d="M9.126 30.537c.039-.187.575-3.235 1.197-6.78.622-3.545 1.19-6.546 1.252-6.67.062-.125.226-.296.366-.374.225-.14.396-.155 1.842-.155h1.594l2.123 3.794c1.166 2.083 2.161 3.856 2.208 3.942.07.124.21-.514.723-3.421.38-2.154.684-3.678.77-3.833.225-.428.466-.482 2.184-.482h1.516l-.039.178a578.79 578.79 0 0 0-.7 3.942l-.466 2.644c-.109.575-.42 2.363-.7 3.965-.536 3.047-.614 3.304-1.01 3.483-.133.062-.716.093-1.695.093h-1.493l-2.294-4.136c-1.26-2.278-2.3-4.09-2.317-4.027a562.36 562.36 0 0 1-.676 3.833c-.692 3.934-.738 4.09-1.182 4.26-.1.04-.878.07-1.726.07H9.056l.07-.326zM23.89 30.801c0-.039.086-.536.195-1.112.1-.575.31-1.757.466-2.635.156-.879.381-2.154.506-2.838.116-.684.435-2.488.7-4.004.287-1.656.544-2.892.63-3.087.287-.606-.195-.567 7.704-.567h7.036l.995 2.239c.545 1.228.996 2.239 1.003 2.247.008.007.817-.995 1.796-2.24l1.78-2.246h15.613l-.047.217c-.031.117-.132.7-.241 1.29-.311 1.742-.264 1.711-2.581 1.742-.957.016-1.734.047-1.734.063 0 .28-1.827 10.309-1.913 10.457a1.286 1.286 0 0 1-.31.373c-.195.155-.304.163-1.789.163-1.462 0-1.586-.008-1.586-.132a609.7 609.7 0 0 1 .956-5.52l.957-5.388h-5.692l-1.562 1.843-1.563 1.85 1.82 3.63c1.002 2.007 1.819 3.655 1.819 3.678 0 .024-.98.031-2.177.024l-2.177-.024-.661-1.4c-.365-.769-.863-1.826-1.104-2.347-.249-.529-.467-.956-.49-.956-.023 0-.91 1.073-1.982 2.37l-1.944 2.372h-7.208c-3.972 0-7.215-.03-7.215-.062zm13.52-3.965c2.777-3.258 2.808-3.289 2.699-3.499-.055-.116-.28-.575-.498-1.026-.217-.451-.917-1.874-1.555-3.172L36.89 16.79l-.086.365c-.046.21-.14.692-.21 1.073-.155.894-.233 1.089-.513 1.322l-.233.194h-3.14c-2.442 0-3.157.024-3.18.101-.024.047-.125.56-.226 1.128L29.122 22h6.679l-.046.179c-.024.1-.132.684-.241 1.298-.327 1.866-.055 1.742-3.903 1.773l-3.056.023-.038.171c-.078.366-.35 1.998-.35 2.115 0 .101.38.117 3.39.117h3.39l-.04.178c-.023.094-.116.591-.21 1.104a39.584 39.584 0 0 1-.202 1.128c-.023.124-.015.163.031.116.04-.039 1.338-1.555 2.885-3.366z" fill="#EE9703"/><path d="M54.756 51.863c0-.124.21-.148 1.944-.241 1.127-.054 1.773-.124 2.208-.233.591-.148 1.135-.459 1.135-.638 0-.046.023-.07.047-.046.085.085-.202.42-.49.583-.466.256-1.275.396-2.822.49-.793.046-1.57.1-1.726.132-.195.023-.296.015-.296-.047zM60.129 50.277c-.031-.972-1.135-1.78-3.157-2.333l-.933-.248h-7.23c-5.785 0-7.44.023-8.28.116-.786.078-2.162.11-5.482.11-4.291.007-5.629-.047-5.395-.195.062-.04-3.118-.07-7.705-.07-6.523 0-7.93.023-8.514.116-2.021.327-3.436 1.027-3.88 1.913-.108.225-.201.482-.201.568 0 .194-.078.03-1.128-2.403C6.063 42.83 4.61 38.724 4.61 37.705c.008-.707.52-1.376 1.36-1.75.498-.217 1.898-.551 2.8-.652.481-.063 8.7-.086 26.123-.086 21.56 0 25.548.023 26.24.117 1.003.132 1.951.35 1.904.427-.015.031.117.117.296.203.179.077.428.21.552.295.194.132.225.132.179.023-.024-.07-.008-.147.039-.179.054-.03.062-.023.03.032-.03.046.04.14.14.217.11.07.304.28.436.482.202.303.233.42.233.879 0 .288-.039.552-.085.575-.047.031-.062.109-.04.171.024.062.009.086-.03.062-.047-.023-.078 0-.078.055 0 .07-.016.078-.062.015-.031-.054-1.08 2.302-2.364 5.31-1.959 4.557-2.301 5.427-2.231 5.56.047.085.109.124.148.093.093-.101 3.693-8.56 3.848-9.05.078-.233.241-.684.358-.987.124-.311.202-.622.179-.7-.04-.117-.031-.125.039-.023.07.093.085.1.085.007 0-.062.016-.093.039-.07.117.11-.98 3.297-2.1 6.127-1.337 3.39-2.223 5.434-2.332 5.396-.062-.032-.116.03-.14.14-.023.116-.038.077-.046-.117zm-.925-3.919c.42-1.05.746-1.928.73-1.943-.015-.016-.38.847-.808 1.92-.428 1.065-.754 1.944-.731 1.944.031 0 .396-.863.808-1.92zm1.034-2.589c.108-.272.178-.505.163-.52-.031-.032-.436.94-.436 1.041 0 .117.094-.062.273-.52zm-37.833-.793.117-.373h1.197l.094.389.093.389h.35c.319 0 .342-.016.295-.171-.03-.102-.28-.871-.56-1.71l-.497-1.54h-.762l-.552 1.671c-.296.918-.544 1.687-.544 1.71 0 .032.147.04.326.024.319-.023.335-.039.443-.389zm4.93.296c.14-.055.31-.171.38-.257.133-.148.133-.155-.046-.326l-.194-.18-.21.164c-.304.241-.755.218-.957-.039-.14-.179-.163-.319-.163-.94 0-.693.07-1.003.264-1.128.133-.093.638-.07.856.031.17.07.225.063.357-.054.086-.078.156-.187.156-.241 0-.35-1.29-.513-1.695-.21-.342.249-.544.622-.607 1.088-.124.995.133 1.835.622 2.076.304.148.902.156 1.237.016zm2.114-.28.132-.397.591.024.591.023.11.373c.1.358.108.366.411.366.226 0 .303-.032.303-.125 0-.07-.233-.84-.52-1.71l-.53-1.594-.38.023-.389.024-.529 1.632c-.287.902-.528 1.656-.528 1.695 0 .031.14.055.303.055.295 0 .311-.008.435-.39zm5.178.202c.171-.078.35-.257.467-.459.163-.287.187-.427.187-1.104 0-.855-.11-1.15-.53-1.47-.186-.14-.35-.17-1.15-.194l-.925-.023v3.46l.84-.039c.56-.023.925-.078 1.111-.171zm3.88-.086v-.272h-1.322v-.933h1.244v-.544h-1.244v-.855h1.322v-.544h-1.944v1.656c0 .917.024 1.687.055 1.71.023.031.466.055.972.055h.917v-.273zm1.874.024c.008-.14.03-.731.062-1.306l.047-1.05.388 1.19.381 1.19.311-.024.311-.023.366-1.12c.412-1.275.458-1.26.458.218 0 1.12.024 1.174.405 1.174h.31l-.046-.405a34.694 34.694 0 0 1-.086-1.54c-.062-1.562-.038-1.476-.528-1.476h-.412l-.381 1.174-.389 1.166-.389-1.174-.388-1.174-.428.023-.428.024-.054.933c-.023.513-.07 1.275-.093 1.694l-.047.755h.311c.295 0 .311-.008.319-.25zm5.512-.373c0-.615.008-.638.544-1.71l.544-1.09h-.707l-.327.716-.326.708-.327-.708-.326-.715h-.7l.498 1.018c.497 1.003.505 1.034.505 1.664 0 .35.023.66.054.684.024.031.164.055.311.055h.257v-.622zm15.27-1.322c.023-.109-.024-.054-.101.117-.086.17-.156.35-.156.388 0 .117.202-.287.257-.505z" fill="#B77687"/><path d="M34.542 79.324v-.684l.606-.35c1.734-1.003 4.953-3.305 7.13-5.093 3.42-2.807 7.098-6.453 9.952-9.874 5.753-6.88 9.982-14.376 12.914-22.858.684-1.975.855-2.363.35-.785a74.708 74.708 0 0 1-4.526 10.978c-.567 1.112-1.555 2.923-1.92 3.53a12.99 12.99 0 0 0-.334.583c-.311.575-.902 1.5-2.06 3.265a62.09 62.09 0 0 1-2.31 3.304c-.824 1.112-.855 1.151-1.632 2.13-.381.475-.801 1.004-.933 1.175-.14.163-.358.428-.49.583-.132.148-.342.389-.467.536-1.47 1.726-4.913 5.303-6.484 6.733-2.923 2.667-6.064 5.147-8.63 6.811-.832.544-1.073.692-1.127.692-.024 0-.04-.303-.04-.676z" fill="#FDCD1A"/><path d="M60.129 50.277c-.031-.972-1.135-1.78-3.157-2.333l-.933-.248H46.4c-5.303 0-10.077.008-10.613.015-.537.016-5.575 0-11.196-.023-10.861-.047-10.916-.047-12.292.326-1.671.444-2.62 1.12-2.9 2.053l-.085.295-.576-1.337c-.318-.73-.668-1.54-.785-1.796-.117-.256-.513-1.236-.894-2.177-.373-.94-.723-1.811-.778-1.943-.31-.716-1.158-3.196-1.399-4.051-.303-1.127-.334-1.563-.124-2.022.17-.38.692-.847 1.212-1.08.498-.218 1.898-.552 2.8-.653.481-.063 8.7-.086 26.123-.086 21.56 0 25.548.023 26.24.117 1.003.132 1.951.35 1.904.427-.015.031.117.117.296.203.179.077.428.21.552.295.194.132.225.132.179.023-.023-.07-.008-.147.039-.178.054-.032.062-.024.03.03-.03.047.04.14.14.218.28.18.67.793.67 1.058 0 .202-.125.59-.358 1.127-.063.132-1.128 2.612-2.364 5.505-1.905 4.439-2.239 5.286-2.169 5.419.047.085.109.124.148.093.03-.039.902-2.03 1.928-4.424 2.27-5.295 2.286-5.334 2.324-5.302.063.07-1.065 3.203-1.998 5.535-1.267 3.172-2.037 4.93-2.138 4.89-.062-.03-.116.032-.14.14-.023.117-.038.078-.046-.116zm-.925-3.919c.42-1.05.746-1.928.73-1.943-.015-.016-.38.847-.808 1.92-.428 1.065-.754 1.944-.731 1.944.031 0 .396-.863.808-1.92zm1.034-2.589c.108-.272.178-.505.163-.52-.031-.032-.436.94-.436 1.041 0 .117.094-.062.273-.52zm-37.833-.793.117-.373h1.197l.094.389.093.389h.35c.319 0 .342-.016.295-.171-.03-.101-.28-.871-.56-1.71l-.497-1.54h-.762l-.552 1.671c-.296.918-.544 1.688-.544 1.71 0 .032.147.04.326.024.319-.023.335-.039.443-.389zm4.93.296c.14-.055.31-.171.38-.257.133-.147.133-.155-.046-.326l-.194-.18-.21.164c-.304.241-.755.218-.957-.039-.14-.178-.163-.318-.163-.94 0-.692.07-1.003.264-1.128.133-.093.638-.07.856.031.17.07.225.063.357-.054.086-.078.156-.187.156-.241 0-.35-1.29-.513-1.695-.21-.342.249-.544.622-.606 1.088-.125.996.132 1.835.621 2.076.304.148.902.156 1.237.016zm2.114-.28.132-.397.591.024.591.023.11.373c.1.358.108.366.411.366.226 0 .303-.031.303-.125 0-.07-.233-.84-.52-1.71l-.53-1.594-.38.023-.389.024-.529 1.632c-.287.902-.528 1.656-.528 1.695 0 .031.14.055.303.055.295 0 .311-.008.435-.389zm5.178.202c.171-.078.35-.257.467-.459.163-.287.187-.427.187-1.104 0-.855-.11-1.15-.53-1.47-.186-.139-.35-.17-1.15-.193l-.925-.024v3.46l.84-.039c.56-.023.925-.078 1.111-.17zm3.88-.085v-.273h-1.322v-.932h1.244v-.545h-1.244v-.855h1.322v-.544h-1.944v1.656c0 .917.024 1.687.055 1.71.023.031.466.055.972.055h.917v-.272zm1.874.023c.008-.14.03-.73.062-1.306l.047-1.05.388 1.19.381 1.19.311-.024.311-.023.366-1.12c.412-1.275.458-1.26.458.218 0 1.12.024 1.174.405 1.174h.31l-.046-.405a34.703 34.703 0 0 1-.086-1.539c-.062-1.563-.038-1.477-.528-1.477h-.412l-.381 1.174-.389 1.166-.389-1.174-.388-1.174-.428.023-.428.024-.054.933c-.023.513-.07 1.275-.093 1.694l-.047.755h.311c.295 0 .311-.008.319-.25zm5.512-.373c0-.614.008-.638.544-1.71l.545-1.09h-.708l-.327.716-.326.708-.327-.708-.326-.715h-.7l.498 1.018c.497 1.003.505 1.034.505 1.664 0 .35.023.66.054.684.024.031.164.055.311.055h.257v-.622zm15.27-1.322c.023-.109-.023-.054-.101.117-.086.17-.156.35-.156.388 0 .117.202-.287.257-.505zM65.804 38.522a4.9 4.9 0 0 1 .187-.661c.109-.32.171-.467.148-.32-.055.296-.327 1.105-.335.98zM66.387 36.461c.032-.148.086-.342.117-.428.047-.108.055-.07.023.117a3.984 3.984 0 0 1-.116.428c-.047.109-.055.07-.024-.117zM9.39 30.77c.016-.054.14-.73.272-1.5.133-.77.288-1.664.35-1.983.063-.319.467-2.612.894-5.093.436-2.48.848-4.626.918-4.773.272-.552.389-.591 2.107-.614 1.33-.024 1.547-.016 1.633.093.093.116-.031.124-1.361.124-1.244 0-1.508.023-1.742.14-.497.249-.342-.459-1.951 8.708-.77 4.385-.894 4.991-1.019 4.991-.07 0-.124-.046-.1-.093zM24.201 30.848c0-.016.086-.514.187-1.112.171-.988.365-2.1 1.174-6.648.148-.832.428-2.402.614-3.475.195-1.08.412-2.091.482-2.239.265-.568.055-.544 5.388-.544 3.693 0 4.782.023 4.805.093.031.078-1.026.101-4.75.117l-4.782.023-.24.233c-.125.125-.273.35-.312.506-.039.147-.544 2.97-1.127 6.258-1.26 7.184-1.19 6.803-1.33 6.803-.062 0-.109-.008-.109-.015zM44.385 30.614c-.055-.14-.443-.971-.863-1.85-.42-.878-.87-1.843-1.01-2.138l-.25-.544 1.003-1.22 1.003-1.221-.56-1.26c-.388-.894-.528-1.298-.482-1.392.032-.078.832-1.104 1.765-2.286l1.71-2.145h15.612l-.046.217c-.031.117-.132.7-.241 1.29-.311 1.742-.265 1.711-2.581 1.742-.957.016-1.734.047-1.734.063 0 .28-1.827 10.31-1.913 10.457a1.286 1.286 0 0 1-.31.373c-.195.155-.304.163-1.789.163-1.462 0-1.586-.008-1.586-.132.008-.078.435-2.566.956-5.52l.957-5.388h-5.692l-1.562 1.843-1.563 1.85 1.82 3.63c1.002 2.007 1.819 3.655 1.819 3.678 0 .024-.98.04-2.177.04h-2.177l-.11-.25zM34.93 30.35c.047-.132.46-.669.918-1.205.7-.809 4.416-5.17 4.502-5.271.015-.024.062 0 .1.039.047.046-.94 1.26-2.65 3.257-3.15 3.693-2.978 3.499-2.87 3.18zM36.952 16.907c0-.1.272-.116 2.154-.1 1.632.015 2.153.046 2.184.124.024.07-.443.093-2.153.093-1.897 0-2.185-.015-2.185-.117z" fill="#FDCD1A"/><path d="m23.572 71.393-.265-.295.296.264c.155.148.287.28.287.296 0 .062-.062 0-.318-.265zM45.193 71.658c0-.016.117-.125.257-.257l.249-.225-.226.256c-.217.233-.28.288-.28.226zM47.603 69.248c0-.016.117-.125.257-.257l.249-.226-.226.257c-.217.233-.28.288-.28.225zM48.847 67.926c0-.016.117-.125.257-.257l.249-.225-.226.256c-.217.234-.28.288-.28.226zM47.76 62.623c.147-.147.279-.272.302-.272.024 0-.078.125-.225.272-.148.148-.28.272-.303.272-.024 0 .077-.124.225-.272zM13.433 51.847c-.427-.038-1.181-.1-1.671-.14-1.167-.1-1.85-.31-2.17-.668-.132-.156-.24-.319-.24-.373.007-.055.054-.008.108.1.28.506 1.159.747 3.196.856.816.047 1.524.101 1.578.117.101.039.132.202.039.186a16.484 16.484 0 0 0-.84-.078zM54.757 51.863c0-.124.21-.148 1.943-.241 1.127-.054 1.773-.124 2.208-.233.591-.148 1.135-.459 1.135-.638 0-.046.024-.07.047-.046.093.093-.218.435-.537.59-.52.265-1.236.39-2.775.483-.793.046-1.57.1-1.726.132-.194.023-.295.015-.295-.047zM60.129 50.277c-.024-.964-1.135-1.78-3.157-2.333l-.933-.248H46.4c-5.303 0-10.077.008-10.613.015-.537.016-5.575 0-11.196-.023-10.861-.047-10.916-.047-12.292.326-1.671.444-2.62 1.12-2.9 2.053l-.085.295-.576-1.337c-.318-.73-.668-1.54-.785-1.796-.117-.256-.513-1.236-.894-2.177-.373-.94-.723-1.811-.778-1.943-.31-.716-1.158-3.196-1.399-4.051-.303-1.127-.334-1.563-.124-2.022.17-.38.692-.847 1.212-1.08.498-.218 1.898-.552 2.8-.653.481-.063 8.7-.086 26.123-.086 21.56 0 25.548.023 26.24.117 1.003.132 1.951.35 1.904.427-.015.031.117.117.296.203.179.077.428.21.552.295.194.132.225.132.179.023-.023-.07-.008-.147.039-.178.046-.032.062-.024.03.03-.023.047.047.156.164.25.319.248.645.77.645 1.018 0 .21-.124.599-.357 1.135-.063.132-1.128 2.612-2.364 5.505-1.905 4.439-2.239 5.286-2.169 5.419.047.085.109.124.148.093.03-.039.902-2.03 1.928-4.424 2.27-5.295 2.286-5.334 2.324-5.302.032.038-.606 1.92-1.088 3.203-1.065 2.845-2.939 7.308-3.017 7.176-.046-.078-.07-.07-.1.015-.016.063-.055.172-.07.234-.024.062-.047-.016-.047-.18zm-.925-3.919c.42-1.05.746-1.928.73-1.943-.015-.016-.38.847-.808 1.92-.428 1.065-.754 1.944-.731 1.944.031 0 .396-.863.808-1.92zm1.034-2.589c.108-.272.178-.505.163-.52-.031-.032-.436.94-.436 1.041 0 .117.094-.062.273-.52zm-37.833-.793.117-.373h1.197l.094.389.093.389h.35c.319 0 .342-.016.295-.171-.03-.101-.28-.871-.56-1.71l-.497-1.54h-.762l-.552 1.671c-.296.918-.544 1.688-.544 1.71 0 .032.147.04.326.024.319-.023.335-.039.443-.389zm4.93.296c.14-.055.31-.171.38-.257.133-.147.133-.155-.046-.326l-.194-.18-.21.164c-.304.241-.755.218-.957-.039-.14-.178-.163-.318-.163-.94 0-.692.07-1.003.264-1.128.133-.093.638-.07.856.031.17.07.225.063.357-.054.086-.078.156-.187.156-.241 0-.35-1.29-.513-1.695-.21-.342.249-.544.622-.606 1.088-.125.996.132 1.835.621 2.076.304.148.902.156 1.237.016zm2.114-.28.132-.397.591.024.591.023.11.373c.1.358.108.366.411.366.226 0 .303-.031.303-.125 0-.07-.233-.84-.52-1.71l-.53-1.594-.38.023-.389.024-.529 1.632c-.287.902-.528 1.656-.528 1.695 0 .031.14.055.303.055.295 0 .311-.008.435-.389zm5.178.202c.171-.078.35-.257.467-.459.163-.287.187-.427.187-1.104 0-.855-.11-1.15-.53-1.47-.186-.139-.35-.17-1.15-.193l-.925-.024v3.46l.84-.039c.56-.023.925-.078 1.111-.17zm3.88-.085v-.273h-1.322v-.932h1.244v-.545h-1.244v-.855h1.322v-.544h-1.944v1.656c0 .917.024 1.687.055 1.71.023.031.466.055.972.055h.917v-.272zm1.874.023c.008-.14.03-.73.062-1.306l.047-1.05.388 1.19.381 1.19.311-.024.311-.023.366-1.12c.412-1.275.458-1.26.458.218 0 1.12.024 1.174.405 1.174h.31l-.046-.405a34.703 34.703 0 0 1-.086-1.539c-.062-1.563-.038-1.477-.528-1.477h-.412l-.381 1.174-.389 1.166-.389-1.174-.388-1.174-.428.023-.428.024-.054.933c-.023.513-.07 1.275-.093 1.694l-.047.755h.311c.295 0 .311-.008.319-.25zm5.512-.373c0-.614.008-.638.544-1.71l.545-1.09h-.708l-.327.716-.326.708-.327-.708-.326-.715h-.7l.498 1.018c.497 1.003.505 1.034.505 1.664 0 .35.023.661.054.684.024.031.164.055.311.055h.257v-.622zm15.27-1.322c.023-.109-.023-.054-.101.117-.086.17-.156.35-.156.388 0 .117.202-.287.257-.505zM10.564 24.192c.646-3.67 1.213-6.748 1.268-6.834.046-.093.178-.24.287-.326.195-.156.303-.163 1.827-.163.996 0 1.633.03 1.664.077.031.055-.458.078-1.415.078-1.664 0-1.905.062-2.138.552-.085.163-.606 2.939-1.283 6.78-.94 5.333-1.174 6.507-1.275 6.507-.093 0 .078-1.096 1.065-6.67zM24.232 30.653c.024-.124.552-3.102 1.174-6.616.622-3.522 1.182-6.523 1.252-6.67.249-.514.062-.498 5.396-.498 3.087 0 4.82.03 4.82.077s-1.733.086-4.774.094l-4.781.023-.241.233c-.132.125-.272.35-.319.506-.039.147-.56 3.055-1.158 6.453-1.283 7.277-1.15 6.608-1.299 6.608-.085 0-.1-.054-.07-.21zM44.385 30.614c-.055-.14-.443-.971-.863-1.85-.42-.878-.87-1.843-1.01-2.138l-.25-.552.42-.498c.233-.28.684-.824 1.003-1.22l.583-.708-.56-1.267c-.388-.894-.528-1.298-.482-1.392.032-.078.832-1.104 1.765-2.286l1.71-2.145h15.612l-.046.217c-.031.117-.132.7-.241 1.29-.311 1.742-.265 1.711-2.581 1.742-.957.016-1.734.047-1.734.063 0 .28-1.827 10.31-1.913 10.457a1.286 1.286 0 0 1-.31.373c-.195.155-.304.163-1.789.163-1.462 0-1.586-.008-1.586-.132.008-.078.435-2.566.956-5.52l.957-5.388h-5.692l-1.562 1.843-1.563 1.85 1.82 3.63c1.002 2.007 1.819 3.655 1.819 3.678 0 .024-.98.04-2.177.04h-2.177l-.11-.25zM34.93 30.381c0-.155-.178.07 2.94-3.584 1.376-1.617 2.542-2.916 2.589-2.884.046.023-.086.233-.296.482-.723.855-5.022 5.885-5.123 6.002-.094.093-.11.093-.11-.016zM28.089 28.025c0-.1.428-.116 3.382-.116s3.382.015 3.382.116c0 .102-.428.117-3.382.117s-3.382-.015-3.382-.117z" fill="#DEAE68"/><path d="M14.164 51.902c-.015-.016-.645-.07-1.392-.124-2.013-.14-2.853-.335-3.195-.747-.078-.093 0-.07.241.07.529.311 1.213.435 2.838.521 1.563.086 1.671.101 1.671.233 0 .078-.1.11-.163.047zM54.757 51.863c0-.124.21-.155 1.943-.241 1.788-.086 2.636-.249 3.102-.599l.28-.202-.179.195c-.404.45-1.135.614-3.28.762-.661.046-1.353.1-1.532.124-.218.031-.334.015-.334-.039zM60.121 50.2c-.008-.88-1.197-1.727-3.149-2.256l-.933-.248-20.836-.024c-15.527-.015-21.016 0-21.529.063-1.555.21-3.063.785-3.716 1.422-.218.21-.412.498-.505.747l-.156.412-.972-2.286c-2.052-4.774-3.366-8.335-3.646-9.882-.132-.73-.008-1.143.52-1.656.584-.575 1.61-.925 3.375-1.166 1.229-.163 51.345-.163 52.558.008 1.003.132 1.951.35 1.905.427-.016.031.116.117.295.203.179.077.428.21.552.295.225.155.233.155.171 0-.031-.086.093 0 .295.202.195.187.42.498.49.684.125.327.125.373-.007.747-.07.217-.187.505-.25.645-.061.132-1.127 2.612-2.363 5.505-1.905 4.439-2.239 5.286-2.169 5.419.047.085.109.124.148.093.03-.039.886-1.99 1.889-4.346 1.835-4.276 2.301-5.334 2.31-5.233 0 .094-.677 2.03-1.167 3.328-1.159 3.055-2.807 7.005-2.861 6.842-.023-.07-.07-.04-.14.085l-.101.187-.008-.218zm-.917-3.842c.42-1.05.746-1.928.73-1.943-.015-.016-.38.847-.808 1.92-.428 1.065-.754 1.944-.731 1.944.031 0 .396-.863.809-1.92zm1.034-2.589c.108-.272.178-.505.163-.52-.031-.032-.436.94-.436 1.041 0 .117.094-.062.273-.52zm-37.832-.793.116-.373h1.197l.094.389.093.389h.35c.319 0 .342-.016.295-.171-.03-.102-.28-.871-.56-1.71l-.497-1.54h-.762l-.552 1.671c-.295.918-.544 1.688-.544 1.71 0 .032.148.04.326.024.32-.023.335-.039.444-.389zm4.929.296a1.09 1.09 0 0 0 .38-.257c.133-.148.133-.155-.046-.326l-.194-.18-.21.164c-.303.241-.754.218-.957-.039-.14-.178-.163-.319-.163-.94 0-.692.07-1.003.265-1.128.132-.093.637-.07.855.031.17.07.225.063.357-.054.086-.078.156-.187.156-.241 0-.35-1.29-.513-1.695-.21-.342.249-.544.622-.606 1.088-.125.996.132 1.835.622 2.076.303.148.901.156 1.236.016zm2.114-.28.133-.397.59.024.591.023.11.373c.1.358.108.366.411.366.226 0 .303-.031.303-.125 0-.07-.233-.84-.52-1.71l-.53-1.594-.38.023-.389.024-.529 1.632c-.287.902-.528 1.656-.528 1.695 0 .031.14.055.303.055.296 0 .311-.008.435-.39zm5.178.202c.171-.078.35-.257.467-.459.163-.287.187-.427.187-1.104 0-.855-.11-1.15-.53-1.47-.186-.14-.349-.17-1.15-.194l-.925-.023v3.46l.84-.039c.56-.023.925-.078 1.111-.17zm3.88-.086v-.272h-1.322v-.932h1.244v-.545h-1.244v-.855h1.322v-.544h-1.944v1.656c0 .917.024 1.687.055 1.71.023.031.466.055.972.055h.917v-.273zm1.874.024c.008-.14.03-.731.062-1.306l.047-1.05.388 1.19.381 1.19.311-.024.311-.023.366-1.12c.412-1.275.459-1.26.459.218 0 1.12.023 1.174.404 1.174h.31l-.046-.405a34.713 34.713 0 0 1-.085-1.539c-.063-1.563-.04-1.477-.53-1.477h-.411l-.381 1.174-.389 1.166-.389-1.174-.388-1.174-.428.023-.428.024-.054.933c-.023.513-.07 1.275-.093 1.694l-.047.755h.311c.296 0 .311-.008.319-.25zm5.512-.373c0-.614.008-.638.544-1.71l.545-1.09h-.708l-.326.716-.327.708-.327-.708-.326-.715h-.7l.498 1.018c.497 1.003.505 1.034.505 1.664 0 .35.023.66.055.684.023.031.163.055.31.055h.257v-.622zm15.27-1.322c.023-.109-.023-.054-.101.117-.086.17-.156.35-.156.388 0 .117.202-.287.257-.505z" fill="#A6A8A9"/><path d="M22.872 41.398c.109-.358.225-.63.249-.599.062.055.38 1.073.38 1.19 0 .039-.186.07-.42.07h-.411l.202-.66zM29.722 42.043c0-.015.1-.326.217-.7l.218-.676.21.646c.116.35.21.66.21.691 0 .032-.195.055-.428.055-.233 0-.427-.008-.427-.016zM33.298 41.631v-1.127h.342c.824 0 1.01.241.972 1.283-.039.847-.148.972-.855.972h-.459V41.63zM24.233 30.731c.023-.078.186-.964.357-1.967.552-3.14.684-3.887.925-5.248.576-3.234.793-4.486.918-5.201.132-.809.31-1.174.645-1.345.249-.125 9.796-.148 9.796-.024 0 .055-1.609.078-4.665.078-5.06 0-5.038 0-5.318.42-.132.21-.287.972-.855 4.206-.155.855-.575 3.25-.94 5.318-.366 2.068-.661 3.794-.661 3.825 0 .04-.055.07-.125.07-.077 0-.109-.046-.077-.132zM44.424 30.692c-.04-.1-.451-.98-.918-1.967-.466-.98-.94-1.982-1.042-2.216l-.194-.427.894-1.089c.498-.598.949-1.15 1.01-1.22.094-.125.032-.296-.458-1.415-.373-.856-.536-1.314-.498-1.392.04-.062.84-1.073 1.773-2.263l1.71-2.145h15.612l-.046.217c-.031.117-.132.7-.241 1.29-.311 1.742-.265 1.711-2.581 1.742-.957.016-1.734.047-1.734.063 0 .28-1.827 10.31-1.913 10.457a1.285 1.285 0 0 1-.31.373c-.195.155-.304.163-1.789.163-1.462 0-1.586-.008-1.586-.132.008-.078.435-2.566.956-5.52l.956-5.388H48.334l-1.562 1.843-1.563 1.85 1.82 3.63c1.002 2.007 1.818 3.655 1.818 3.678 0 .024-.98.04-2.176.04h-2.177l-.07-.172z" fill="#A6A8A9"/><path d="M13.977 51.87c-.458-.038-.536-.17-.1-.17.202 0 .388.039.412.085.07.11.054.117-.312.086zM54.757 51.879c0-.086.427-.18.84-.18.131 0 .248.04.248.078 0 .047-.117.078-.249.078-.14 0-.389.024-.544.047-.179.03-.295.023-.295-.023zM60.121 50.2c0-.553-.653-1.276-1.508-1.68-.638-.303-1.275-.506-2.24-.708l-.8-.17-20.821.015c-12.098.008-21.008.039-21.264.078-.241.038-.443.07-.451.054-.062-.086-4.937-12.354-4.914-12.385.163-.164 3.592-.187 26.73-.187 13.878 0 25.268.031 25.315.062.062.04-.28.98-1.066 2.963-1.088 2.736-1.251 3.172-1.088 2.884.054-.093 1.812-4.408 2.294-5.613.07-.187.124-.218.404-.218.412 0 1.563.218 1.788.334l.171.093-.497 1.245c-.28.684-.957 2.363-1.509 3.731a609.142 609.142 0 0 1-1.788 4.432c-.435 1.073-.87 2.161-.972 2.434l-.186.49.21.085c.653.264 1.407.645 1.632.816.311.233.715.84.715 1.065a.621.621 0 0 1-.077.28c-.062.094-.078.07-.078-.1zm-3.157-6.43c.04-.133.032-.156-.015-.078a1.174 1.174 0 0 0-.124.31c-.04.133-.032.156.015.078.039-.062.101-.202.124-.31zm-34.55-.778.092-.396.591.023.591.023.117.373c.109.366.117.366.45.366.187 0 .335-.024.335-.055 0-.039-.24-.793-.536-1.695L23.525 40H22.709l-.537 1.632c-.295.902-.536 1.656-.536 1.695 0 .031.155.055.342.055h.342l.093-.389zm4.96.28c.116-.062.272-.171.342-.257.124-.132.124-.155-.016-.334l-.14-.194-.31.178c-.382.21-.638.218-.88.024-.17-.14-.186-.218-.21-.956-.023-.724-.015-.825.14-1.019.133-.171.234-.21.498-.21.179 0 .397.055.482.117.148.1.18.093.373-.11.195-.201.203-.217.07-.334-.225-.194-.715-.318-1.08-.264-.56.078-.801.241-1.019.723-.179.381-.194.506-.163 1.182.031.832.194 1.228.59 1.446.273.14 1.05.148 1.323.008zm2.099-.296.1-.373h1.144l.132.389.132.389h.35c.249 0 .342-.031.319-.094-.024-.054-.272-.831-.56-1.718l-.521-1.617-.396.023-.397.024-.537 1.593c-.287.871-.528 1.641-.528 1.695 0 .07.093.094.326.078.32-.023.335-.03.436-.389zm5.224.203c.444-.257.584-.646.584-1.602 0-.715-.024-.855-.164-1.042-.35-.474-.513-.536-1.516-.56l-.925-.03v3.459l.878-.039c.692-.023.941-.062 1.143-.186zm3.849-.11v-.271l-.676-.024-.685-.023v-.848h1.244v-.544h-1.244v-.855h1.322v-.544h-1.944v3.428l.995-.023.988-.023v-.272zm1.858.024c.023-.163.047-.669.047-1.12 0-.45.023-.847.054-.878.031-.031.218.428.42 1.018l.358 1.073h.583l.365-1.127.366-1.127.054.427c.031.233.054.785.054 1.229v.793h.723l-.046-.482a40.572 40.572 0 0 1-.101-1.71l-.055-1.23h-.902l-.357 1.113a80.205 80.205 0 0 1-.381 1.127c-.016.008-.187-.49-.389-1.112l-.365-1.127h-.902l-.055 1.15c-.03.63-.07 1.4-.1 1.71l-.047.56h.31c.304 0 .32-.007.366-.287zm5.567-.428v-.707l.505-.956c.28-.53.506-.972.506-.995 0-.032-.171-.047-.39-.047-.209 0-.388.03-.388.07 0 .03-.132.35-.295.707l-.296.638-.303-.708-.303-.707h-.373c-.203 0-.374.015-.374.039 0 .023.226.497.506 1.05.505 1.002.505 1.01.505 1.67v.662h.7v-.716zm11.46-.062c.039-.132.031-.155-.016-.078a1.173 1.173 0 0 0-.124.312c-.039.132-.031.155.016.077a1.18 1.18 0 0 0 .124-.31zm.466-1.166c.024-.109-.038-.015-.14.21-.1.218-.21.482-.233.583-.023.093.04.008.14-.21a4.69 4.69 0 0 0 .233-.583z" fill="#DDC5A8"/><path d="M22.724 42.005c.008-.21.381-1.283.412-1.19.148.42.366 1.127.366 1.182 0 .03-.171.062-.389.062-.21 0-.389-.023-.389-.054zM60.354 50.176c0-.086 1.423-3.374 1.454-3.351.024.031-.295.816-1.104 2.721-.256.599-.35.77-.35.63zM9.43 49.414C8.293 46.56 4.74 37.736 4.686 37.635c-.21-.404.536-1.384 1.29-1.687.747-.303.443-.886 3.211 6.033l2.473 6.181-.677.319c-.435.21-.824.466-1.088.715-.381.366-.404.373-.467.218zM61.84 46.685c0-.039.046-.163.108-.272.062-.109.109-.156.109-.117a.798.798 0 0 1-.109.272c-.062.11-.109.164-.109.117zM61.552 42.914c.24-.645 1.003-2.589 1.866-4.766.365-.933.668-1.757.668-1.827 0-.093.11-.015.35.233.21.218.35.436.35.545v.179l-.156-.195-.147-.194-.078.202c-.28.739-1.508 3.537-1.563 3.553-.039.016-.054.07-.03.124.023.055-.032.18-.125.28-.14.163-.195.311-.163.49 0 .031-.032.047-.086.039-.054-.016-.101.016-.101.054-.016.148-.311.7-.404.762a.127.127 0 0 0-.055.156c.016.054-.03.17-.124.249-.086.077-.156.178-.156.233 0 .047-.054.155-.116.24-.07.086-.04-.054.07-.357zM9.43 30.809c0-.078.295-1.757 1.041-5.971l.863-4.898c.311-1.796.436-2.395.552-2.62.21-.405.42-.451 2.13-.451.918 0 1.555.03 1.555.07 0 .046-.645.085-1.547.1-1.516.024-1.555.032-1.75.21-.271.257-.403.661-.59 1.797a42.921 42.921 0 0 1-.233 1.321c-.04.195-.234 1.275-.428 2.41a194.501 194.501 0 0 1-.466 2.644c-.063.319-.288 1.617-.506 2.877-.217 1.26-.412 2.355-.435 2.433-.039.132-.187.187-.187.078zM24.233 30.731c.023-.078.186-.964.357-1.967.552-3.14.684-3.887.925-5.248.576-3.234.793-4.486.918-5.201.132-.809.31-1.174.645-1.345.249-.125 9.719-.148 9.719-.024 0 .055-1.594.078-4.626.078-5.023 0-5 0-5.28.42-.132.21-.287.972-.855 4.206-.155.855-.575 3.25-.94 5.318-.366 2.068-.661 3.794-.661 3.825 0 .04-.055.07-.125.07-.077 0-.109-.046-.077-.132zM43.957 29.681c-.303-.653-.808-1.733-1.12-2.394l-.567-1.205.894-1.089c.498-.598.949-1.15 1.01-1.22.094-.125.032-.296-.458-1.415-.498-1.136-.552-1.299-.459-1.43.063-.079.863-1.097 1.78-2.256l1.672-2.114h7.799c7.393 0 7.798.007 7.759.14-.023.07-.109.567-.202 1.104-.187 1.15-.327 1.578-.599 1.788-.187.148-.31.155-1.975.155-.98 0-1.78.024-1.78.055 0 .24-1.82 10.294-1.897 10.48a1.366 1.366 0 0 1-.319.412c-.202.163-.295.171-1.796.171-1.073 0-1.586-.023-1.586-.085 0-.086 1.843-10.558 1.905-10.854l.039-.179h-5.668l-1.493 1.773c-.824.972-1.54 1.82-1.602 1.89-.085.1.14.606 1.657 3.614.963 1.92 1.788 3.57 1.827 3.67l.07.171H44.516l-.56-1.181zM34.93 30.42c.008-.031.047-.132.102-.225.186-.327 5.38-6.337 5.403-6.26.016.048-.995 1.284-2.247 2.745-3.016 3.538-3.257 3.81-3.257 3.74zM28.089 28.064c0-.054 1.182-.077 3.382-.077s3.382.023 3.382.077c0 .055-1.182.078-3.382.078s-3.382-.023-3.382-.078zM36.952 16.946c0-.046.778-.077 2.177-.077 1.4 0 2.177.03 2.177.077s-.777.078-2.177.078-2.177-.031-2.177-.078z" fill="#DDC5A8"/><path d="M60.121 50.2c0-.514-.536-1.16-1.322-1.603-.49-.272-.474-.326.024-.077.56.287.98.63 1.22.995.241.358.288.583.156.785-.062.094-.078.07-.078-.1zM7.182 43.28c-1.796-4.494-2.425-6.135-2.379-6.26.148-.481 1.485-1.414 1.649-1.158.03.047 1.158 2.854 2.519 6.236l2.456 6.142-.513.256c-.28.14-.676.397-.878.568-.202.163-.373.303-.389.303-.016 0-1.127-2.736-2.465-6.087zM57.361 48.038c-.124-.039-.583-.14-1.01-.233l-.778-.172-20.72.016c-11.398.008-20.93.031-21.186.054l-.467.04-2.457-6.166c-2.379-5.963-2.457-6.166-2.293-6.243.194-.094 51.593-.156 51.593-.062 0 .046-.855 2.247-1.08 2.783-.04.086-.793 1.99-1.68 4.237a1591.04 1591.04 0 0 0-1.796 4.525c-.1.249-.186.521-.186.607 0 .225.264.202.427-.047.07-.109.661-1.532 1.322-3.164a1230.13 1230.13 0 0 1 3.452-8.56l.163-.381.412.054c.591.07 1.244.218 1.345.295.11.078.187-.14-1.974 5.194-2.73 6.725-2.9 7.176-2.792 7.246.117.078 0 .07-.295-.023zm-34.948-5.046.093-.397.591.024.591.023.117.373c.109.366.117.366.45.366.188 0 .335-.024.335-.055 0-.039-.24-.793-.529-1.695L23.534 40H22.7l-.529 1.632c-.295.902-.536 1.656-.536 1.695 0 .031.155.055.342.055h.342l.093-.389zm5.062.218c.365-.203.435-.358.233-.552-.148-.148-.156-.148-.49.015-.427.202-.614.202-.847.016-.18-.14-.187-.202-.187-1.003 0-.731.023-.879.148-1.019.179-.194.7-.225.948-.046.148.1.18.093.373-.11l.21-.217-.202-.163c-.24-.194-.77-.288-1.143-.21-.42.093-.66.249-.855.56-.163.264-.179.388-.179 1.19 0 .8.016.924.18 1.189.1.155.279.342.388.404.326.171 1.065.148 1.423-.054zm2.005-.234.117-.373h1.12l.132.389.132.389h.35c.249 0 .342-.031.319-.094-.024-.054-.272-.831-.56-1.718l-.521-1.617-.404.023-.397.024-.529 1.593c-.287.879-.528 1.641-.528 1.695 0 .07.1.094.326.078.32-.023.335-.039.444-.389zm5.194.226c.132-.07.327-.257.428-.42.163-.264.179-.389.179-1.166 0-.754-.024-.894-.164-1.08-.35-.475-.513-.537-1.516-.56l-.925-.032v3.46l.878-.039c.6-.023.95-.078 1.12-.163zm3.895-.109-.023-.295-.676-.024-.685-.023v-.848h1.244v-.544h-1.244v-.855h1.322v-.544h-1.944v3.42h2.029l-.023-.287zm1.835.117c.023-.101.047-.584.047-1.073 0-.49.03-.941.062-.995.039-.055.194.326.412.995l.342 1.096.303-.023.304-.024.365-1.127.365-1.127.047.497c.031.272.054.824.054 1.22v.732h.723l-.046-.521a46.315 46.315 0 0 1-.101-1.71l-.055-1.19h-.894l-.38 1.127-.374 1.135-.373-1.135-.373-1.127h-.902l-.055 1.112c-.023.606-.07 1.376-.1 1.71l-.047.599h.31c.265 0 .327-.031.366-.171zm5.567-.537v-.7l.505-.964c.28-.528.506-.98.506-1.003 0-.023-.171-.046-.39-.046-.209 0-.388.03-.388.07 0 .03-.132.35-.295.707l-.296.638-.303-.708-.303-.707h-.373c-.203 0-.374.015-.374.039 0 .023.226.497.506 1.05.505 1.002.505 1.01.505 1.67v.662h.7v-.708z" fill="#E1E1E1"/><path d="M22.724 42.012c0-.124.342-1.197.381-1.197.04 0 .187.435.373 1.112.04.116-.015.132-.357.132-.218 0-.397-.023-.397-.047zM29.924 41.46c.1-.334.202-.637.217-.684.016-.039.101.179.195.498.1.31.194.622.217.676.031.086-.054.109-.388.109h-.428l.187-.599zM33.376 41.67v-1.088h.45c.677 0 .755.116.755 1.104 0 .723-.016.785-.187.925-.124.101-.303.148-.598.148h-.42V41.67zM44.16 30.11c-1.12-2.372-1.843-3.943-1.843-3.997 0-.039.435-.599.972-1.244.536-.645.971-1.205.971-1.244 0-.039-.248-.63-.551-1.306-.49-1.096-.537-1.26-.444-1.392.055-.078.855-1.096 1.773-2.255l1.672-2.114h7.798c7.393 0 7.798.007 7.759.14-.023.07-.109.567-.202 1.104-.187 1.15-.327 1.578-.599 1.788-.187.148-.31.155-1.975.155-.98 0-1.78.024-1.78.055 0 .24-1.82 10.294-1.897 10.48a1.365 1.365 0 0 1-.319.412c-.202.163-.295.171-1.796.171-.972 0-1.586-.03-1.586-.078 0-.038.373-2.16.824-4.719.451-2.558.87-4.945.933-5.31.062-.365.132-.739.148-.832l.039-.179h-5.668l-1.493 1.773c-.824.972-1.54 1.82-1.602 1.89-.085.108.14.606 1.672 3.653.98 1.944 1.796 3.6 1.827 3.67.047.124-.109.132-2.115.132h-2.161l-.358-.754z" fill="#E1E1E1"/></svg>