<svg width="100" height="80" fill="none" xmlns="http://www.w3.org/2000/svg"><path fill-rule="evenodd" clip-rule="evenodd" d="M14.367 0v53.61c0 4.235.544 5.865 1.846 8.132l.074.128.08.12a40.279 40.279 0 0 0 67.126 0l.08-.12.073-.129c1.302-2.264 1.846-3.895 1.846-8.133V0H14.367z" fill="#fff"/><path d="M83.137 32.278V2.358H16.725v51.25c0 3.884.467 5.103 1.533 6.96l.033.057.037.055a37.921 37.921 0 0 0 63.207 0l.037-.054.033-.058c1.066-1.853 1.533-3.072 1.533-6.96v-21.33zm-1.924 12.145v9.185c0 3.655-.424 4.516-1.28 6a35.999 35.999 0 0 1-60.01 0c-.853-1.483-1.28-2.344-1.28-6V4.282h62.56v40.14h.01z" fill="#001D46"/><path fill-rule="evenodd" clip-rule="evenodd" d="M84.662 32.607V.834H15.198V53.61c0 4.234.556 5.664 1.736 7.717l.06.102.065.099a39.446 39.446 0 0 0 65.74 0l.066-.099.06-.102c1.178-2.052 1.734-3.483 1.734-7.717V32.607h.003zm-1.067 15.141v5.861c0 4-.485 5.258-1.594 7.185l-.04.07-.046.068a38.377 38.377 0 0 1-63.966 0l-.046-.068-.04-.07c-1.109-1.928-1.593-3.19-1.593-7.185V1.902h67.325v45.846z" fill="#001D46"/><path d="M76.697 6.203v13.975h2.592V6.203h-2.592zM34.08 11.35a4.555 4.555 0 1 0 4.044 6.904l-2.16-1.019a1.817 1.817 0 0 1-1.667 1.035 1.756 1.756 0 0 1-1.81-1.696c0-.061-.025-.037-.017-.095h5.876c.018-.19.027-.38.025-.571.043-2.94-1.863-4.558-4.291-4.558zm-1.6 3.566a1.626 1.626 0 1 1 3.25 0h-3.25zm-3.025-4.358a3.965 3.965 0 0 0-3.906-4.022c-.066 0-.367 0-.433.005h-4.544v13.616h2.758V8.888l1.646-.013a1.769 1.769 0 0 1 1.792 1.782 1.814 1.814 0 0 1-1.844 1.781l-.64.016v3.243l2.755 4.46h3.245l-3.81-5.69a4 4 0 0 0 2.98-3.908h.001zm38.504 6.16a1.52 1.52 0 0 1-3.04 0v-4.907h-2.64v5.43c0 1.84 1.858 3.33 4.15 3.33 2.294 0 4.153-1.491 4.153-3.33v-5.43h-2.623v4.907zm4.357 3.457h2.592V6.203h-2.592v13.973zM59.11 12.71a3.716 3.716 0 0 0 1.143-2.659 3.673 3.673 0 0 0-.934-2.455c-.618-.72-1.713-1.04-3.192-1.04h-4.432V20.17h5.724a3.987 3.987 0 0 0 3.96-3.934 3.5 3.5 0 0 0-2.27-3.524l.002-.001zm-2.17 5.07h-2.48V8.911h1.73a1.451 1.451 0 0 1 0 2.898h-.9v2.46h1.65a1.76 1.76 0 0 1 0 3.512zM45.803 6.1l.011 6.59a3.852 3.852 0 0 0-2.7-1.12 4.354 4.354 0 0 0 0 8.68 3.84 3.84 0 0 0 2.713-1.15v1.07H48.5V6.099h-2.696zm-1.92 12.023a2.139 2.139 0 1 1 1.972-2.132 2.058 2.058 0 0 1-1.972 2.132z" fill="#D2003C"/><path fill-rule="evenodd" clip-rule="evenodd" d="M68.415 37.94a18.583 18.583 0 1 1-5.44-13.14 18.586 18.586 0 0 1 5.444 13.14" fill="#FC0"/><path d="M99.127 48.78v-.008c-.02-.045-.05-.11-.065-.147-.02-.097-.034-.211-.049-.331v-.019a3.209 3.209 0 0 0-.2-.88 1.555 1.555 0 0 0-1.12-.88 1.107 1.107 0 0 0-.174-.423 3.96 3.96 0 0 0-1.107-.975c-.094-.063-.202-.134-.24-.169l-.093-.072a1.247 1.247 0 0 0-.785-.273 1.773 1.773 0 0 0-1.298.69 9.1 9.1 0 0 1-.19-.649c-.07-.253-.135-.492-.203-.678l-.01-.026a2.061 2.061 0 0 1-.029-.08 1.76 1.76 0 0 0-1.31-1.28 5.733 5.733 0 0 0-.691-.058 1.497 1.497 0 0 1-.655-.12c.011-.039.033-.1.072-.195.074-.175.134-.356.181-.54a5.267 5.267 0 0 0 .16-2.29c.222.033.446.05.67.052a5.553 5.553 0 0 0 2.153-.442l.036-.016a4.34 4.34 0 0 0 2.523-3.899v-.051c-.15-1.569-1.025-3.053-2.663-4.52.46-.103.898-.288 1.295-.544a3.712 3.712 0 0 0 1.405-3.914l-.024-.113a1.04 1.04 0 0 0-1.019-.935 1.028 1.028 0 0 0-.695.279c-.04.036-.08.074-.123.116-.092.095-.194.18-.303.253a3.562 3.562 0 0 1-1.016.31 7.8 7.8 0 0 0-.953.244 4.032 4.032 0 0 0-2.759 2.358 2.699 2.699 0 0 0 .264 2.127l.03.051a10.325 10.325 0 0 0 1.642 1.853 4.892 4.892 0 0 1 1.693 2.339c.026.16.075.446-.45.842a1.702 1.702 0 0 1-.813.179 3.11 3.11 0 0 1-1.403-.352l-.022-.011a18.522 18.522 0 0 1-1.933-1.184 13.635 13.635 0 0 0-3.304-1.79 8.295 8.295 0 0 0-1.698-.48 4.201 4.201 0 0 1-1.76-.618l-.063-.045c-.196-.128-.4-.273-.592-.415a6.412 6.412 0 0 0-2.068-1.126 4.785 4.785 0 0 0-.847-.178 1.442 1.442 0 0 1-.614-.16l-.4-.288-.02-.016c-.545-.423-1.125-.8-1.732-1.126a13.31 13.31 0 0 0-3.22-1.015c-.06-.013-.216-.204-.32-.331a3.47 3.47 0 0 0-.68-.677 4.985 4.985 0 0 0-3.153-1.3c-.118 0-.24.005-.34.013a3.402 3.402 0 0 0-1.902.947c-.965.845-2.016 1.605-3.032 2.34A29.364 29.364 0 0 0 58.491 32a11.376 11.376 0 0 0-2.505 5.148c-.07.24-.138.487-.212.741-.13.466-.248.942-.363 1.404-.584 2.346-1.136 4.56-3.328 5.986a1.091 1.091 0 0 0-.268 1.597c.127.162.297.286.49.359.27.091.555.137.842.135.011.24.103.468.26.65a1.273 1.273 0 0 0 .952.417h.038a5.034 5.034 0 0 0 3.513-1.767c.362.346.809.59 1.296.708l.15.029.164-.02a8.218 8.218 0 0 1 1.513-.114c.444.138.898.31 1.35.48.345.13.702.264 1.066.387l.18.056.16-.006a2.303 2.303 0 0 0 1.751-1.237l.04-.063.03-.069c.032-.076.059-.154.08-.234v.008l.06.21c.093.462.284.9.56 1.284a1.404 1.404 0 0 0 1.099.497c.14-.002.279-.015.416-.04l.05-.007.047.05c.226.274.523.48.859.595.4.134.807.24 1.206.344.485.118.963.262 1.432.433l.052.018c.37.136.762.21 1.157.218.505.002.993-.182 1.37-.518.443-.35.755-.838.885-1.387.1-.016.2-.041.296-.074.672-.223 1.33-1.459 1.335-1.47.045-.084.094-.166.147-.245.16-.23.245-.505.245-.786a1.18 1.18 0 0 0-1.163-1.172h-.105c-.054 0-1.317-.006-1.68 0h-.031a1.677 1.677 0 0 0-.435.08l-.023-.031c-.097-.119-.2-.39-.338-.459.01-.008.038-.016.048-.024l.353.037c.229.023.458.035.688.035a12.36 12.36 0 0 0 2.24-.26c.624-.073 1.252-.09 1.879-.05h.229c.271 0 .542.023.835.05.294.026.628.056.97.056.124 0 .24-.004.356-.01.314-.014.625-.07.925-.165.027.16.063.35.11.59l.046.199a3.76 3.76 0 0 0 1.68 2.6l.19.125a3.8 3.8 0 0 0 1.825.752c.305.035.614.022.915-.04a4.242 4.242 0 0 1 3.338.773l.086.056c.106.07.207.147.3.232a3 3 0 0 0 .895.573c.255.1.526.152.8.152h.019c.373.008.74-.092 1.057-.288.036.047.074.101.107.148.182.27.393.521.63.747a2.304 2.304 0 0 0 1.66.572c.214 0 .42-.015.6-.027l.203-.01c.126-.006.24-.014.32-.023.09-.01.179-.025.267-.046.173.125.38.193.594.195.095 0 .19-.014.283-.04l1.052-.346a1.07 1.07 0 0 0 .66-.585 1.565 1.565 0 0 0-.163-1.334zM65.966 43.56l-.08-.12c-.032-.05-.066-.1-.107-.16a3.291 3.291 0 0 1-.358-.616c.315.031.651.063.998.08l-.453.816zM47.795 44.945l-.552-.276a3.823 3.823 0 0 1-1.134-1.39c-.16-.267-.32-.542-.504-.796a3.748 3.748 0 0 0-.607-.64c-.035-.03-.08-.07-.116-.104a20.886 20.886 0 0 1-1.375-5.595 5.596 5.596 0 0 0-.67-1.966l-.01-.02a42.736 42.736 0 0 0-3.26-4.219c-.08-.087-.173-.175-.251-.252l-.058-.056-3.899-3.244-.058-.044a6.067 6.067 0 0 0-1.76-.94 5.01 5.01 0 0 0-3.403.118l-.065.031c-.339.18-.652.38-.96.576-.42.295-.874.54-1.351.727l-.08.032c-.405.17-.819.316-1.24.437a6.992 6.992 0 0 0-2.83 1.401c-.212.194-.385.358-.531.494-.155.155-.318.301-.488.439-.023 0-.07.005-.167.005a5.308 5.308 0 0 0-3.63 1.263l-.035.031a6.384 6.384 0 0 1-1.995 1.396c-.334.097-.679.157-1.027.178h-.04c-.481.027-.96.101-1.427.223a8.632 8.632 0 0 0-3.046 1.76c-.383.297-.63.48-.736.552-.08.05-.17.108-.245.152a5.504 5.504 0 0 1-2.755 1.034h-.049a1.458 1.458 0 0 1-1.218-.905 1.796 1.796 0 0 1 .538-1.76c.33-.33.72-.66 1.096-.98a11.21 11.21 0 0 0 1.772-1.742 2.83 2.83 0 0 0-.17-3.455 5.327 5.327 0 0 0-2.64-1.26l-.074-.019a1.974 1.974 0 0 0-.16-.03l-.053-.011-.297-.055a8.134 8.134 0 0 1-.489-.096 3.51 3.51 0 0 1-.949-.532 8.069 8.069 0 0 0-.753-.48l-.724-.39-.449.69a2.788 2.788 0 0 0-.436 1.787l.005.049a4.19 4.19 0 0 0 2.313 3.05l.028.011c.041.018.084.035.128.05a2.6 2.6 0 0 0 .794.186 13.493 13.493 0 0 0-1.84 1.794 4.56 4.56 0 0 0-.657 4.461 4.743 4.743 0 0 0 3.795 2.857c.252.04.507.059.762.058a6.566 6.566 0 0 0 1.285-.14v.017c.007.436.04.87.097 1.303.12.524.29 1.036.506 1.528l.016.04a4.454 4.454 0 0 1-.972.44c-.253.029-.526.044-.728.054a6.47 6.47 0 0 0-.309.021 1.353 1.353 0 0 0-.79.373 3.646 3.646 0 0 0-.673 1.28c-.092.235-.186.48-.278.676-.083.12-.186.227-.303.316a2.171 2.171 0 0 0-.573-.615l-.025-.02a1.266 1.266 0 0 0-1.473-.027l-.2.132-.054.036a9.85 9.85 0 0 0-.94.682 1.455 1.455 0 0 0-.459.78 1.047 1.047 0 0 0-.24.06 1.987 1.987 0 0 0-1.18 1.466c-.013.254-.04.507-.08.758l-.054.063a1.172 1.172 0 0 0-.007 1.585 4.35 4.35 0 0 0 1.752.635h.059l.149-.02.067-.02c.071-.02.14-.046.206-.08l.28.026c.174.021.348.052.519.093.347.088.702.137 1.06.147.392.005.78-.089 1.126-.272a2.68 2.68 0 0 0 1.13-1.19c.063-.11.128-.221.19-.31l.1.027c.196.058.397.095.6.111a3.52 3.52 0 0 0 2.256-.834c.166-.131.324-.28.468-.413.147-.144.303-.278.468-.4a1.65 1.65 0 0 1 .6-.09 7.46 7.46 0 0 1 1.306.16c.828.22 1.71.12 2.469-.279.372-.212.748-.408 1.05-.566l.05-.027c.166-.088.311-.16.427-.229a4.404 4.404 0 0 0 1.556-1.863c.16-.313.396-.897.46-1.059.064 0 .13.006.199.006.458-.013.914-.06 1.365-.143.292-.047.569-.09.779-.1h.037c.08-.007.168-.01.253-.01.424 0 1.04.05 1.502.102.386.043.648.08 1.158.103.07 0 .144.01.222.016.16.013.346.029.545.029a2.88 2.88 0 0 0 1.289-.294c.098.096.26.32.37.417h-.05a1.162 1.162 0 0 0-.848.358 2.614 2.614 0 0 0-1.2-.103c-.503.043-1.003.12-1.496.229a1.08 1.08 0 0 0-.824.62 1.251 1.251 0 0 0 .062 1.136c.266.48.523.907.794 1.36l.12.201a1.184 1.184 0 0 0 1.082.56c.08 0 .169-.005.267-.012h.027l.052.092c.21.433.507.818.872 1.132a2.573 2.573 0 0 0 1.66.587c.272 0 .541-.04.8-.121a21.555 21.555 0 0 0 3.448-1.323h.147l.092-.005c.072-.008.145-.013.219-.018a2.343 2.343 0 0 0 1.65-.632l.05-.05.038-.06c.205-.296.393-.594.568-.896.008.034.018.07.03.109l.007.024a1.792 1.792 0 0 0 1.735 1.12h.039a6.678 6.678 0 0 0 2.01-.485l.04-.014c.08-.03.164-.06.249-.09l.058-.022a3.487 3.487 0 0 1 1.87-.097l.1.016.1-.007a3.47 3.47 0 0 0 1.98-.875 4.967 4.967 0 0 0 3.744 1.576h.167l.24-.017.067-.016a1.078 1.078 0 0 0 .861-.968 1.058 1.058 0 0 0-.01-.279c.09-.01.179-.024.267-.044a1.112 1.112 0 0 0 .875-.911 1.046 1.046 0 0 0-.56-1.14zm-12.88-2.48-.132.12c-.3.258-.57.55-.8.872a8.72 8.72 0 0 1-.386-.708 4.447 4.447 0 0 0 1.12-.32c.07 0 .139-.005.207-.01l-.009.046z" fill="#fff"/><path d="M28.66 46.026a2.108 2.108 0 0 1-.088-.16 2.706 2.706 0 0 1-.188-.518c-.092-.32-.171-.6-.518-.55-.501.072-1.007.107-1.512.105-.008 0-.175 0-.227.117-.059.135.075.26.22.392.082.072.157.152.223.24.11.178.207.363.287.556.145.32.27.599.418.645a.7.7 0 0 0 .207.028c.413-.03.808-.184 1.133-.442.19-.166.128-.27.044-.413zM4.487 45.525l-.027-.021a.373.373 0 0 0-.411.014l-.26.173c-.3.19-.587.399-.863.624a.623.623 0 0 0-.18.4.335.335 0 0 0 .054.24c.025.027.245.273.291.312a.542.542 0 0 0 .351.14.656.656 0 0 0 .295-.08 3.725 3.725 0 0 0 1.107-1.316c.058-.155-.123-.301-.357-.486zM2.728 47.87c-.11-.157-.475-.584-.68-.584a.138.138 0 0 0-.05.01 1.156 1.156 0 0 0-.629.703c-.07.96-.098 1.06-.36 1.354-.073.08-.124.27-.04.355.36.16.736.286 1.12.372h.021c.085-.024.155-.24.345-.902.103-.355.22-.76.35-1.125.007-.026.009-.062-.077-.184z" fill="#D2003C"/><path d="m47.397 45.745-.58-.29a4.438 4.438 0 0 1-1.47-1.714c-.152-.253-.308-.513-.48-.753a3.082 3.082 0 0 0-.466-.48 1.459 1.459 0 0 1-.308-.32 22.068 22.068 0 0 1-1.48-5.98 4.754 4.754 0 0 0-.55-1.583 41.957 41.957 0 0 0-3.146-4.073 5.03 5.03 0 0 0-.227-.226l-.057-.056-3.844-3.197a5.232 5.232 0 0 0-1.55-.832c-.389-.134-.798-.2-1.21-.196a3.98 3.98 0 0 0-1.535.296c-.306.16-.604.353-.894.538a7.201 7.201 0 0 1-1.551.823c-.438.185-.886.344-1.342.475-.91.21-1.76.622-2.49 1.206-.207.19-.377.35-.52.486-.66.622-.73.688-1.27.688a4.421 4.421 0 0 0-3.064 1.057 7.072 7.072 0 0 1-2.302 1.58 5.471 5.471 0 0 1-1.243.223 6.683 6.683 0 0 0-1.345.207 7.978 7.978 0 0 0-2.698 1.6c-.268.21-.627.485-.8.596a8.366 8.366 0 0 1-.28.173 6.254 6.254 0 0 1-3.208 1.157h-.09a2.355 2.355 0 0 1-2.03-1.536 2.69 2.69 0 0 1 .762-2.656c.354-.355.757-.698 1.148-1.029.601-.47 1.15-1.006 1.635-1.595a1.951 1.951 0 0 0-.112-2.32 4.845 4.845 0 0 0-2.191-.994l-.08-.02c-.044-.01-.125-.02-.167-.03-.286-.057-.56-.096-.84-.165a9.603 9.603 0 0 1-1.902-1.089 1.925 1.925 0 0 0-.293 1.235 3.28 3.28 0 0 0 1.798 2.35l.112.043c.271.103.56.15.85.136h.356c.188-.007.376.008.56.047a.524.524 0 0 1 .372.43c.014.126-.043.224-.205.35-.148.125-.298.248-.448.372a15.114 15.114 0 0 0-2.181 2.064 3.674 3.674 0 0 0-.496 3.565 3.83 3.83 0 0 0 3.084 2.283c.21.033.422.05.634.049a8.082 8.082 0 0 0 1.978-.325.244.244 0 0 1 .06-.009c.03 0 .08 0 .094.146.02.282.034.604.047.913.023.505.045.983.08 1.183.11.465.263.92.456 1.356.063.153.112.275.13.334a.56.56 0 0 1-.134.554 4.533 4.533 0 0 1-1.638.815c-.29.036-.598.053-.823.064-.114.005-.204.01-.252.017a.446.446 0 0 0-.27.125 3.61 3.61 0 0 0-.462.966c-.105.27-.214.547-.32.778a3.4 3.4 0 0 1-1.32 1.096c-.124.072-.248.143-.367.218l-.014.014c-.183.319-.41.61-.674.866a1.204 1.204 0 0 1-.72.265h-.017l-.012.013a3.453 3.453 0 0 0-.635 1.61c-.018.087-.037.175-.057.262l-.016.08.052.005c.21.024.42.061.627.11.285.073.577.115.87.126.251.006.5-.054.72-.174a1.84 1.84 0 0 0 .763-.842c.116-.224.263-.43.436-.614a.499.499 0 0 1 .395-.168c.155.007.309.034.457.08.139.04.28.067.424.08a2.65 2.65 0 0 0 1.653-.64c.14-.11.277-.24.411-.365.2-.2.417-.38.65-.539.324-.142.676-.21 1.03-.197a8.404 8.404 0 0 1 1.5.184c.232.061.471.093.712.093.39.006.776-.09 1.12-.276.382-.217.766-.418 1.075-.58.18-.094.338-.178.465-.247a3.792 3.792 0 0 0 1.186-1.48c.16-.32.44-1.018.443-1.025l.012-.032-.64-.488-.026.044a10.67 10.67 0 0 1-.695 1.017c-1.127 1.536-2.96 1.732-4.435 1.732-.102 0-.204-.005-.305-.005a5.578 5.578 0 0 0-4.37 1.82.117.117 0 0 1-.084.048.117.117 0 0 1-.091-.03.152.152 0 0 1-.015-.131.897.897 0 0 1 .12-.303c1.144-1.622 3.093-1.862 4.665-1.89a6.83 6.83 0 0 0 2.741-.654 4.305 4.305 0 0 0 1.915-2.381c.165-.56.283-1.132.353-1.71.06-.455.143-.905.252-1.35a.14.14 0 0 1 .13-.091c.016 0 .031.003.046.01.06.009.173.053.174.14a5.888 5.888 0 0 0 .032 3.132 1.212 1.212 0 0 0 1.237.6c.411-.013.82-.057 1.225-.131.291-.052.585-.089.88-.11.109-.01.22-.014.333-.014.5.015.997.08 1.483.195.425.097.856.16 1.29.192.08 0 .16.01.25.018.154.012.313.024.474.024.296.023.59-.059.832-.23.135-.111.087-.276.027-.48l-.01-.038-.036-.116c-.085-.276-.215-.694 0-.886a.202.202 0 0 1 .119-.04.096.096 0 0 1 .1.066c.025.08.048.16.071.24.077.347.214.676.407.974a6.153 6.153 0 0 0 2.005 1.566 2.655 2.655 0 0 1 1.28 1.92c0 .407-.394.69-.687.868a4.132 4.132 0 0 1-1.629.488 1.075 1.075 0 0 1-.56-.218c-.45-.413-.4-.555-.692-1.047a5.524 5.524 0 0 0-.52-.77 1.238 1.238 0 0 0-1.11-.39c-.468.046-.93.123-1.388.23a.308.308 0 0 0-.224.174.368.368 0 0 0 .026.331c.26.465.514.89.783 1.34l.12.202a.341.341 0 0 0 .313.123c.06 0 .128-.005.198-.01s.152-.01.23-.01a.561.561 0 0 1 .48.174c.08.123.152.255.223.383.156.336.38.635.66.88.306.254.693.39 1.091.384.18 0 .36-.027.53-.08 1.206-.344 2.376-.8 3.495-1.364h.366c.08-.008.16-.016.245-.021a1.52 1.52 0 0 0 1.068-.355c.35-.508.662-1.04.932-1.594a1.37 1.37 0 0 0 .006-1.36 9.623 9.623 0 0 1-1.128-2.213l-.008-.021-.022-.007a2.869 2.869 0 0 1-.25-.09 1.51 1.51 0 0 0-.564-.14h-.027a.51.51 0 0 0-.48.22l-.01.021 1.289 2.546c.115.213.16.457.128.698a4.48 4.48 0 0 1-.874 1.42.222.222 0 0 1-.11.046c-.017 0-.08-.014-.04-.16.15-.553.228-1.123.232-1.696a15.837 15.837 0 0 0-1.171-2.228l-.02-.032a1.583 1.583 0 0 1-.324-.885.353.353 0 0 1 .24-.297c.183-.06.37-.107.56-.14.458-.1.933-.204 1.102-.461a6.913 6.913 0 0 0 1.028-2.741c.009-.05.044-.145.116-.145.042 0 .08.015.101.112a4.123 4.123 0 0 1-.705 3.094.341.341 0 0 0-.045.246c.02.066.06.124.117.164a2.48 2.48 0 0 0 1.814-.275 6.87 6.87 0 0 0 1.43-.164l.431-.08c.041.021.073.056.09.1-.383.433-.64.963-.74 1.533a6.817 6.817 0 0 1-.34.32 2.166 2.166 0 0 0-.896 1.366.201.201 0 0 0 .2.213.522.522 0 0 0 .215-.06.513.513 0 0 1 .223-.056.145.145 0 0 1 .124.136l-.48.702a1.128 1.128 0 0 0-.03.908c.053.168.029.298.074.444a.927.927 0 0 0 .888.518c.601-.054 1.19-.2 1.747-.433l.297-.106a4.31 4.31 0 0 1 2.368-.16 3.312 3.312 0 0 0 1.91-1.054 1.112 1.112 0 0 1 .744.423 4.054 4.054 0 0 0 3.126 1.33h.144l.128-.011c.133-.031.167-.095.174-.179.009-.1-.068-.196-.21-.264l-.71-.378a2.949 2.949 0 0 1-1.36-1.369 7.519 7.519 0 0 0-.783-1.648c-.05-.08-.106-.16-.165-.245a3.195 3.195 0 0 1-.277-.45c.791.352 1.413 1 1.73 1.806a3.023 3.023 0 0 0 2.36 1.475c.122 0 .245-.013.365-.04a.217.217 0 0 0 .184-.175.165.165 0 0 0-.081-.19zM33.565 34.29c-.022.075-.068.124-.119.124-.022 0-.08-.01-.096-.106a7.804 7.804 0 0 0-.56-2.008 2.674 2.674 0 0 0-.25-.392c-.173-.24-.32-.44-.154-.715a.363.363 0 0 1 .306-.135c.062 0 .124.012.18.038.27.177.476.433.59.734.287.79.323 1.649.103 2.46zm6.463 10.24a.787.787 0 0 1-.168.415 1.765 1.765 0 0 1-.88.182c-.257-.01-.346-.046-.4-.125-.054-.08.038-.262.038-.262a1.642 1.642 0 0 1 .939-.854.53.53 0 0 1 .381.02c.184.094.099.56.09.625v-.001zm1.76-4.042a1.167 1.167 0 0 1-.126.41.28.28 0 0 1-.262.182c-.194 0-.18-.228-.18-.259a3.377 3.377 0 0 0-.145-.897c-.132-.29-.767-1.106-1.133-1.072a1.03 1.03 0 0 0-.51.384c-.216.28-.214.313-.282.356-.067.042-.152.02-.181-.145a1.214 1.214 0 0 1 .018-.615c.06-.212.142-.417.247-.61 0 0 .19-.442.263-.553a.548.548 0 0 1 .46-.279.622.622 0 0 1 .541.28c.12.135.222.285.302.447.115.183.25.354.4.509.26.309.45.669.56 1.057.062.264.07.538.026.806h.002zM72.767 45.163a.313.313 0 0 0-.235-.08.67.67 0 0 0-.08.005 4.378 4.378 0 0 1-.566.037c-.107 0-.202 0-.289-.007-.087-.006-.15-.006-.22-.006a1.648 1.648 0 0 0-.306.026h-.02l-.01.018c-.196.323-.31.69-.331 1.066.052.435.497.524.831.59.131.03.265.047.4.05a.48.48 0 0 0 .48-.24c.175-.43.3-.878.374-1.336a.143.143 0 0 0-.028-.123zM96.779 46.599a3.2 3.2 0 0 0-.864-.736 3.768 3.768 0 0 1-.333-.24l-.058-.043a.353.353 0 0 0-.24-.088.88.88 0 0 0-.695.53c-.01.2.272.55.64.989l.08.094a.887.887 0 0 0 .6.357.78.78 0 0 0 .566-.24c.14-.12.438-.43.304-.623zM98.316 49.159a1.935 1.935 0 0 1-.126-.312c-.032-.146-.051-.301-.07-.452a2.54 2.54 0 0 0-.135-.647.66.66 0 0 0-.579-.372.537.537 0 0 0-.24.056c-.362.181-.575.373-.516.78.172.524.315 1.059.427 1.6.015.089.075.381.216.381.011 0 .022-.002.032-.005l1.04-.34a.165.165 0 0 0 .11-.094c.057-.135-.053-.37-.159-.595z" fill="#D2003C"/><path d="M96.487 49.983a6.327 6.327 0 0 0-.523-1.84l-.013-.03h-.03c-.6.037-.974-.45-1.333-.918a5.586 5.586 0 0 0-.35-.428c-.177-.2-.37-.387-.575-.56a2.005 2.005 0 0 1-.463-.49 6.198 6.198 0 0 1-.265-.844c-.064-.235-.124-.457-.18-.607a2.17 2.17 0 0 1-.035-.095c-.108-.29-.24-.65-.616-.712a5.1 5.1 0 0 0-.585-.048 1.708 1.708 0 0 1-1.366-.505.972.972 0 0 1-.006-1.04 3.08 3.08 0 0 0 .145-.436 4.17 4.17 0 0 0 .114-2.036c-.023-.092-.054-.183-.08-.27a1.451 1.451 0 0 1-.111-.709.215.215 0 0 1 .23-.128c.105.007.209.027.308.061.074.021.13.032.2.048.34.085.69.131 1.04.139a4.637 4.637 0 0 0 1.8-.368 3.436 3.436 0 0 0 2.018-3.061c-.136-1.432-1.021-2.816-2.706-4.23l-.127-.106c-.22-.181-.48-.408-.49-.613-.01-.205.518-.326.85-.4.08-.018.145-.033.202-.048l.085-.023a3.724 3.724 0 0 0 1.21-.47 2.898 2.898 0 0 0 1.023-3.02.74.74 0 0 1-.018-.074c-.022-.103-.05-.232-.144-.232a.136.136 0 0 0-.09.044 3.147 3.147 0 0 0-.109.102c-.14.144-.297.271-.468.378a4.203 4.203 0 0 1-1.284.414 7.043 7.043 0 0 0-.846.215 3.203 3.203 0 0 0-2.204 1.8 1.806 1.806 0 0 0 .203 1.412 9.518 9.518 0 0 0 1.503 1.68 5.568 5.568 0 0 1 1.96 2.839 1.71 1.71 0 0 1-.838 1.737c-.398.225-.85.338-1.307.326a3.992 3.992 0 0 1-1.826-.458 19.162 19.162 0 0 1-2.029-1.239 12.803 12.803 0 0 0-3.137-1.691 7.273 7.273 0 0 0-1.556-.437 4.904 4.904 0 0 1-2.134-.791c-.212-.138-.423-.29-.627-.44a5.568 5.568 0 0 0-1.8-.992 3.895 3.895 0 0 0-.72-.151 2.135 2.135 0 0 1-1.008-.32l-.425-.308a11.86 11.86 0 0 0-1.6-1.048 12.668 12.668 0 0 0-3.026-.944 1.553 1.553 0 0 1-.805-.634A2.56 2.56 0 0 0 71 26.86a4.123 4.123 0 0 0-2.62-1.126c-.093 0-.187 0-.28.011-.521.097-1 .351-1.373.727-.995.87-2.064 1.644-3.097 2.393a28.584 28.584 0 0 0-4.493 3.754c-1.339 1.381-1.826 3.108-2.297 4.777l-.211.739a52.23 52.23 0 0 0-.357 1.38c-.614 2.463-1.248 4.922-3.709 6.52a.205.205 0 0 0 .047.369 2.032 2.032 0 0 0 2.124-.662c.64-.754.967-1.48 1.712-2.278.025-.024.11-.106.18-.085.052.015.076.045.052.137-.11.316-.272.61-.48.87-.21.271-.376.573-.492.895a4.58 4.58 0 0 1-1.478 1.783.737.737 0 0 0-.146.127c-.055.067-.052.097-.052.097-.016.16.107.25.356.262 1.379 0 2.36-.98 3.308-1.93a.212.212 0 0 1 .16-.06.276.276 0 0 1 .152.025c.113.083.22.175.32.275.285.304.645.528 1.045.648h.016c.47-.076.945-.119 1.421-.128.133 0 .263.004.375.012.504.152 1.006.341 1.49.524.345.13.698.263 1.054.384h.016c.46-.017.79-.444 1.03-.822a1.28 1.28 0 0 0 .007-.786 1.834 1.834 0 0 1-.053-.453.564.564 0 0 1 .325-.016c.107.01.214.007.32-.008a.28.28 0 0 0 .212-.338 2.968 2.968 0 0 0-.552-1.097 3.496 3.496 0 0 1-.488-.903 3.507 3.507 0 0 0-.784-1.108 2.81 2.81 0 0 1-.8-1.234s-.032-.1.004-.137c.036-.037.132.006.132.006.164.121.331.256.492.387a3.77 3.77 0 0 0 1.72.96c.641.085 1.29.112 1.935.08a.254.254 0 0 0 .219-.327 10.015 10.015 0 0 1-.695-1.792 5.297 5.297 0 0 1-.132-2.738.16.16 0 0 1 .15-.127c.009 0 .017.002.024.005a.305.305 0 0 1 .193.25l.01.126a6.34 6.34 0 0 0 .986 3.624c.21.298.493.54.821.701.221.103.421.245.59.42a.819.819 0 0 1 .08.807l-.988 1.458a3.2 3.2 0 0 0-.542 1.054 3.68 3.68 0 0 0-.012 1.07l.008.08a.18.18 0 0 1-.073-.08 2.062 2.062 0 0 1-.277-1.802c.132-.304.936-1.444 1.172-1.82.075-.119.136-.24.072-.32a2.27 2.27 0 0 0-.842-.361.122.122 0 0 0-.032 0 .64.64 0 0 0-.312.285l-.056.08-1.219 2.213-.027.08c-.09.211-.116.444-.072.67.066.332.171.689.248.949l.062.216c.067.337.196.657.381.946a.517.517 0 0 0 .421.185c.094-.003.187-.012.28-.029.145-.031.295-.035.442-.011a.953.953 0 0 1 .444.327c.124.16.29.282.48.354.376.125.772.23 1.155.33.52.125 1.034.281 1.537.466.282.103.579.162.88.175a1.15 1.15 0 0 0 .81-.32 1.68 1.68 0 0 0 .624-1.098c.08-.42.218-.45.524-.467a.858.858 0 0 0 .314-.049c.346-.28.627-.633.823-1.033.06-.112.124-.22.194-.325a.486.486 0 0 0 .097-.28.294.294 0 0 0-.186-.271.292.292 0 0 0-.115-.02h-.08s-1.301-.006-1.658 0c-.535.03-.769.543-.955.997-.064.168-.141.33-.232.486a.807.807 0 0 1-.757.4 3.002 3.002 0 0 1-.432-.088c-.703-.173-1.429-.351-1.725-1.048a.63.63 0 0 1 .104-.576c.415-.502.877-.965 1.378-1.381a2.898 2.898 0 0 0 1.802-1.33 1.38 1.38 0 0 0 .165-.374.845.845 0 0 1 .305-.502c.114-.057.206-.037.23.062.032.367-.04.735-.207 1.063-.03.08-.06.154-.087.229l-.02.055.059.006c.199.02.398.03.598.03.7-.02 1.396-.102 2.08-.246a11.54 11.54 0 0 1 2.055-.24c.076 0 .152 0 .23.004.314 0 .62.027.915.053.296.027.59.054.89.054.106 0 .207 0 .305-.01a1.768 1.768 0 0 0 1.76-1.102 6.577 6.577 0 0 0-.06-2.848l-.019-.114v-.025a.13.13 0 0 1 .066-.135c.08-.044.174 0 .217.108.307.92.524 1.867.646 2.828.15.822.472 1.602.947 2.288a3.454 3.454 0 0 0 2.925 1.52 6.4 6.4 0 0 0 .846-.09c.132-.017.266-.022.4-.014a4.82 4.82 0 0 1 3.88 1.93c.013.018.018.04.016.062a.108.108 0 0 1-.146.08l-.131-.102a6.098 6.098 0 0 0-2.894-1.509 3.52 3.52 0 0 0-.64-.053c-.32.005-.64.03-.957.072-.298.04-.598.063-.899.068a2.645 2.645 0 0 1-1.02-.183 5.105 5.105 0 0 1-2.695-2.845.16.16 0 0 0-.137-.087.205.205 0 0 0-.109.035c-.15.094-.175.145-.198.24.032.346.085.689.16 1.028a3.017 3.017 0 0 0 1.335 2.219 3.36 3.36 0 0 0 1.66.742c.193.019.387.01.577-.025.33-.073.666-.11 1.004-.11a5.263 5.263 0 0 1 3.066 1.029c.154.095.3.204.435.325.186.179.403.322.64.424.155.062.32.094.487.093.292-.003.576-.097.813-.27a.833.833 0 0 1 .346-.085c.33 0 .516.258.748.586.15.223.322.43.515.616a1.45 1.45 0 0 0 1.048.33c.178 0 .36-.014.537-.026.178-.012.376-.016.48-.028.056-.006.11-.015.165-.028l.006-.036zm-35.12-4.93a.432.432 0 0 1-.396.172.831.831 0 0 1-.448-.125 1.076 1.076 0 0 1-.413-.855.248.248 0 0 1 .274-.305c.314.022.607.166.816.4.015.015.328.43.167.709v.004zm.34-5.44a.292.292 0 0 1-.352.133.714.714 0 0 1-.3-.32c-.085-.15-.155-.283-.356-.267a.163.163 0 0 0-.03 0 .846.846 0 0 0-.453.212c-.072.055-.355.268-.427.328-.405.268-.71.662-.868 1.12-.04.165-.04.165-.054.24a.56.56 0 0 1-.19.41l-.012.006a.22.22 0 0 1-.06.01.258.258 0 0 1-.165-.065.196.196 0 0 1-.08-.154 2.351 2.351 0 0 1 .748-1.992 6.22 6.22 0 0 0 .922-1.017c.135-.174.275-.354.42-.52.11-.11.29-.015.587.308.274.383.505.796.69 1.23a.433.433 0 0 1-.023.334l.003.004zm6.494-9.12c-.149.142-.304.283-.46.426a8.624 8.624 0 0 0-1.495 1.608c-.17.248-.315.51-.434.786-.014.028-.044.09-.106.09a.116.116 0 0 1-.08-.04 2.261 2.261 0 0 1 .118-1.216 5.548 5.548 0 0 1 1.896-2.355.64.64 0 0 1 .333-.096.356.356 0 0 1 .354.213.455.455 0 0 1-.126.58v.004z" fill="#D2003C"/><path d="M40.472 26.798a9.31 9.31 0 1 1 18.618 0 9.31 9.31 0 0 1-18.618 0z" fill="#fff"/><path d="M42.785 31.82a9.168 9.168 0 0 0 14.447-8.215 9.679 9.679 0 0 0-.285-1.581 8.611 8.611 0 0 1-14.16 9.795h-.002z" fill="#DADADA"/><path fill-rule="evenodd" clip-rule="evenodd" d="M44.263 33.409a8.61 8.61 0 0 1-2.88-4.715c.461.48 1.352 1.393 1.352 1.393a31.371 31.371 0 0 0 1.877 3.035 2.096 2.096 0 0 1-.349.287zm5.52-15.223a8.584 8.584 0 0 1 3.213.619 4.035 4.035 0 0 1-.504 1.19 19.869 19.869 0 0 0-3.789-.05l-1.657-1.315a8.6 8.6 0 0 1 2.735-.444h.002zm-.729 13.76 3.723-.101.72 2.029c-.977.55-2.019.978-3.1 1.274-1.002-.197-1.953-.59-2.8-1.158l1.457-2.044zm3.907-6.456a22.533 22.533 0 0 1 1.66-2.85c.899.42 1.757.92 2.566 1.494.233 1.215.267 2.46.1 3.688-.804.433-1.66.76-2.548.972 0 0-1.026-1.723-1.78-3.3l.002-.004zm-9.038-5.004c-.492.809-.934 1.647-1.325 2.51a23.795 23.795 0 0 0-1.13 1.55 8.613 8.613 0 0 1 2.455-4.06zm3.32 8.463c-2.013-.487-3.387-.973-3.387-.973a21.155 21.155 0 0 1-.034-3.889c.87-.453 3.236-1.51 3.236-1.51.799.944 1.533 1.941 2.196 2.985-.52 1.006-2.012 3.387-2.012 3.387z" fill="#001D46"/><path d="m30.41 50.667 1.6 1.96a1.256 1.256 0 0 1-.181 1.78l-2.994 2.44a1.012 1.012 0 0 1-.6.279 1.434 1.434 0 0 1-.512-.1.819.819 0 0 1 0 .516 1.49 1.49 0 0 1-.52.633l-2.874 2.343a1.255 1.255 0 0 1-1.78-.182l-1.6-1.96 9.46-7.71zm-7.68 7.89.8.98 3.258-2.656-.8-.98-3.258 2.656zm4.24-3.455.8.98 3.259-2.656-.8-.98-3.26 2.656zM33.593 54.37l1.994 1.553a1.254 1.254 0 0 1 .22 1.776l-2.376 3.046c-.123.19-.307.333-.522.405a1.425 1.425 0 0 1-.521.016c.092.15.133.327.117.503a1.487 1.487 0 0 1-.367.733l-2.499 3.207c-.1.123-.173.264-.217.416-.042.16-.075.323-.098.487l-1.024-.8c.026-.153.064-.305.114-.453.05-.155.128-.3.228-.43l2.806-3.6-.997-.777-3.36 4.311-.997-.777 7.499-9.617zm-2.367 5.089.997.777 2.586-3.314-.997-.778-2.586 3.315zM36.785 58.92c.107-.23.263-.433.456-.597.374-.32.853-.489 1.345-.475a1.834 1.834 0 0 1 1.325.635c.32.374.488.853.475 1.344a1.79 1.79 0 0 1-.179.73l-4.493 9.387-1.14-.545 2.361-4.932-1.14-.547-2.361 4.933-1.141-.546 4.492-9.387zm-.446 3.86 1.141.546 1.815-3.792-1.14-.546-1.816 3.792zM41.663 61.072c.057-.246.166-.477.32-.678a1.973 1.973 0 0 1 1.216-.745 1.834 1.834 0 0 1 1.428.345c.39.299.656.732.744 1.216.047.249.04.505-.022.75l-.32 1.347-1.23-.296.448-1.861-1.23-.296-2.263 9.404 1.229.296.983-4.087-.532-.128.296-1.23 1.76.425-1.156 4.8a1.783 1.783 0 0 1-.32.678c-.3.39-.733.656-1.216.744a1.834 1.834 0 0 1-1.43-.344 1.976 1.976 0 0 1-.743-1.217 1.764 1.764 0 0 1 .022-.75l2.016-8.373zM46.91 62.168c.006-.253.067-.502.177-.73.214-.442.585-.79 1.04-.974a1.833 1.833 0 0 1 1.47.047c.442.213.79.584.974 1.04.096.234.14.486.13.739l-.334 10.4-1.264-.04.175-5.466-1.264-.041-.175 5.466-1.264-.04.335-10.4zm1.145 3.713 1.264.04.136-4.2-1.264-.042-.136 4.202zM51.978 60.416l1.179-.202c.442 1.23.908 2.45 1.398 3.662.49 1.21.947 2.473 1.368 3.788l.033-.007a32.628 32.628 0 0 0-.212-.934c-.086-.367-.17-.745-.255-1.135-.085-.39-.16-.772-.24-1.147-.08-.374-.137-.697-.183-.966l-.597-3.486 1.246-.214 2.058 12.027-1.18.202c-.442-1.23-.908-2.451-1.398-3.662a54.882 54.882 0 0 1-1.368-3.788l-.032.006c.063.243.137.551.219.925a190.174 190.174 0 0 1 .488 2.292c.075.374.136.696.182.966l.597 3.487-1.246.213-2.056-12.027zM58.103 60.31l-1.182.445-.447-1.183 3.55-1.34.447 1.184-1.184.446 3.864 10.231-1.183.447-3.865-10.23zM60.898 57.72l1.101-.622 5.99 10.63-1.1.621-5.991-10.63zM63.191 56.418l.926-.758c.99.854 1.998 1.685 3.022 2.496a52.738 52.738 0 0 1 3.058 2.62l.027-.021a61.08 61.08 0 0 0-.645-.71 69.442 69.442 0 0 1-2.19-2.491l-2.24-2.739.978-.8 7.722 9.448-.926.757a94.16 94.16 0 0 0-3.022-2.496 52.66 52.66 0 0 1-3.058-2.62l-.026.021c.177.18.392.412.646.697l.781.873c.267.3.525.593.774.88.249.288.46.538.635.75l2.24 2.74-.98.8-7.722-9.447zM68.314 54.338a1.789 1.789 0 0 1-.487-.572 1.98 1.98 0 0 1-.179-1.415 1.83 1.83 0 0 1 .901-1.161c.215-.115.449-.19.69-.222.242-.03.488-.016.724.043.246.06.476.172.675.328l6.806 5.28c.202.154.368.349.487.572.234.433.297.937.179 1.414a1.835 1.835 0 0 1-.9 1.163 1.98 1.98 0 0 1-1.415.178 1.782 1.782 0 0 1-.676-.329l-6.805-5.28zm1.131-2.32-.774.999 7.644 5.927.775-.999-7.645-5.927z" fill="#001D46"/></svg>