<svg fill="none" xmlns="http://www.w3.org/2000/svg" viewBox="0 0 128 91"><path fill-rule="evenodd" clip-rule="evenodd" d="M49.979 38.117l-5.332 3.077V20.084l5.33 3.077a17.216 17.216 0 00-1.514 4.186l-.258 1.14c1.762-.937 3.521-1.875 5.283-2.81l.213-.368 5.086 2.936.569.337v4.122l-.192.11-.002-.002-.258.147-5.205 3.005-.11-.192-.078-.134-5.282-2.81.257 1.14a17.23 17.23 0 001.493 4.143v.005zm9.704-10.587l-5.446-3.144.138-.237-.241-6.125-.856.803a16.28 16.28 0 00-2.775 3.402l-5.323-3.072L63.462 8.603v6.155a17.232 17.232 0 00-4.354.737l-1.118.337 5.046 3.217.426.005-.01 6.539c-1.19.686-2.379 1.373-3.567 2.061l-.204-.12.002-.002v-.002zm4.853-2.866v-5.599l.112.003.154.002 5.213-3.222-1.118-.35a16.148 16.148 0 00-4.359-.742V8.603l9.141 5.278 9.14 5.278-5.322 3.072a16.22 16.22 0 00-2.803-3.451l-.856-.802-.24 6.125.163.283-5.098 2.943-.349.201-.206.12c-1.19-.688-2.381-1.376-3.572-2.062v-.924zM88.93 15.63l-5.042 2.91c-6.45-3.725-12.9-7.45-19.35-11.172V1.544l12.195 7.042 12.197 7.043zM63.46 7.367L44.112 18.54l-5.042-2.91 12.197-7.043h.002l12.194-7.04v5.821zm5.18 21.216l.77-.45 4.886-2.82.107.184.078.133 5.282 2.81-.257-1.14a17.27 17.27 0 00-1.49-4.136l5.332-3.079v21.11l-5.335-3.078a17.388 17.388 0 001.458-4.073l.257-1.14-5.283 2.81-.15.258-5.039-2.911-.405-.234-.002.002-.21-.119v-4.125l.002-.002zM54.32 47.401l-9.141-5.279 5.32-3.072a16.217 16.217 0 002.798 3.442l.857.803.24-6.126-.16-.276 4.732-2.732.005-.003.72-.416-.002-.005.19-.112c1.188.685 2.377 1.373 3.565 2.061l.012.798v5.741l-.274.003-.152.002-5.047 3.217 1.121.337c1.477.444 2.927.685 4.354.737v6.155L54.32 47.4h-.003.003zm10.207-11.706c1.196-.69 2.39-1.382 3.587-2.07l.206.121-.002.005.327.19 5.117 2.955-.124.212-.077.134.24 6.125.857-.802a16.15 16.15 0 002.84-3.512l5.318 3.072-9.14 5.278h-.003l-9.139 5.276v-6.151a16.148 16.148 0 004.36-.742l1.117-.35-5.212-3.222-.265.002V35.92h-.007l-.002-.22.002-.005zm19.899 6.12v-22.35l5.037-2.908v28.17l-5.037-2.909v-.002zm6.11 4.144V15.322L64.266.154 63.997 0 37.462 15.322V45.96C46.308 51.067 55.154 56.172 64 61.281L90.538 45.96h-.002zM43.574 19.465v22.348l-5.037 2.909V16.555l5.037 2.908v.002zm.538 23.275l9.677 5.587 9.676 5.587v5.82L39.072 45.65l5.041-2.91h-.002zm20.425 11.174l9.676-5.587 9.677-5.587 5.042 2.91-24.395 14.085v-5.821zM0 74.093l93.432-6.834-4.4 16.885c-.42 1.673-1.367 3.743.226 5.14.532.466 1.102.718 2.097.718h8.806c2.152 0 3.998-1.508 4.733-3.355l4.352-16.576h-5.512l-4.432 16.555c-.83 1.776-2.498 1.458-4.054 1.458-.665 0-1.259-.599-1.259-1.259l5.54-21.678c.262-1.06.538-.98-.64-.883L.718 73.672c-.41.007-.628.023-.719.419v.002zM115.659 77.565l1.497-5.573c1.078 0 2.157.002 3.236-.003 1.003-.004 1.855.347 1.855 1.44 0 .413-.386 1.663-.503 2.133-.18.73-.58 1.23-1.114 1.582-.788.521-1.041.418-2.279.418h-2.695l.003.003zm-8.741 12.437h5.332c.271 0 .442-1.057.552-1.486l2.316-8.974h7.19c1.937.011 3.572-1.084 4.576-2.614.377-.573 1.114-2.966 1.114-3.68 0-.62.007-1.109-.323-1.654-.658-1.086-1.477-1.52-2.791-1.52h-12.761c-.198 0-.198.191-.301.598l-4.942 18.755c-.068.261-.236.575.035.575h.003z" fill="#fff"/><path fill-rule="evenodd" clip-rule="evenodd" d="M21.573 87.188c-.783 0-2.929.266-2.837-1.194.046-.76.25-1.12.977-1.687 1.21-.94 3.87-.774 5.363-.774-.917 2.026-1.006 3.652-3.503 3.652v.002zm-4.066-8.723l-.601 1.865 7.557-.447c.772-.068 1.422.459 1.357 1.49l-7.927.595c-1.474.098-3.023 1.12-4.047 2.283-1.285 1.458-1.397 3.161-.024 4.237.592.466 1.393.564 2.359.564h8.432c1.902 0 3.558-.812 4.838-2.442.79-1.006 1.296-3.02 1.771-4.343.522-1.446.924-3.518-.828-4.314-.487-.222-1.144-.285-1.825-.24l-11.062.752zM61.195 89.05c.283 0 .32-.515.496-1.034.128-.38.269-.857.374-1.278-1.048 0-5.86.265-6.476-.224l-.166-.157c-.475-.522-.41-1.27-.215-2.007.456-1.734 1.14-3.617 1.717-5.337.082-.243.183-.353.531-.372l5.302-.293.629-2.311-5.601.297 1.245-4.398-5.438.397c-.425.085-.29.07-.435.55-1.15 3.687-2.206 6.911-3.373 10.592-.363 1.26-1.2 2.966.018 4.59.274.365.66.601 1.039.753 1.308.527 8.502.232 10.353.232zm11.653-.838c.499.618 1.278.838 2.3.838l10.87-.002.72-2.607-7.669.075c-.814 0-1.22-.845-1.153-1.937.06-.992 1.097-4.286 1.56-5.54.302-.817.73-1.542 1.69-2.003.961-.461 6.96-.573 8.35-.655l.72-2.614c-2.016.127-11.195.368-12.596 1-1.467.662-3.03 2.29-3.727 3.92-.255.6-.99 3.162-1.205 3.966-.564 2.097-1.315 3.755.14 5.557v.002zm-40.587-2.145c-.136 2.178 1.47 2.98 3.151 2.98l11.083-.004.674-2.157-7.503.075c-.62.004-.927-.087-1.233-.464-.777-.959.936-5.968 2.208-6.958.817-.636 1.713-.706 2.712-.746l6.364-.257.645-2.108-10.556.545c-2.735.273-4.548 1.223-5.75 3.802-.784 1.68-1.741 4.403-1.797 5.29l.002.002zM.62 78.03l5.603-.372-4.178 11.39h5.4l4.695-11.912 5.604-.371.662-1.865-16.473 1.202c-.82.047-.737.169-.861.55l-.454 1.38.002-.002zm62.395 11.017l5.585-.074 3.837-13.418-5.522.32c-.168.045-.283.19-.356.436l-3.616 12.247c-.078.27-.188.49.07.49h.002zm5.016-17.74l-.678 2.245-.304 1.053 5.71-.316 1.002-3.43-5.73.447z" fill="#fff"/></svg>