<svg fill="none" xmlns="http://www.w3.org/2000/svg" viewBox="0 0 185 62"><path fill-rule="evenodd" clip-rule="evenodd" d="M12.512 38.117l-5.33 3.077V20.084l5.328 3.077a17.224 17.224 0 00-1.514 4.186l-.257 1.14c1.761-.937 3.52-1.875 5.28-2.81l.214-.368 5.084 2.936.568.337v4.122l-.192.11-.002-.002-.257.147-5.204 3.005-.11-.192-.077-.134-5.28-2.81.257 1.14c.339 1.502.84 2.882 1.492 4.143v.005zm9.7-10.587l-5.444-3.144.138-.237-.24-6.125-.857.803a16.278 16.278 0 00-2.773 3.402l-5.32-3.072L25.99 8.603v6.155a17.219 17.219 0 00-4.353.737l-1.117.337 5.044 3.217.426.005-.01 6.539c-1.19.686-2.378 1.373-3.566 2.061l-.204-.12.003-.002v-.002zm4.851-2.866v-5.599l.112.003.155.002 5.21-3.222-1.118-.35a16.136 16.136 0 00-4.357-.742V8.603l9.138 5.278 9.137 5.278-5.32 3.072a16.22 16.22 0 00-2.802-3.451l-.856-.802-.241 6.125.163.283-5.095 2.943-.349.201-.206.12c-1.19-.688-2.38-1.376-3.57-2.062v-.924zM51.45 15.63l-5.04 2.91c-6.448-3.725-12.896-7.45-19.343-11.172V1.544l12.191 7.042 12.192 7.043zm-25.46-8.262c-6.447 3.725-12.895 7.447-19.342 11.172l-5.04-2.91 12.191-7.043h.002l12.19-7.04v5.821zm5.178 21.216l.77-.45 4.883-2.82.108.184.077.133 5.28 2.81-.257-1.14c-.339-1.499-.84-2.877-1.49-4.136l5.33-3.079v21.11l-5.332-3.078a17.391 17.391 0 001.457-4.073l.258-1.14-5.281 2.81-.15.258-5.037-2.911-.405-.234-.002.002-.21-.119v-4.125l.002-.002zM16.85 47.401l-9.137-5.279 5.318-3.072a16.215 16.215 0 002.797 3.442l.856.803.241-6.126-.161-.276 4.73-2.732.005-.003.72-.416-.002-.005.19-.112c1.188.685 2.376 1.373 3.564 2.061l.012.798v5.741l-.274.003-.152.002-5.044 3.217 1.12.337a17.19 17.19 0 004.352.737v6.155L16.85 47.4h-.002.002zm10.204-11.706c1.195-.69 2.388-1.382 3.585-2.07l.206.121-.003.005.328.19 5.114 2.955-.123.212-.078.134.241 6.125.856-.802a16.149 16.149 0 002.84-3.512l5.315 3.072-9.137 5.278h-.002l-9.135 5.276v-6.151a16.136 16.136 0 004.357-.742l1.118-.35-5.21-3.222-.265.002V35.92h-.007l-.003-.22.003-.005zm19.89 6.12v-22.35l5.035-2.908v28.17l-5.035-2.909v-.002zm6.109 4.144V15.322L26.792.154 26.525 0 0 15.322V45.96c8.843 5.108 17.685 10.213 26.528 15.322L53.055 45.96h-.002zM6.109 19.465v22.348l-5.036 2.909V16.555l5.036 2.908v.002zm.538 23.275l9.672 5.587 9.673 5.587v5.82L1.609 45.65l5.04-2.91h-.002zm20.416 11.174l9.673-5.587 9.673-5.587 5.04 2.91-24.386 14.085v-5.821zM57.053 27.882l93.395-6.834-4.399 16.885c-.418 1.673-1.365 3.744.227 5.14.531.466 1.102.719 2.096.719h8.802c2.152 0 3.997-1.51 4.732-3.355l4.35-16.577h-5.51l-4.43 16.556c-.83 1.775-2.498 1.457-4.053 1.457-.664 0-1.258-.599-1.258-1.259l5.538-21.678c.262-1.06.538-.98-.641-.883l-98.13 9.408c-.41.007-.627.024-.718.419v.002zM172.666 31.354l1.497-5.573c1.078 0 2.156.002 3.234-.003 1.003-.004 1.855.347 1.855 1.44 0 .413-.386 1.663-.503 2.133-.18.73-.58 1.23-1.114 1.582-.788.521-1.04.418-2.277.418h-2.695l.003.003zm-8.737 12.437h5.329c.272 0 .442-1.057.552-1.486l2.316-8.974h7.186c1.937.011 3.571-1.084 4.575-2.614.376-.573 1.113-2.966 1.113-3.68 0-.62.007-1.109-.323-1.654-.657-1.085-1.475-1.52-2.79-1.52h-12.755c-.199 0-.199.191-.302.598l-4.939 18.755c-.068.262-.236.575.035.575h.003z" fill="#fff"/><path fill-rule="evenodd" clip-rule="evenodd" d="M78.619 40.977c-.784 0-2.928.266-2.837-1.194.047-.76.25-1.12.977-1.687 1.21-.94 3.869-.774 5.36-.774-.916 2.026-1.005 3.652-3.5 3.652v.003zm-4.065-8.722l-.601 1.864 7.554-.447c.772-.067 1.422.459 1.356 1.49l-7.923.595c-1.473.098-3.022 1.12-4.046 2.283-1.284 1.458-1.396 3.161-.023 4.237.591.466 1.391.564 2.357.564h8.429c1.9 0 3.557-.812 4.836-2.442.79-1.006 1.296-3.02 1.77-4.343.522-1.445.924-3.518-.828-4.314-.486-.222-1.143-.285-1.824-.24l-11.057.753zm43.67 10.584c.283 0 .32-.515.496-1.034.129-.38.269-.856.374-1.278-1.048 0-5.858.265-6.473-.224l-.166-.157c-.475-.522-.41-1.27-.216-2.007.456-1.734 1.139-3.617 1.717-5.337.082-.243.182-.353.531-.372l5.299-.292.629-2.312-5.598.297 1.244-4.398-5.435.397c-.426.085-.29.07-.435.55-1.151 3.687-2.206 6.911-3.373 10.592-.362 1.26-1.199 2.966.019 4.59.274.365.66.601 1.038.753 1.308.527 8.499.232 10.349.232zM129.873 42c.498.618 1.277.838 2.299.838l10.865-.002.721-2.607-7.666.075c-.814 0-1.221-.844-1.153-1.937.06-.992 1.096-4.286 1.559-5.54.302-.817.73-1.542 1.689-2.003.961-.46 6.958-.573 8.347-.655l.72-2.613c-2.016.126-11.191.367-12.591.999-1.467.662-3.029 2.29-3.726 3.92-.255.6-.989 3.162-1.204 3.966-.564 2.097-1.315 3.755.14 5.557v.002zm-40.571-2.145c-.136 2.178 1.468 2.98 3.15 2.98l11.078-.004.674-2.157-7.5.075c-.62.004-.926-.087-1.233-.464-.776-.959.936-5.968 2.208-6.958.816-.636 1.712-.706 2.71-.746l6.362-.257.645-2.108-10.552.545c-2.734.274-4.546 1.223-5.748 3.802-.784 1.68-1.74 4.403-1.797 5.29l.003.002zm-31.629-8.037l5.602-.372-4.177 11.39h5.397l4.694-11.911 5.601-.372.662-1.865-16.466 1.203c-.819.046-.737.168-.861.55l-.454 1.38.002-.003zm62.371 11.018l5.582-.075 3.835-13.418-5.519.32c-.168.045-.283.19-.355.436l-3.616 12.248c-.077.269-.187.489.07.489h.003zm5.014-17.742l-.679 2.246-.304 1.053 5.709-.316 1.001-3.43-5.727.447z" fill="#fff"/></svg>