<svg fill="none" xmlns="http://www.w3.org/2000/svg" viewBox="0 0 186 62"><path d="M26.8.524c8.651 4.995 17.303 9.987 25.952 14.985v30.266c-8.738 5.044-17.479 10.09-26.217 15.137L.318 45.775V15.51C9.056 10.462 17.795 5.419 26.533.372l.264.152h.002z" fill="#FFD900"/><path fill-rule="evenodd" clip-rule="evenodd" d="M12.517 38.116l-5.332 3.076V20.085l5.33 3.076A17.219 17.219 0 0011 27.348l-.258 1.14c1.762-.936 3.521-1.875 5.283-2.81l.213-.368 5.086 2.936.568.337v4.123l-.191.11-.003-.003-.257.148-5.206 3.004-.11-.192-.077-.134-5.282-2.81.257 1.14c.34 1.502.84 2.882 1.493 4.143v.005zm9.704-10.587l-5.447-3.144.139-.236-.241-6.125-.857.802a16.28 16.28 0 00-2.774 3.402l-5.323-3.072L26 8.603v6.155a17.236 17.236 0 00-4.354.737l-1.118.337 5.046 3.217.426.004-.009 6.54c-1.19.685-2.38 1.373-3.568 2.06l-.203-.119.002-.002v-.003zm4.852-2.866v-5.598l.113.002.154.003 5.212-3.222-1.118-.35a16.152 16.152 0 00-4.358-.742V8.601l9.14 5.278 9.14 5.278-5.322 3.072a16.22 16.22 0 00-2.803-3.45l-.856-.803-.24 6.125.163.283-5.098 2.943-.348.201-.206.12c-1.191-.688-2.382-1.376-3.573-2.061v-.925zm24.395-9.035l-5.042 2.91c-6.45-3.724-12.9-7.449-19.35-11.17V1.543l12.196 7.042 12.196 7.042zm-25.469-8.26L6.65 18.537l-5.042-2.91 12.196-7.042h.003l12.193-7.04v5.821zm5.18 21.214l.77-.449 4.885-2.822.107.185.078.134 5.282 2.81-.257-1.14c-.34-1.5-.84-2.878-1.49-4.136l5.331-3.079v21.11l-5.334-3.08a17.388 17.388 0 001.458-4.072l.257-1.14-5.282 2.81-.15.258-5.04-2.91-.404-.235-.003.002-.21-.119v-4.125l.002-.002zM16.856 47.4l-9.14-5.278 5.32-3.072a16.22 16.22 0 002.798 3.442l.856.802.241-6.125-.161-.276 4.733-2.732.004-.003.721-.416-.002-.005.19-.112c1.188.685 2.376 1.373 3.565 2.061l.011.798v5.741l-.273.002-.152.003-5.047 3.217 1.12.337a17.2 17.2 0 004.355.736v6.156l-9.139-5.276h-.002.002zm10.208-11.705c1.195-.69 2.389-1.382 3.586-2.07l.206.122-.002.004.327.19 5.117 2.955-.124.212-.077.134.24 6.125.857-.803a16.154 16.154 0 002.84-3.511l5.318 3.072-9.14 5.277h-.003l-9.138 5.276v-6.15a16.151 16.151 0 004.358-.742l1.119-.351-5.213-3.222-.264.003V35.919h-.007l-.003-.22.003-.005zm19.898 6.12V19.466l5.037-2.908v28.168l-5.037-2.908v-.002zm6.11 4.144V15.322L26.802.154 26.535 0 0 15.322v30.636C8.846 51.065 17.692 56.17 26.537 61.28l26.538-15.322h-.003zM6.111 19.465v22.347L1.074 44.72V16.555l5.037 2.908v.002zm.538 23.274l9.676 5.587 9.677 5.586v5.821L1.61 45.65l5.041-2.91H6.65zm20.424 11.173l9.676-5.586 9.677-5.587 5.042 2.91-24.395 14.084v-5.82z" fill="#007809"/><path fill-rule="evenodd" clip-rule="evenodd" d="M57.075 27.882l93.43-6.834-4.401 16.885c-.419 1.672-1.366 3.743.227 5.14.531.465 1.102.718 2.096.718h8.806c2.152 0 3.998-1.51 4.733-3.355l4.352-16.576h-5.512l-4.432 16.555c-.83 1.776-2.498 1.457-4.054 1.457-.664 0-1.259-.599-1.259-1.258l5.54-21.678c.262-1.06.539-.98-.641-.883l-98.167 9.408c-.41.007-.627.023-.718.419v.002zM172.73 31.354l1.498-5.573c1.078 0 2.157.003 3.235-.002 1.004-.005 1.855.346 1.855 1.439 0 .414-.386 1.663-.503 2.133a2.55 2.55 0 01-1.113 1.582c-.789.522-1.041.419-2.279.419h-2.695l.002.002zm-8.74 12.437h5.332c.271 0 .442-1.057.552-1.486l2.316-8.974h7.189c1.937.012 3.573-1.083 4.576-2.613.377-.573 1.114-2.967 1.114-3.68 0-.62.007-1.11-.323-1.654-.657-1.086-1.476-1.521-2.791-1.521h-12.76c-.199 0-.199.192-.302.599l-4.941 18.753c-.068.262-.236.576.035.576h.003z" fill="#FFE013"/><path fill-rule="evenodd" clip-rule="evenodd" d="M78.648 40.976c-.784 0-2.93.267-2.838-1.193.047-.76.25-1.12.978-1.687 1.21-.94 3.87-.774 5.362-.774-.917 2.026-1.006 3.652-3.502 3.652v.002zm-4.066-8.721l-.601 1.864 7.556-.447c.772-.067 1.423.459 1.357 1.49l-7.926.595c-1.474.098-3.023 1.12-4.048 2.283-1.284 1.458-1.396 3.161-.023 4.237.592.466 1.392.564 2.358.564h8.432c1.902 0 3.558-.812 4.838-2.443.79-1.006 1.296-3.02 1.771-4.342.522-1.445.924-3.518-.828-4.314-.487-.222-1.144-.285-1.825-.24l-11.061.753zm43.686 10.584c.283 0 .321-.515.496-1.034.129-.38.269-.857.374-1.278-1.048 0-5.86.264-6.476-.224l-.166-.157c-.475-.522-.409-1.27-.215-2.008.456-1.733 1.139-3.616 1.717-5.336.082-.243.183-.353.531-.372l5.302-.292.629-2.312-5.601.297 1.245-4.398-5.437.398c-.426.084-.29.07-.435.55-1.151 3.687-2.207 6.91-3.374 10.59-.363 1.262-1.2 2.967.019 4.59.273.366.66.602 1.039.754 1.307.526 8.501.232 10.352.232zM129.921 42c.499.618 1.278.838 2.3.838l10.87-.003.72-2.606-7.669.075c-.814 0-1.221-.845-1.153-1.937.061-.992 1.097-4.286 1.56-5.54.302-.817.73-1.542 1.689-2.003.962-.46 6.96-.573 8.35-.655l.721-2.613c-2.017.126-11.195.367-12.596.999-1.467.662-3.03 2.29-3.727 3.92-.255.6-.99 3.162-1.205 3.966-.564 2.097-1.315 3.755.14 5.557V42zm-40.586-2.145c-.136 2.178 1.47 2.98 3.151 2.98l11.083-.004.673-2.157-7.502.074c-.62.005-.927-.086-1.233-.463-.777-.959.935-5.968 2.208-6.958.817-.636 1.713-.706 2.712-.746l6.363-.257.646-2.108-10.556.545c-2.735.274-4.548 1.223-5.75 3.802-.784 1.68-1.741 4.403-1.797 5.29l.002.002zm-31.64-8.037l5.603-.372-4.178 11.39h5.4l4.695-11.911 5.603-.372.662-1.865-16.473 1.203c-.819.046-.737.168-.86.55l-.454 1.38.002-.003zm62.393 11.017l5.585-.075 3.837-13.417-5.522.32c-.168.045-.283.19-.355.436l-3.617 12.247c-.078.27-.188.49.07.49h.002zm5.016-17.74l-.678 2.245-.304 1.053 5.71-.316 1.002-3.43-5.73.448z" fill="#42A64B"/></svg>