<svg fill="none" xmlns="http://www.w3.org/2000/svg" viewBox="0 0 92 64"><path d="M45.695.373c6.152 3.551 12.304 7.102 18.454 10.655V32.55L45.507 43.314 26.864 32.55V11.028L45.505.265l.188.108h.002z" fill="#FFD900"/><path fill-rule="evenodd" clip-rule="evenodd" d="M35.538 27.104l-3.791 2.187V14.282l3.79 2.188c-.471.905-.834 1.896-1.077 2.976l-.183.81c1.253-.665 2.504-1.332 3.757-1.998l.151-.261 3.617 2.088.404.24v2.93l-.136.079-.002-.002-.183.105-3.702 2.136-.078-.136-.055-.095-3.756-1.998.183.81c.241 1.068.597 2.05 1.061 2.946v.004zm6.9-7.528l-3.872-2.236.098-.168-.171-4.356-.609.571a11.575 11.575 0 00-1.973 2.42l-3.785-2.185 13-7.505v4.377a12.254 12.254 0 00-3.096.524l-.796.24 3.589 2.287.303.004-.007 4.65c-.847.487-1.692.976-2.537 1.465l-.145-.085.002-.002v-.001zm3.451-2.038v-3.981l.08.002.11.001 3.706-2.29-.795-.25a11.486 11.486 0 00-3.099-.528V6.117l6.5 3.753 6.5 3.753-3.785 2.185a11.533 11.533 0 00-1.993-2.454l-.61-.57-.17 4.355.116.2-3.625 2.094-.248.143-.146.085c-.847-.49-1.694-.979-2.54-1.466v-.657zm17.347-6.425l-3.585 2.07a57833.94 57833.94 0 00-13.76-7.944V1.098l8.672 5.007 8.673 5.008zm-18.11-5.874l-13.76 7.943-3.585-2.069 8.672-5.008h.002l8.67-5.005v4.139zm3.683 15.085l.547-.319 3.474-2.006.076.131.055.095 3.757 1.998-.183-.81a12.28 12.28 0 00-1.06-2.942l3.791-2.189v15.011l-3.793-2.19c.451-.883.799-1.848 1.037-2.896l.183-.81-3.757 1.998-.106.183-3.584-2.07-.287-.166-.002.002-.15-.085v-2.933l.002-.002zm-10.185 13.38l-6.5-3.752 3.784-2.185a11.53 11.53 0 001.99 2.448l.608.57c.057-1.452.113-2.903.172-4.355l-.115-.196 3.365-1.944.004-.001.512-.296-.002-.004.135-.08 2.535 1.466.009.567v4.083l-.195.002-.108.001-3.588 2.288.796.24a12.23 12.23 0 003.096.523v4.377l-6.498-3.751h-.001.001zm7.259-8.322c.85-.49 1.698-.983 2.55-1.473l.146.087-.001.003.233.135 3.638 2.101-.088.152-.055.095.171 4.355.61-.57a11.48 11.48 0 002.019-2.498l3.781 2.184-6.5 3.754h-.001l-6.498 3.751v-4.374a11.482 11.482 0 003.099-.527l.795-.25-3.706-2.29-.188.001v-4.476h-.005l-.002-.157.002-.003zm14.149 4.352V13.84l3.582-2.068v20.03l-3.582-2.068v-.001zm4.345 2.946V10.895L45.697.11l-.19-.11-18.87 10.895V32.68c6.291 3.632 12.581 7.262 18.871 10.895l18.87-10.895zM30.983 13.841v15.891L27.401 31.8V11.772l3.582 2.068v.001zm.383 16.55l6.88 3.973 6.881 3.973v4.138L27.782 32.462l3.586-2.07h-.002zm14.523 7.946l6.881-3.973 6.88-3.973 3.586 2.07-17.347 10.014v-4.139z" fill="#007809"/><path fill-rule="evenodd" clip-rule="evenodd" d="M0 52.685l66.437-4.86-3.13 12.007c-.297 1.19-.971 2.662.162 3.655.377.331.783.51 1.49.51h6.262c1.53 0 2.843-1.072 3.366-2.385l3.094-11.787h-3.92l-3.15 11.772c-.59 1.263-1.777 1.037-2.883 1.037-.473 0-.895-.426-.895-.895l3.939-15.415c.186-.754.383-.698-.456-.628L.511 52.386c-.291.005-.446.016-.511.297v.002zM82.241 55.154l1.065-3.963c.767 0 1.534.002 2.3-.001.714-.004 1.32.246 1.32 1.023 0 .294-.275 1.183-.358 1.517-.128.519-.412.875-.792 1.125-.56.37-.74.297-1.62.297h-1.917l.002.002zm-6.215 8.844h3.791c.193 0 .315-.752.393-1.057l1.647-6.381h5.112c1.378.008 2.54-.77 3.254-1.858.268-.408.792-2.11.792-2.617 0-.441.005-.789-.23-1.177-.467-.772-1.05-1.08-1.984-1.08h-9.074c-.141 0-.141.136-.214.425l-3.514 13.336c-.048.186-.168.409.025.409h.002z" fill="#FFE013"/><path fill-rule="evenodd" clip-rule="evenodd" d="M15.34 61.996c-.557 0-2.083.19-2.018-.848.034-.54.178-.797.696-1.2.86-.668 2.751-.55 3.813-.55-.652 1.44-.716 2.597-2.49 2.597v.002zm-2.891-6.202l-.428 1.326 5.374-.317c.549-.049 1.011.326.965 1.06l-5.637.422c-1.048.07-2.149.797-2.878 1.624-.913 1.036-.993 2.247-.016 3.012.42.331.99.401 1.677.401H17.5c1.353 0 2.53-.577 3.44-1.736.563-.716.922-2.148 1.26-3.088.371-1.028.657-2.502-.589-3.068-.346-.158-.813-.203-1.297-.171l-7.866.535zm31.065 7.527c.2 0 .228-.366.352-.736.092-.27.192-.608.267-.908-.746 0-4.168.188-4.605-.16l-.118-.111c-.338-.371-.292-.904-.154-1.428.325-1.232.81-2.572 1.221-3.794.059-.173.13-.251.378-.265l3.77-.208.447-1.643-3.982.21.885-3.127-3.866.283c-.303.06-.207.05-.31.391-.818 2.622-1.569 4.914-2.399 7.531-.258.897-.853 2.11.014 3.264.194.26.469.428.738.536.93.374 6.046.165 7.362.165zm8.286-.596c.355.44.909.596 1.636.596l7.729-.002.512-1.853-5.453.053c-.58 0-.869-.6-.82-1.377.043-.706.78-3.048 1.11-3.94.214-.58.518-1.096 1.2-1.424.684-.328 4.95-.408 5.938-.466l.512-1.858c-1.434.09-7.96.261-8.957.71-1.043.471-2.154 1.629-2.65 2.788-.181.426-.704 2.248-.857 2.82-.4 1.491-.935 2.67.1 3.952v.001zM22.94 61.2c-.097 1.548 1.044 2.119 2.24 2.119l7.881-.003.48-1.534-5.336.053c-.44.003-.659-.062-.877-.33-.552-.681.666-4.243 1.57-4.947.581-.452 1.218-.502 1.929-.53l4.525-.184.46-1.498-7.507.387c-1.945.195-3.234.87-4.09 2.704-.557 1.194-1.237 3.13-1.277 3.76l.002.003zM.44 55.485l3.985-.264-2.971 8.098h3.84l3.339-8.47 3.984-.264.47-1.326-11.713.855c-.582.034-.524.12-.612.391l-.323.982.002-.002zm44.368 7.834l3.971-.053 2.728-9.541-3.926.228c-.12.031-.201.135-.253.31l-2.572 8.708c-.054.192-.133.348.05.348h.002zm3.567-12.615l-.483 1.597-.216.748 4.06-.224.713-2.439-4.074.318z" fill="#42A64B"/></svg>