<svg fill="none" xmlns="http://www.w3.org/2000/svg" viewBox="0 0 28 32"><path d="M13.995.274c4.517 2.608 9.035 5.215 13.552 7.825v15.805l-13.69 7.904-13.69-7.904V8.099C4.728 5.463 9.291 2.829 13.854.194l.138.08h.002z" fill="#FFD900"/><path fill-rule="evenodd" clip-rule="evenodd" d="M6.536 19.904L3.752 21.51V10.488l2.783 1.607a8.991 8.991 0 00-.79 2.185l-.135.595c.92-.488 1.839-.978 2.759-1.467l.11-.192 2.657 1.534.297.175v2.153l-.1.058-.002-.002-.134.077-2.718 1.569-.058-.1-.04-.07-2.759-1.467.135.595c.177.784.438 1.505.78 2.163v.003zm5.068-5.528L8.76 12.734l.072-.124-.126-3.198-.447.419a8.5 8.5 0 00-1.45 1.776L4.03 10.003l9.547-5.51v3.213a8.999 8.999 0 00-2.274.385l-.584.176 2.635 1.68.223.003-.005 3.414c-.622.358-1.243.717-1.863 1.076l-.107-.062.002-.001v-.001zm2.534-1.497V9.956h.058l.08.002L17 8.276l-.584-.183a8.434 8.434 0 00-2.276-.388V4.492l4.773 2.756 4.773 2.756-2.78 1.605a8.465 8.465 0 00-1.463-1.802l-.447-.42-.126 3.199.086.148-2.662 1.537-.182.105-.108.062c-.622-.36-1.244-.718-1.866-1.076v-.483zm12.738-4.718l-2.633 1.52L14.14 3.847V.807l6.369 3.677 6.368 3.677zm-13.3-4.314L3.473 9.681.84 8.16l6.369-3.677h.001L13.577.808v3.04zm2.706 11.079l.401-.235 2.552-1.473.056.096.04.07 2.759 1.467-.135-.595a9.021 9.021 0 00-.778-2.16l2.784-1.608v11.024l-2.785-1.608a9.08 9.08 0 00.76-2.127l.135-.595-2.758 1.467-.078.135-2.632-1.52-.211-.122h-.002l-.11-.061v-2.154l.002-.002zm-7.48 9.826L4.03 21.996l2.778-1.605a8.47 8.47 0 001.461 1.798l.448.419.125-3.199-.084-.144 2.472-1.427.002-.001.376-.218v-.002l.098-.059 1.862 1.077.006.416v2.998l-.143.002h-.08l-2.634 1.68.585.176c.77.233 1.528.358 2.273.385v3.215l-4.772-2.755zm5.33-6.112c.625-.36 1.248-.723 1.874-1.082l.107.064-.001.002.17.1 2.673 1.542-.065.111-.04.07.125 3.198.448-.419a8.434 8.434 0 001.483-1.833l2.777 1.604-4.773 2.756h-.002l-4.772 2.755v-3.212a8.436 8.436 0 002.276-.387l.584-.184-2.722-1.682-.138.001v-3.287h-.003l-.002-.115.002-.002zm10.391 3.195v-11.67l2.63-1.519v14.71l-2.63-1.52zM27.714 24V8.001L13.996.08 13.856 0 0 8v16c4.62 2.666 9.239 5.332 13.858 8l13.857-8zM3.191 10.165v11.67l-2.63 1.518V8.645l2.63 1.518v.002zm.281 12.153l5.053 2.917 5.053 2.918v3.04L.841 23.837l2.632-1.52zm10.665 5.835l5.053-2.918 5.053-2.917 2.633 1.52-12.739 7.354v-3.04z" fill="#007809"/></svg>