<svg fill="none" xmlns="http://www.w3.org/2000/svg" viewBox="0 0 56 56"><circle cx="28" cy="28" r="28" fill="#42A64B"/><circle cx="28" cy="28" r="28" fill="#3068ED"/><path d="M37.388 24.831a.63.63 0 00-.442-.183.63.63 0 00-.442.183.63.63 0 00-.183.442.63.63 0 00.183.442.63.63 0 00.442.183.63.63 0 00.442-.183.63.63 0 00.183-.442.63.63 0 00-.183-.442z" fill="#F9DB0D"/><path d="M34.36 12H20.21C18.44 12 17 13.44 17 15.21v25.58c0 1.77 1.44 3.21 3.21 3.21h14.15c1.771 0 3.211-1.44 3.211-3.21V28a.625.625 0 10-1.25 0v12.79c0 1.08-.88 1.96-1.96 1.96H20.21c-1.081 0-1.961-.88-1.961-1.96V15.21c0-1.08.88-1.96 1.96-1.96h14.15c1.082 0 1.961.88 1.961 1.96v7.227a.625.625 0 101.25 0v-7.226c0-1.77-1.44-3.211-3.21-3.211z" fill="#F9DB0D"/><path d="M34.446 15.359H20.141a.625.625 0 00-.625.625v22.453c0 .345.28.625.625.625h6.673a1.878 1.878 0 00-1.395 1.813c0 1.034.84 1.875 1.875 1.875a1.877 1.877 0 001.875-1.875c0-.868-.593-1.6-1.396-1.813h6.673c.346 0 .625-.28.625-.625V15.984a.625.625 0 00-.625-.625zM27.92 40.875a.626.626 0 11-1.252-.002.626.626 0 011.252.002zm5.902-5.584h-5.02a.625.625 0 000 1.25h5.02v1.271H20.766v-5.5h5.02a.625.625 0 100-1.25h-5.02v-1.75H33.82v5.98zm0-7.229H20.766V16.61H33.82v11.453zM27.736 13.964a.629.629 0 00-1.067.442.627.627 0 00.625.625.63.63 0 00.442-.183.63.63 0 00.183-.442.63.63 0 00-.183-.442z" fill="#F9DB0D"/><path d="M26.869 35.475a.628.628 0 00-.885 0 .63.63 0 00-.183.442.63.63 0 00.183.442.63.63 0 00.442.183.631.631 0 00.443-.183.63.63 0 000-.884zM31.446 20.86a4.382 4.382 0 00-4.165-3.035l-.003-.001h-.007a4.382 4.382 0 00-4.365 4.375 4.38 4.38 0 004.375 4.375 4.38 4.38 0 004.165-5.715zM27.9 19.135c.876.177 1.62.721 2.064 1.464l-.83.205-1.234-.897v-.772zm-.625 1.863l.99.719-.378 1.163h-1.223l-.378-1.163.99-.719zm-.625-1.861v.77l-1.23.895-.824-.203a3.134 3.134 0 012.054-1.463zm-1.693 5.148a3.113 3.113 0 01-.774-2.5l.882.217.458 1.412-.566.871zm2.323 1.038c-.47 0-.916-.105-1.316-.292l.585-.901h1.463l.586.9c-.4.188-.847.293-1.318.293zm2.324-1.038l-.573-.882.454-1.398.892-.22a3.112 3.112 0 01-.773 2.5z" fill="#F9DB0D"/></svg>