<svg fill="none" xmlns="http://www.w3.org/2000/svg" viewBox="0 0 56 56"><circle cx="28" cy="28" r="28" fill="#42A64B"/><circle cx="28" cy="28" r="28" fill="#3068ED"/><path d="M33.216 36.493a.646.646 0 01.17-.32.607.607 0 01.203-.135.617.617 0 01.68.135.601.601 0 01.136.203.609.609 0 01.036.361.589.589 0 01-.094.225.597.597 0 01-.28.23.6.6 0 01-.239.048.617.617 0 01-.347-.105.607.607 0 01-.23-.28.624.624 0 01-.035-.361z" fill="#F9DB0D"/><path d="M15.25 36.686a.8.8 0 01.008-.018c.575-1.346 1.924-1.844 3.521-1.298l4.354 1.204c.252-.763.88-1.411 1.768-1.74l.016-.007 4.787-1.624c.398-.515 1.646-1.833 3.982-1.833 1.633 0 3.078 1.12 3.904 2.341h5.785c.345 0 .625.28.625.625v7.88c0 .345-.28.625-.625.625h-3.716a.625.625 0 01-.625-.625v-.54H37.29a.625.625 0 01-.625-.625v-.18c-1.016.09-1.35.282-2.283.82a37.8 37.8 0 01-3.782 1.928 5.61 5.61 0 01-2.01.38c-.63 0-1.341-.113-2.072-.444l-9.624-3.446a.6.6 0 01-.05-.02c-.92-.424-2.29-1.616-1.595-3.403zm25.034 4.905h2.466v-6.63h-2.466v6.63zm-2.368-1.165h1.118v-5.465h-1.118v5.465zm-20.572-1.484l9.62 3.445a.864.864 0 01.053.021c1.34.616 2.614.247 3.113.053 1.886-.848 2.893-1.429 3.629-1.853 1.023-.59 1.515-.874 2.907-.99v-5.033c-.592-.971-1.741-1.965-2.98-1.965-2.124 0-3.024 1.382-3.06 1.437a.625.625 0 01-.33.265l-4.968 1.686c-.793.297-1.213.977-1.02 1.654.09.313.295.573.579.731.281.157.607.196.917.11l5.6-1.775a.625.625 0 11.378 1.192l-5.61 1.778a2.479 2.479 0 01-.697.1c-.414 0-.824-.105-1.197-.313a2.451 2.451 0 01-1.21-1.633l-4.693-1.3c-.678-.231-1.567-.315-1.964.598-.41 1.07.656 1.66.933 1.792zM21.559 20.222a.602.602 0 01.093-.225.592.592 0 01.173-.173.634.634 0 01.469-.093.582.582 0 01.225.093.597.597 0 01.23.28.607.607 0 01.035.361.589.589 0 01-.093.225.597.597 0 01-.28.23.63.63 0 01-.479 0 .634.634 0 01-.337-.338.584.584 0 01-.048-.239c0-.04.004-.081.012-.121z" fill="#F9DB0D"/><path d="M12.625 14.118h3.716c.345 0 .625.28.625.625v.54h1.743c.345 0 .625.28.625.625v.18c1.016-.089 1.35-.282 2.283-.82a37.789 37.789 0 013.782-1.928c.636-.25 2.302-.743 4.081.064l2.515.9 2.12-2.12a.625.625 0 01.884 0l6.96 6.96a.62.62 0 010 .884L30.066 31.921c-.19.19-.636.248-.884 0l-6.354-6.354a6.002 6.002 0 01-.514.022c-1.633 0-3.078-1.12-3.904-2.34h-5.785a.625.625 0 01-.625-.626v-7.88c0-.345.28-.625.625-.625zm21.932-.608l-1.424 1.425c.423.262.913.402 1.424.402.512 0 1.001-.14 1.425-.402l-1.425-1.425zm4.652 7.5l1.424-1.424-1.424-1.424a2.698 2.698 0 00-.402 1.424c0 .512.14 1.001.402 1.425zm-9.585 9.585l1.424-1.424a2.721 2.721 0 00-2.848 0l1.424 1.424zm-2.325-2.324a3.972 3.972 0 014.65 0l6.36-6.36a3.935 3.935 0 01-.752-2.325c0-.847.263-1.653.751-2.325l-1.426-1.426a3.934 3.934 0 01-2.325.752 3.934 3.934 0 01-2.325-.752l-1.352 1.352c.292.043.576.14.842.287.448.25.8.624 1.018 1.076a3.562 3.562 0 11-4.096 4.41l-2.11.716a3.99 3.99 0 01-.662 3.167l1.427 1.428zm3.8-6.145l-.016.006-1.25.424a2.315 2.315 0 003.893 1.132 2.315 2.315 0 00-.754-3.773c-.115.96-.807 1.816-1.873 2.211zm-6.128 3.817c.242-.393.378-.842.4-1.3-.3.216-.665.428-1.102.597l.703.703zm-5.637-3.57c.592.972 1.741 1.966 2.98 1.966a4.545 4.545 0 00.654-.046c1.35-.196 2.076-.963 2.315-1.267l.075-.102a.622.622 0 01.345-.286l4.97-1.687c.792-.297 1.211-.977 1.02-1.654l-.001-.001v-.002a1.21 1.21 0 00-.579-.728 1.209 1.209 0 00-.917-.11l-5.6 1.774a.625.625 0 11-.378-1.191l4.454-1.411.039-.04h.001l2.306-2.306-1.982-.71a.634.634 0 01-.022-.008l-.006-.002a.563.563 0 01-.025-.011c-1.34-.616-2.614-.248-3.113-.053a36.202 36.202 0 00-3.629 1.853c-1.023.59-1.515.874-2.907.99v5.033zm-2.368-.375h1.118v-5.465h-1.118v5.465zm-3.716 0h2.466v-6.63H13.25v6.63z" fill="#F9DB0D"/></svg>