<svg fill="none" xmlns="http://www.w3.org/2000/svg" viewBox="0 0 56 56"><circle cx="28" cy="28" r="28" fill="#42A64B"/><circle cx="28" cy="28" r="28" fill="#3068ED"/><path d="M43.375 13.688h-30.75a.625.625 0 00-.625.624v21.5c0 .346.28.626.625.626h12.563a.625.625 0 100-1.25H13.25v-20.25h29.5v20.25H30.812a.625.625 0 100 1.25h12.563c.345 0 .625-.28.625-.626v-21.5a.625.625 0 00-.625-.624z" fill="#F9DB0D"/><path d="M23.5 17.188h-3.108A3.897 3.897 0 0016.5 21.08c0 .136.072.262.19.331l1.924 1.122v4.521c0 .212.172.384.383.384h5.898a.383.383 0 00.383-.384v-4.521l1.924-1.122a.383.383 0 00.19-.331 3.897 3.897 0 00-3.892-3.892zm-.448.766c-.16.457-.595.787-1.106.787-.511 0-.946-.33-1.106-.787h2.212zm2.227 3.691v-.74a.383.383 0 00-.767 0v5.766H19.38v-.775h1.629a.383.383 0 100-.767H19.38v-4.225a.383.383 0 00-.766 0v.741l-1.34-.78a3.132 3.132 0 012.777-2.893 1.94 1.94 0 001.895 1.535c.93 0 1.71-.659 1.895-1.535a3.132 3.132 0 012.777 2.892l-1.34.781z" fill="#F9DB0D"/><path d="M23.05 19.754a1.15 1.15 0 00-1.15 1.15 1.151 1.151 0 002.3 0c-.001-.634-.517-1.15-1.15-1.15zm0 1.533a.384.384 0 110-.767.384.384 0 010 .767zM22.691 25.242a.386.386 0 00-.542 0 .386.386 0 000 .542.386.386 0 00.654-.27c0-.102-.04-.2-.112-.272zM36.75 17.188h-3.108a3.897 3.897 0 00-3.892 3.892c0 .136.072.262.19.331l1.924 1.122v4.521c0 .212.172.384.383.384h5.898a.383.383 0 00.383-.384v-4.521l1.924-1.122a.383.383 0 00.19-.331 3.897 3.897 0 00-3.892-3.892zm-.448.766c-.16.457-.595.787-1.106.787-.511 0-.946-.33-1.105-.787h2.21zm2.227 3.691v-.74a.383.383 0 00-.767 0v5.766H32.63v-.775h1.629a.383.383 0 100-.767H32.63v-4.225a.383.383 0 00-.766 0v.741l-1.34-.78a3.132 3.132 0 012.777-2.893 1.94 1.94 0 001.895 1.535c.93 0 1.71-.659 1.895-1.535a3.132 3.132 0 012.777 2.892l-1.34.781zM25.376 29.563a.625.625 0 00-.625-.625h-6a.625.625 0 000 1.25h6c.345 0 .625-.28.625-.625zM20.215 31.693a.625.625 0 100 1.25h3.071a.625.625 0 100-1.25h-3.071zM38.62 29.563a.625.625 0 00-.624-.625h-6a.625.625 0 100 1.25h6c.345 0 .625-.28.625-.625zM33.46 31.693a.625.625 0 100 1.25h3.071a.625.625 0 100-1.25H33.46zM23.08 40.303l.944-.944a.625.625 0 00-.884-.884l-1.386 1.386a.625.625 0 000 .883l1.386 1.386a.623.623 0 00.884 0 .625.625 0 000-.884l-.944-.944zM32.86 38.475a.625.625 0 00-.884.884l.944.944-.944.943a.625.625 0 00.884.884l1.385-1.386a.625.625 0 000-.883l-1.385-1.386zM28 35.188a.63.63 0 00-.442.183.63.63 0 00-.183.441.63.63 0 00.183.442.63.63 0 00.442.184.63.63 0 00.442-.184.63.63 0 00.183-.441.63.63 0 00-.183-.442.63.63 0 00-.442-.184z" fill="#F9DB0D"/></svg>