<svg fill="none" xmlns="http://www.w3.org/2000/svg" viewBox="0 0 56 56"><circle cx="28" cy="28" r="28" fill="#42A64B"/><circle cx="28" cy="28" r="28" fill="#3068ED"/><g clip-path="url(#clip0)" fill="#F9DB0D"><path d="M40.685 12.082a.625.625 0 00-.628.004L28.603 18.86a.625.625 0 10.637 1.076l8.217-4.86-15.306 15.883-7.613-2.33 9.935-5.874a.625.625 0 00-.636-1.076l-11.155 6.596a.625.625 0 00.135 1.136l9.092 2.781 4.011 7.301a.623.623 0 00.985.146l4.612-4.508 8.675 2.655a.626.626 0 00.808-.598V12.624a.625.625 0 00-.315-.542zm-14.73 20.494a.625.625 0 00-.112.356v3.823l-2.74-4.985 12.121-12.575-9.27 13.381zm1.138 5.13v-3.929l3.062.937-3.062 2.992zm12.657-1.364l-12.281-3.757L39.75 14.856v21.486z"/><path d="M19.276 33.724a.625.625 0 00-.884 0l-5.834 5.834a.625.625 0 10.884.884l5.834-5.834a.625.625 0 000-.884zM11.504 41.495a.625.625 0 00-.883 0l-1.438 1.438a.625.625 0 00.884.884l1.437-1.438a.625.625 0 000-.884zM17.916 42.896a.629.629 0 00-1.067.442.63.63 0 00.183.442.63.63 0 00.442.183.63.63 0 00.442-.183.629.629 0 000-.884zM22.566 38.246a.625.625 0 00-.884 0l-3.09 3.09a.625.625 0 00.883.885l3.09-3.09a.625.625 0 000-.885zM33.231 38.009a.625.625 0 00-.883 0l-3.1 3.098a.625.625 0 00.885.884l3.098-3.098a.625.625 0 000-.884zM26.719 20.52a.63.63 0 00-.442-.184.63.63 0 00-.442.184.628.628 0 00.442 1.067.627.627 0 00.625-.625.63.63 0 00-.183-.442z"/></g><defs><clipPath id="clip0"><path fill="#fff" transform="translate(9 12)" d="M0 0h32v32H0z"/></clipPath></defs></svg>