<svg fill="none" xmlns="http://www.w3.org/2000/svg" viewBox="0 0 56 56"><circle cx="28" cy="28" r="28" fill="#42A64B"/><circle cx="28" cy="28" r="28" fill="#3068ED"/><path d="M37.868 30.609H17.61c-1.99 0-3.61 1.62-3.61 3.61 0 1.99 1.62 3.61 3.61 3.61h2.115l-.273.221c-.314.256-.456.66-.369 1.056.087.395.384.704.777.805l.141.036-.7 2.727a.625.625 0 00.45.76l2.126.546a.627.627 0 00.76-.45l.7-2.727.143.037c.392.1.801-.027 1.068-.332.266-.305.337-.728.185-1.103l-.641-1.577h13.776c1.99 0 3.61-1.62 3.61-3.61 0-1.99-1.62-3.61-3.61-3.61zm-17.731 8.81v.001zm2.984.038a.7.7 0 00-.534.076.7.7 0 00-.325.432l-.68 2.65-.914-.236.68-2.649a.7.7 0 00-.077-.534.7.7 0 00-.431-.324l-.317-.082 1.185-.962.777-.632.257.632.695 1.71-.316-.08zm11.61-2.879H23.582l-.257-.634a.625.625 0 00-.974-.25l-1.088.884H17.61a2.362 2.362 0 01-2.36-2.36 2.362 2.362 0 012.36-2.36h17.12v4.72zm3.137 0H35.98v-4.72h1.889a2.362 2.362 0 012.36 2.36 2.362 2.362 0 01-2.36 2.36z" fill="#F9DB0D"/><path d="M38.23 32.787a.625.625 0 10-.98.775l.421.533-.42.532a.625.625 0 10.98.775l.727-.92a.625.625 0 000-.775l-.727-.92zM17.8 34.457a.62.62 0 00.816.338.636.636 0 00.281-.23.614.614 0 00.106-.346.629.629 0 00-.503-.614.63.63 0 00-.735.491.628.628 0 00.035.361zM21.124 34.457a.618.618 0 00.455.374.628.628 0 00.564-.17.602.602 0 00.136-.204.631.631 0 000-.478.634.634 0 00-.136-.203.63.63 0 00-.788-.078.636.636 0 00-.267.398.626.626 0 00.036.361zM24.448 34.457a.618.618 0 00.455.374.617.617 0 00.642-.266.618.618 0 00.093-.469.607.607 0 00-.093-.224.63.63 0 00-.866-.173.636.636 0 00-.266.397.62.62 0 00.035.361zM27.772 34.457a.618.618 0 00.455.374.618.618 0 00.699-.374.589.589 0 00.048-.239.627.627 0 00-1.067-.442.603.603 0 00-.135.203.66.66 0 00-.048.24.618.618 0 00.048.238zM31.096 34.457a.615.615 0 00.338.338.631.631 0 00.478 0 .634.634 0 00.338-.338.63.63 0 000-.478.627.627 0 00-1.019-.202.593.593 0 00-.135.202.662.662 0 00-.048.24.61.61 0 00.048.238zM22.255 27.798a.62.62 0 00.048.042 8.746 8.746 0 004.933 1.832l.039.002.171.006.051.002a9.379 9.379 0 00.426 0l.049-.001.175-.007.034-.002a8.74 8.74 0 004.998-1.882.641.641 0 00.056-.05 8.83 8.83 0 003.317-6.897c0-4.876-3.967-8.843-8.843-8.843-4.875 0-8.842 3.967-8.842 8.842a8.831 8.831 0 003.388 6.956zm6.266.593a7.525 7.525 0 01-.548.039 7.954 7.954 0 01-.6-.003 7.69 7.69 0 01-.624-.053c-.009 0-.017-.002-.026-.003a7.55 7.55 0 01-3.412-1.344v-1.131c0-1.49.74-2.808 1.87-3.611a4.142 4.142 0 002.558.882 4.14 4.14 0 002.558-.882 4.425 4.425 0 011.87 3.61v1.089a7.548 7.548 0 01-3.646 1.407zM27.71 13.25c4.187 0 7.593 3.406 7.593 7.592a7.56 7.56 0 01-1.885 5.002 5.673 5.673 0 00-2.254-4.475 4.138 4.138 0 00.694-2.983.625.625 0 00-1.236.184 2.897 2.897 0 01-.534 2.156 2.93 2.93 0 01-1.116.917 2.894 2.894 0 01-2.463 0 2.93 2.93 0 01-1.117-.917 2.897 2.897 0 01-.565-1.722 2.917 2.917 0 013.568-2.84.625.625 0 10.28-1.218 4.168 4.168 0 00-5.097 4.058c-.001.878.273 1.693.739 2.365a5.673 5.673 0 00-2.255 4.527v.014a7.561 7.561 0 01-1.944-5.068c0-4.186 3.406-7.592 7.592-7.592z" fill="#F9DB0D"/><path d="M29.755 16.836a.634.634 0 00.338.338.631.631 0 00.586-.057.605.605 0 00.23-.281.601.601 0 00.048-.24.618.618 0 00-.105-.346.598.598 0 00-.28-.23.61.61 0 00-.586.058.598.598 0 00-.23.28.631.631 0 000 .478z" fill="#F9DB0D"/></svg>