<svg width="56" height="56" viewBox="0 0 56 56" fill="none" xmlns="http://www.w3.org/2000/svg">
<circle cx="28" cy="28" r="28" fill="#3068ED"/>
<path d="M16.4446 21.7255C16.6046 21.7255 16.7646 21.6645 16.8866 21.5424L16.8883 21.5407C17.1324 21.2966 17.1315 20.9017 16.8874 20.6577C16.6434 20.4137 16.2468 20.4145 16.0026 20.6585C15.7586 20.9026 15.7586 21.2983 16.0026 21.5425C16.1247 21.6645 16.2847 21.7255 16.4446 21.7255V21.7255Z" fill="#F9DB0D"/>
<path d="M43.9991 19.1021C43.9991 15.186 40.8133 12 36.8973 12C33.5835 12 30.7928 14.2815 30.0128 17.3561C28.6201 16.8893 27.1638 16.6522 25.6726 16.6522C22.9544 16.6522 20.3281 17.4484 18.0774 18.9546C17.7906 19.1466 17.7137 19.5348 17.9056 19.8217C18.0262 20.0018 18.224 20.0991 18.4256 20.0991C18.5451 20.0991 18.6659 20.0649 18.7727 19.9935C20.8169 18.6254 23.2029 17.9023 25.6726 17.9023C27.0985 17.9023 28.4888 18.1405 29.8127 18.6094C29.8016 18.7722 29.7954 18.9364 29.7954 19.1021C29.7954 23.0172 32.9813 26.2023 36.8973 26.2023C37.0625 26.2023 37.2264 26.1962 37.3889 26.185C37.8584 27.5131 38.097 28.9035 38.097 30.3253C38.097 31.9819 37.77 33.5632 37.1789 35.0096C36.8314 33.8745 35.9928 32.9312 34.9006 32.4556C35.2678 31.8761 35.4814 31.19 35.4814 30.4546C35.4814 28.3877 33.7991 26.7063 31.7314 26.7063C31.1113 26.7063 30.5127 26.8568 29.9784 27.1397C29.4001 25.313 27.6887 23.9851 25.6726 23.9851C23.6566 23.9851 21.9452 25.3129 21.3669 27.1394C20.8334 26.8567 20.2349 26.7063 19.6138 26.7063C17.547 26.7063 15.8656 28.3877 15.8656 30.4546C15.8656 31.1901 16.0791 31.8761 16.4461 32.4557C15.3537 32.9312 14.5151 33.8749 14.1678 35.0105C13.5768 33.5639 13.25 31.9821 13.25 30.3253C13.25 27.8756 13.9626 25.5053 15.3109 23.4707C15.5016 23.1829 15.4229 22.7951 15.1351 22.6044C14.8474 22.4138 14.4596 22.4925 14.2689 22.7802C12.7846 25.0201 12 27.6291 12 30.3253C12 33.9779 13.4221 37.4119 16.0042 39.9946C18.5866 42.5776 22.0202 44 25.6726 44C29.3251 44 32.759 42.5776 35.3418 39.9947C37.9246 37.4118 39.347 33.9778 39.347 30.3253C39.347 28.838 39.1096 27.3816 38.6421 25.9853C41.7172 25.2057 43.9991 22.4154 43.9991 19.1021V19.1021ZM25.6726 25.235C27.4732 25.235 28.938 26.6991 28.938 28.4987C28.938 30.2993 27.4731 31.7642 25.6726 31.7642C23.8721 31.7642 22.4072 30.2993 22.4072 28.4987C22.4072 26.6991 23.8721 25.235 25.6726 25.235V25.235ZM18.8259 35.6242V40.6871C17.3977 39.74 16.1758 38.5061 15.243 37.0676V36.1769C15.243 34.891 16.1404 33.7649 17.3692 33.4561C17.8538 33.8197 18.4291 34.0681 19.0542 34.1622C18.9063 34.6268 18.8259 35.1182 18.8259 35.6242ZM19.6138 32.9547C18.2362 32.9547 17.1156 31.8331 17.1156 30.4546C17.1156 29.0769 18.2363 27.9562 19.6138 27.9562C20.1814 27.9562 20.7203 28.1442 21.1574 28.4897C21.1574 28.4927 21.1572 28.4957 21.1572 28.4987C21.1572 29.4493 21.4532 30.3318 21.9569 31.0602C20.9958 31.4364 20.1849 32.1081 19.6294 32.9544C19.6241 32.9545 19.6191 32.9547 19.6138 32.9547V32.9547ZM31.2694 41.4159C29.5864 42.2687 27.6847 42.75 25.6726 42.75C23.6604 42.75 21.7587 42.2685 20.0759 41.4155V35.6242C20.0759 33.9276 21.2786 32.4451 22.9137 32.0696C23.6774 32.6609 24.6342 33.0142 25.6726 33.0142C26.711 33.0142 27.6679 32.6609 28.4316 32.0695C30.0667 32.4447 31.2694 33.9273 31.2694 35.6241V41.4159ZM31.7147 32.9543C31.1591 32.1084 30.3491 31.4363 29.3883 31.0602C29.8919 30.3318 30.1879 29.4494 30.1879 28.4988C30.1879 28.4956 30.1877 28.4924 30.1877 28.4892C30.6266 28.1441 31.1655 27.9562 31.7313 27.9562C33.1099 27.9562 34.2314 29.0769 34.2314 30.4546C34.2314 31.8331 33.1099 32.9547 31.7313 32.9547C31.7256 32.9547 31.7204 32.9543 31.7147 32.9543V32.9543ZM36.104 37.0649C35.1706 38.5043 33.9487 39.7401 32.5194 40.6877V35.6242C32.5194 35.1183 32.4396 34.6266 32.2917 34.1622C32.9171 34.0681 33.4924 33.8196 33.9771 33.456C35.2064 33.7648 36.104 34.8911 36.104 36.1769V37.0649ZM36.8973 24.9523C33.6705 24.9523 31.0454 22.3279 31.0454 19.1021C31.0454 15.8753 33.6705 13.25 36.8973 13.25C40.124 13.25 42.7491 15.8752 42.7491 19.1021C42.7491 22.3279 40.124 24.9523 36.8973 24.9523Z" fill="#F9DB0D"/>
<path d="M39.7176 18.4771H37.5223V16.2799C37.5223 15.9347 37.2425 15.6549 36.8973 15.6549C36.5521 15.6549 36.2723 15.9347 36.2723 16.2799V18.4771H34.0752C33.73 18.4771 33.4502 18.7569 33.4502 19.1021C33.4502 19.4473 33.73 19.7271 34.0752 19.7271H36.2723V21.9225C36.2723 22.2677 36.5521 22.5475 36.8973 22.5475C37.2425 22.5475 37.5223 22.2677 37.5223 21.9225V19.7271H39.7176C40.0628 19.7271 40.3426 19.4473 40.3426 19.1021C40.3426 18.7569 40.0628 18.4771 39.7176 18.4771V18.4771Z" fill="#F9DB0D"/>
</svg>
