<svg fill="none" xmlns="http://www.w3.org/2000/svg" viewBox="0 0 56 56"><circle cx="28" cy="28" r="28" fill="#42A64B"/><circle cx="28" cy="28" r="28" fill="#3068ED"/><g clip-path="url(#clip0)" fill="#F9DB0D"><path d="M41.182 14.563H14.818A2.821 2.821 0 0012 17.38v21.657a2.35 2.35 0 002.346 2.347h27.308A2.35 2.35 0 0044 39.038V17.381a2.821 2.821 0 00-2.818-2.819zm.472 25.572H14.346a1.098 1.098 0 01-1.096-1.097V21.914h19.124a.625.625 0 100-1.25H13.25v-3.283a1.57 1.57 0 011.568-1.569h26.364a1.57 1.57 0 011.568 1.569v3.283h-5.376a.625.625 0 100 1.25h5.376v17.124c0 .605-.492 1.097-1.096 1.097z"/><path d="M17.227 16.192a2.048 2.048 0 00-2.046 2.046c0 1.128.918 2.046 2.046 2.046a2.048 2.048 0 002.046-2.046 2.048 2.048 0 00-2.046-2.046zm0 2.842a.796.796 0 11.001-1.593.796.796 0 01-.001 1.593zM22.008 16.192a2.048 2.048 0 00-2.046 2.046c0 1.128.918 2.046 2.046 2.046a2.048 2.048 0 002.046-2.046 2.048 2.048 0 00-2.046-2.046zm0 2.842a.797.797 0 11.002-1.593.797.797 0 01-.002 1.593zM26.79 16.192a2.048 2.048 0 00-2.046 2.046c0 1.128.917 2.046 2.045 2.046a2.048 2.048 0 002.046-2.046 2.048 2.048 0 00-2.046-2.046zm0 2.842a.797.797 0 11.001-1.593.797.797 0 01-.002 1.593zM36.827 22.849c-.862 0-1.594.57-1.838 1.352H21.72c-.475 0-.915.216-1.207.591l-.697.897a.625.625 0 10.987.767l.698-.897a.276.276 0 01.22-.108h13.307a1.927 1.927 0 001.8 1.247 1.927 1.927 0 001.925-1.925 1.927 1.927 0 00-1.925-1.924zm0 2.599a.675.675 0 11.002-1.351.675.675 0 01-.002 1.35zM36.827 28.674c-.842 0-1.56.544-1.82 1.3H28a.625.625 0 000 1.25h7.007c.26.755.978 1.299 1.82 1.299a1.927 1.927 0 001.925-1.925 1.927 1.927 0 00-1.925-1.924zm0 2.599a.675.675 0 11.001-1.35.675.675 0 010 1.35zM36.827 35.482c-.842 0-1.56.544-1.82 1.3h-6.889a.605.605 0 01-.391-.145l-.816-.692a.625.625 0 00-.809.953l.816.692c.335.284.761.441 1.2.441h6.89c.26.755.977 1.3 1.82 1.3a1.927 1.927 0 001.923-1.925 1.926 1.926 0 00-1.924-1.924zm0 2.599a.675.675 0 11.001-1.35.675.675 0 010 1.35zM22.229 32.555c.01.26.18.487.427.569l2.609.867a1.103 1.103 0 00.964-.13c.287-.19.466-.497.491-.841a5.627 5.627 0 00-1.122-3.826 5.725 5.725 0 00-2.883-2.022 1.115 1.115 0 00-.985.17 1.097 1.097 0 00-.449.889v2.786c0 .23.127.442.33.55.364.197.601.575.617.988zm.302-4.128a4.472 4.472 0 012.068 1.518 4.387 4.387 0 01.884 2.801l-2.065-.686a2.44 2.44 0 00-.887-1.38v-2.253z"/><path d="M24.914 34.48l-2.755-.917a.625.625 0 00-.512.054 1.172 1.172 0 01-1.575-.376.634.634 0 00-.057-.074l-.007-.008a1.387 1.387 0 01-.123-.49 1.167 1.167 0 01.618-1.102.624.624 0 00.329-.55V28.23c0-.355-.163-.68-.448-.89a1.114 1.114 0 00-.985-.17 5.648 5.648 0 00-2.87 2.003 5.627 5.627 0 00-1.15 3.38 5.684 5.684 0 001.134 3.438.643.643 0 00.06.093 5.645 5.645 0 004.484 2.196c1.69 0 3.28-.745 4.363-2.045a1.1 1.1 0 00.212-1.007 1.11 1.11 0 00-.718-.75zm-5.332-6.054v2.253a2.438 2.438 0 00-.812 2.744L17.2 34.765a4.351 4.351 0 01-.57-2.2 4.407 4.407 0 012.953-4.139zm1.475 8.605a4.396 4.396 0 01-3.102-1.268l1.535-1.31a2.415 2.415 0 002.52.378l2.307.767a4.416 4.416 0 01-3.26 1.433zM34.874 21.914h.002a.624.624 0 10-.002 0z"/></g><defs><clipPath id="clip0"><path fill="#fff" transform="translate(12 12)" d="M0 0h32v32H0z"/></clipPath></defs></svg>