<svg fill="none" xmlns="http://www.w3.org/2000/svg" viewBox="0 0 201 200"><path d="M100.601 200c55.228 0 100-44.772 100-100s-44.772-100-100-100c-55.229 0-100 44.772-100 100s44.771 100 100 100z" fill="#235BA7"/><path fill-rule="evenodd" clip-rule="evenodd" d="M20.682 83.932c-4.073-7.258-7.275-13.348-6.512-22.003 1.147-13.017 11.643-23.724 23.986-27.004 15.16-4.03 27.354 5.242 34.927 17.922 1.605 2.686 2.338 5.961.146 8.493l-3.627 2.876 4.287 3.625 4.783 4.5c2.731 2.697 6.576 8.623.72 10.205-3.35.904-4.202 3.061-4.723 6.557-1.053 7.055.076 18.085-9.873 18.075-6.748-.007-18.036-2.173-20.738 6.499-3.814 12.235 8.046 30.649 12.178 38.887l7.18 12.222c1.011 1.733 8.35.138 8.53.103l39.385-10.164c2.465-.394 9.797-1.685 9.6 2.765-.179 4.05-3.289 7.295-5.798 10.104l-.018-.563c1.465-2.648 4.592-6.622 3.873-9.945-.195-.9-2.596-.569-2.919-.549-16.904 1.07-31.976 11.379-48.821 13.279-2.535.286-5.874-.114-7.507-2.346-9.036-12.359-16.335-26.639-21.053-41.137-2.264-6.959-1.914-16.377 3.992-21.486 6.21-5.373 14.512-4.35 22.093-4.353 3.49-.001 2.818-5.428 3.108-7.588.75-5.585.934-11.375 6.085-14.779l1.279-.67-.884-1.029c-3.057-3.11-9.472-6.448-10.807-10.904-1.07-3.57 2.712-5.641 5.092-7.36l.404-.314.23-.205-.002-.027-.053-.306c-3.308-10.693-14.84-19.962-26.14-19.057-11.162.894-21.837 8.792-25.337 19.534-3.013 9.247-.1 17.391 2.934 26.143z" fill="#FFF212"/><path fill-rule="evenodd" clip-rule="evenodd" d="M116.758 168.468l25.912-5.745 21.965-2.877-5.101-24.544-.019-.069-10.812 4.677-11.084 3.703-.987.687c-11.651 4.85-16.709-17.819-18.089-23.781-5.455-23.566-7.687-50.74-.8-74.32 1.168-3.998 3.173-14.793 9.008-15.443 7.914-.882 16.805 2.29 24.277 4.375 3.119.87 11.863 1.666 12.141 6.534.09 1.59-1.301 5.134.855 6.017l12.757 4.779.384.258.135.084.072-.072c.194.185.493.827-.138.637l-13.151-3.526c-2.954-.777-3.514-2.934-3.439-5.665l.064-1.213-.031-1.128-.136-.663-.347-.16c-9.698-3.85-21.846-6.548-32.281-6.34l-.58.067-.114.027-2.821 5.532-2.275 7.08-1.588 8.076c-3.386 25.674-.171 52.261 7.886 76.777.545 1.659 2.829 8.239 5.839 7.193l25.426-9.081.873-.37.458-.045.567.069.478.177-.005-.002.012.006.821.681c1.811 1.788 2.104 8.253 2.43 9.966l3.173 19.749c.028.47.042 1.003-.134 1.45l-.165.346-.187.259-.183.159-.727.428-.507.071.298-.024-.307.025.257-.018-23.869 2.105-26.211 3.092zm42.211-35.175l-.004-.013v.003l.004.01zm2.076 1.279l.425-.042.276-.074.585-.292.354-.302-1.64.71zm16.118-81.412c-.001 0-.001.002-.003.002l.006.003-.003-.005zm-50.159-18.343l-.005.002-.039.017.044-.019zm35.053 95.356l-.089-.042-.04-.015.129.057zm-.129-.057l-.167-.065.13.048.037.017zm5.896 32.673l-.237.206.058-.039.252-.21-.073.043z" fill="#FFF212"/></svg>